%TF.GenerationSoftware,KiCad,Pcbnew,9.0.5*%
%TF.CreationDate,2025-10-31T15:32:28+05:30*%
%TF.ProjectId,Breadboard-PCB,42726561-6462-46f6-9172-642d5043422e,rev?*%
%TF.SameCoordinates,Original*%
%TF.FileFunction,Copper,L1,Top*%
%TF.FilePolarity,Positive*%
%FSLAX46Y46*%
G04 Gerber Fmt 4.6, Leading zero omitted, Abs format (unit mm)*
G04 Created by KiCad (PCBNEW 9.0.5) date 2025-10-31 15:32:28*
%MOMM*%
%LPD*%
G01*
G04 APERTURE LIST*
G04 Aperture macros list*
%AMRoundRect*
0 Rectangle with rounded corners*
0 $1 Rounding radius*
0 $2 $3 $4 $5 $6 $7 $8 $9 X,Y pos of 4 corners*
0 Add a 4 corners polygon primitive as box body*
4,1,4,$2,$3,$4,$5,$6,$7,$8,$9,$2,$3,0*
0 Add four circle primitives for the rounded corners*
1,1,$1+$1,$2,$3*
1,1,$1+$1,$4,$5*
1,1,$1+$1,$6,$7*
1,1,$1+$1,$8,$9*
0 Add four rect primitives between the rounded corners*
20,1,$1+$1,$2,$3,$4,$5,0*
20,1,$1+$1,$4,$5,$6,$7,0*
20,1,$1+$1,$6,$7,$8,$9,0*
20,1,$1+$1,$8,$9,$2,$3,0*%
G04 Aperture macros list end*
%TA.AperFunction,ComponentPad*%
%ADD10R,3.500000X3.500000*%
%TD*%
%TA.AperFunction,ComponentPad*%
%ADD11RoundRect,0.750000X-0.750000X-1.000000X0.750000X-1.000000X0.750000X1.000000X-0.750000X1.000000X0*%
%TD*%
%TA.AperFunction,ComponentPad*%
%ADD12RoundRect,0.875000X-0.875000X-0.875000X0.875000X-0.875000X0.875000X0.875000X-0.875000X0.875000X0*%
%TD*%
%TA.AperFunction,SMDPad,CuDef*%
%ADD13RoundRect,0.243750X-0.243750X-0.456250X0.243750X-0.456250X0.243750X0.456250X-0.243750X0.456250X0*%
%TD*%
%TA.AperFunction,SMDPad,CuDef*%
%ADD14RoundRect,0.250000X0.262500X0.450000X-0.262500X0.450000X-0.262500X-0.450000X0.262500X-0.450000X0*%
%TD*%
%TA.AperFunction,SMDPad,CuDef*%
%ADD15RoundRect,0.243750X0.243750X0.456250X-0.243750X0.456250X-0.243750X-0.456250X0.243750X-0.456250X0*%
%TD*%
%TA.AperFunction,SMDPad,CuDef*%
%ADD16RoundRect,0.250000X1.250000X0.550000X-1.250000X0.550000X-1.250000X-0.550000X1.250000X-0.550000X0*%
%TD*%
%TA.AperFunction,SMDPad,CuDef*%
%ADD17RoundRect,0.250000X0.250000X0.475000X-0.250000X0.475000X-0.250000X-0.475000X0.250000X-0.475000X0*%
%TD*%
%TA.AperFunction,SMDPad,CuDef*%
%ADD18RoundRect,0.375000X0.625000X0.375000X-0.625000X0.375000X-0.625000X-0.375000X0.625000X-0.375000X0*%
%TD*%
%TA.AperFunction,SMDPad,CuDef*%
%ADD19RoundRect,0.500000X0.500000X1.400000X-0.500000X1.400000X-0.500000X-1.400000X0.500000X-1.400000X0*%
%TD*%
%TA.AperFunction,SMDPad,CuDef*%
%ADD20RoundRect,0.250000X-0.550000X1.250000X-0.550000X-1.250000X0.550000X-1.250000X0.550000X1.250000X0*%
%TD*%
%TA.AperFunction,SMDPad,CuDef*%
%ADD21RoundRect,0.250000X-0.475000X0.250000X-0.475000X-0.250000X0.475000X-0.250000X0.475000X0.250000X0*%
%TD*%
%TA.AperFunction,SMDPad,CuDef*%
%ADD22RoundRect,0.250000X-0.262500X-0.450000X0.262500X-0.450000X0.262500X0.450000X-0.262500X0.450000X0*%
%TD*%
%TA.AperFunction,ComponentPad*%
%ADD23C,1.700000*%
%TD*%
%TA.AperFunction,ComponentPad*%
%ADD24R,1.700000X1.700000*%
%TD*%
%TA.AperFunction,ViaPad*%
%ADD25C,0.600000*%
%TD*%
%TA.AperFunction,Conductor*%
%ADD26C,0.500000*%
%TD*%
G04 APERTURE END LIST*
D10*
%TO.P,DC-POWER,1*%
%TO.N,Net-(DC-POWER1-Pad1)*%
X107200000Y-108200000D03*
D11*
%TO.P,DC-POWER,2*%
%TO.N,GND*%
X101200000Y-108200000D03*
D12*
%TO.P,DC-POWER,3*%
X104200000Y-112900000D03*
%TD*%
D13*
%TO.P,F1,2*%
%TO.N,Net-(U1-VI)*%
X112837500Y-108700000D03*
%TO.P,F1,1*%
%TO.N,Net-(DC-POWER1-Pad1)*%
X110962500Y-108700000D03*
%TD*%
D14*
%TO.P,R1,2*%
%TO.N,Net-(PWR_LED1-A)*%
X111000000Y-111700000D03*
%TO.P,R1,1*%
%TO.N,Net-(U1-VI)*%
X112825000Y-111700000D03*
%TD*%
D15*
%TO.P,PWR_LED1,2,A*%
%TO.N,Net-(PWR_LED1-A)*%
X110962500Y-114600000D03*
%TO.P,PWR_LED1,1,K*%
%TO.N,GND*%
X112837500Y-114600000D03*
%TD*%
D16*
%TO.P,C1,2*%
%TO.N,GND*%
X109500000Y-100400000D03*
%TO.P,C1,1*%
%TO.N,Net-(U1-VI)*%
X113900000Y-100400000D03*
%TD*%
D17*
%TO.P,C2,2*%
%TO.N,GND*%
X110950000Y-105700000D03*
%TO.P,C2,1*%
%TO.N,Net-(U1-VI)*%
X112850000Y-105700000D03*
%TD*%
D18*
%TO.P,U1,3,VI*%
%TO.N,Net-(U1-VI)*%
X113350000Y-90100000D03*
D19*
%TO.P,U1,2,VO*%
%TO.N,/5V*%
X107050000Y-92400000D03*
D18*
X113350000Y-92400000D03*
%TO.P,U1,1,GND*%
%TO.N,GND*%
X113350000Y-94700000D03*
%TD*%
D20*
%TO.P,C3,2*%
%TO.N,GND*%
X102500000Y-98300000D03*
%TO.P,C3,1*%
%TO.N,/5V*%
X102500000Y-93900000D03*
%TD*%
D21*
%TO.P,C4,2*%
%TO.N,GND*%
X97800000Y-96900000D03*
%TO.P,C4,1*%
%TO.N,/5V*%
X97800000Y-95000000D03*
%TD*%
D14*
%TO.P,R2,2*%
%TO.N,Net-(5V-LED1-A)*%
X96100000Y-90700000D03*
%TO.P,R2,1*%
%TO.N,/5V*%
X97925000Y-90700000D03*
%TD*%
D15*
%TO.P,5V-LED,2,A*%
%TO.N,Net-(5V-LED1-A)*%
X96062500Y-88200000D03*
%TO.P,5V-LED,1,K*%
%TO.N,GND*%
X97937500Y-88200000D03*
%TD*%
D18*
%TO.P,U2,3,VI*%
%TO.N,/5V*%
X112950000Y-74100000D03*
D19*
%TO.P,U2,2,VO*%
%TO.N,/3.3V*%
X106650000Y-76400000D03*
D18*
X112950000Y-76400000D03*
%TO.P,U2,1,GND*%
%TO.N,GND*%
X112950000Y-78700000D03*
%TD*%
D20*
%TO.P,C5,2*%
%TO.N,GND*%
X102100000Y-81100000D03*
%TO.P,C5,1*%
%TO.N,/3.3V*%
X102100000Y-76700000D03*
%TD*%
D21*
%TO.P,C6,2*%
%TO.N,GND*%
X97500000Y-79650000D03*
%TO.P,C6,1*%
%TO.N,/3.3V*%
X97500000Y-77750000D03*
%TD*%
D22*
%TO.P,R3,2*%
%TO.N,Net-(3.3V-LED1-A)*%
X98300000Y-74000000D03*
%TO.P,R3,1*%
%TO.N,/3.3V*%
X96475000Y-74000000D03*
%TD*%
D13*
%TO.P,3.3V-LED,2,A*%
%TO.N,Net-(3.3V-LED1-A)*%
X98425000Y-71100000D03*
%TO.P,3.3V-LED,1,K*%
%TO.N,GND*%
X96550000Y-71100000D03*
%TD*%
D23*
%TO.P,3.3V OUT 5V,3,Pin_3*%
%TO.N,/5V*%
X112900000Y-84400000D03*
%TO.P,3.3V OUT 5V,2,Pin_2*%
%TO.N,/V_OUT*%
X110360000Y-84400000D03*
D24*
%TO.P,3.3V OUT 5V,1,Pin_1*%
%TO.N,/3.3V*%
X107820000Y-84400000D03*
%TD*%
%TO.P,J3,1,Pin_1*%
%TO.N,GND*%
X120900000Y-67200000D03*
D23*
%TO.P,J3,2,Pin_2*%
X118360000Y-67200000D03*
%TO.P,J3,3,Pin_3*%
%TO.N,/V_OUT*%
X120900000Y-69740000D03*
%TO.P,J3,4,Pin_4*%
X118360000Y-69740000D03*
%TD*%
%TO.P,J4,4,Pin_4*%
%TO.N,/V_OUT*%
X118360000Y-114600000D03*
%TO.P,J4,3,Pin_3*%
X120900000Y-114600000D03*
%TO.P,J4,2,Pin_2*%
%TO.N,GND*%
X118360000Y-112060000D03*
D24*
%TO.P,J4,1,Pin_1*%
X120900000Y-112060000D03*
%TD*%
D25*
%TO.N,GND*%
X113600000Y-80600000D03*
X112100000Y-80600000D03*
%TD*%
D26*
%TO.N,/V_OUT*%
X120900000Y-69740000D02*
X118360000Y-69740000D01*
%TO.N,Net-(3.3V-LED1-A)*%
X98425000Y-71100000D02*
X98425000Y-73875000D01*
X98425000Y-73875000D02*
X98300000Y-74000000D01*
%TO.N,/3.3V*%
X96500000Y-75300000D02*
X96475000Y-75275000D01*
X96475000Y-75275000D02*
X96475000Y-74000000D01*
X96500000Y-76750000D02*
X96500000Y-75300000D01*
X97500000Y-77750000D02*
X96500000Y-76750000D01*
X106650000Y-83230000D02*
X107820000Y-84400000D01*
X106650000Y-76400000D02*
X106650000Y-83230000D01*
X101800000Y-76700000D02*
X100750000Y-77750000D01*
X100750000Y-77750000D02*
X97500000Y-77750000D01*
X102100000Y-76700000D02*
X101800000Y-76700000D01*
X106650000Y-76400000D02*
X102400000Y-76400000D01*
X102400000Y-76400000D02*
X102100000Y-76700000D01*
X112950000Y-76400000D02*
X106650000Y-76400000D01*
%TO.N,/5V*%
X114400000Y-84400000D02*
X112900000Y-84400000D01*
X115000000Y-83800000D02*
X114400000Y-84400000D01*
X115000000Y-75300000D02*
X115000000Y-83800000D01*
X113800000Y-74100000D02*
X115000000Y-75300000D01*
X112950000Y-74100000D02*
X113800000Y-74100000D01*
X111200000Y-91100000D02*
X112500000Y-92400000D01*
X111200000Y-86100000D02*
X111200000Y-91100000D01*
X112900000Y-84400000D02*
X111200000Y-86100000D01*
X112500000Y-92400000D02*
X113350000Y-92400000D01*
%TO.N,Net-(5V-LED1-A)*%
X96100000Y-88237500D02*
X96062500Y-88200000D01*
X96100000Y-90700000D02*
X96100000Y-88237500D01*
%TO.N,/5V*%
X97925000Y-94875000D02*
X97800000Y-95000000D01*
X97925000Y-90700000D02*
X97925000Y-94875000D01*
X101400000Y-95000000D02*
X102500000Y-93900000D01*
X97800000Y-95000000D02*
X101400000Y-95000000D01*
X104000000Y-92400000D02*
X102500000Y-93900000D01*
X107050000Y-92400000D02*
X104000000Y-92400000D01*
X113350000Y-92400000D02*
X107050000Y-92400000D01*
%TO.N,Net-(U1-VI)*%
X114300000Y-90100000D02*
X113350000Y-90100000D01*
X115249000Y-91049000D02*
X114300000Y-90100000D01*
X115249000Y-99051000D02*
X115249000Y-91049000D01*
X113900000Y-100400000D02*
X115249000Y-99051000D01*
X112850000Y-101450000D02*
X113900000Y-100400000D01*
X112850000Y-105700000D02*
X112850000Y-101450000D01*
X112837500Y-108700000D02*
X112837500Y-105712500D01*
X112837500Y-105712500D02*
X112850000Y-105700000D01*
%TO.N,Net-(PWR_LED1-A)*%
X111000000Y-114562500D02*
X110962500Y-114600000D01*
X111000000Y-111700000D02*
X111000000Y-114562500D01*
%TO.N,Net-(U1-VI)*%
X112837500Y-108700000D02*
X112837500Y-111687500D01*
X112837500Y-111687500D02*
X112825000Y-111700000D01*
%TO.N,Net-(DC-POWER1-Pad1)*%
X110462500Y-108200000D02*
X110962500Y-108700000D01*
X107200000Y-108200000D02*
X110462500Y-108200000D01*
%TD*%
%TA.AperFunction,Conductor*%
%TO.N,GND*%
G36*
X119512356Y-112858803D02*
G01*
X119545841Y-112920126D01*
X119544926Y-112934831D01*
X119547497Y-112934555D01*
X119556401Y-113017373D01*
X119556403Y-113017380D01*
X119606645Y-113152086D01*
X119606649Y-113152093D01*
X119692809Y-113267187D01*
X119692812Y-113267190D01*
X119807906Y-113353350D01*
X119807913Y-113353354D01*
X119939470Y-113402422D01*
X119995404Y-113444293D01*
X120019821Y-113509758D01*
X120004969Y-113578031D01*
X119983819Y-113606285D01*
X119869889Y-113720215D01*
X119744949Y-113892182D01*
X119740484Y-113900946D01*
X119692509Y-113951742D01*
X119624688Y-113968536D01*
X119558553Y-113945998D01*
X119519516Y-113900946D01*
X119515050Y-113892182D01*
X119390109Y-113720213D01*
X119239786Y-113569890D01*
X119067817Y-113444949D01*
X119058504Y-113440204D01*
X119007707Y-113392230D01*
X118990912Y-113324409D01*
X119013449Y-113258274D01*
X119058507Y-113219232D01*
X119067555Y-113214622D01*
X119121716Y-113175270D01*
X119121717Y-113175270D01*
X118489408Y-112542962D01*
X118552993Y-112525925D01*
X118667007Y-112460099D01*
X118760099Y-112367007D01*
X118825925Y-112252993D01*
X118842962Y-112189409D01*
X119512356Y-112858803D01*
G37*
%TD.AperFunction*%
%TA.AperFunction,Conductor*%
G36*
X119512356Y-67998803D02*
G01*
X119545841Y-68060126D01*
X119544926Y-68074831D01*
X119547497Y-68074555D01*
X119556401Y-68157373D01*
X119556403Y-68157380D01*
X119606645Y-68292086D01*
X119606649Y-68292093D01*
X119692809Y-68407187D01*
X119692812Y-68407190D01*
X119807906Y-68493350D01*
X119807913Y-68493354D01*
X119939470Y-68542422D01*
X119995404Y-68584293D01*
X120019821Y-68649758D01*
X120004969Y-68718031D01*
X119983819Y-68746285D01*
X119869892Y-68860212D01*
X119813097Y-68938385D01*
X119808765Y-68941725D01*
X119806492Y-68946703D01*
X119781389Y-68962835D01*
X119757767Y-68981051D01*
X119751095Y-68982303D01*
X119747714Y-68984477D01*
X119712779Y-68989500D01*
X119547221Y-68989500D01*
X119480182Y-68969815D01*
X119446903Y-68938385D01*
X119390107Y-68860211D01*
X119239786Y-68709890D01*
X119067817Y-68584949D01*
X119058504Y-68580204D01*
X119007707Y-68532230D01*
X118990912Y-68464409D01*
X119013449Y-68398274D01*
X119058507Y-68359232D01*
X119067555Y-68354622D01*
X119121716Y-68315270D01*
X119121717Y-68315270D01*
X118489408Y-67682962D01*
X118552993Y-67665925D01*
X118667007Y-67600099D01*
X118760099Y-67507007D01*
X118825925Y-67392993D01*
X118842962Y-67329409D01*
X119512356Y-67998803D01*
G37*
%TD.AperFunction*%
%TA.AperFunction,Conductor*%
G36*
X122442539Y-65420185D02*
G01*
X122488294Y-65472989D01*
X122499500Y-65524500D01*
X122499500Y-71275500D01*
X122479815Y-71342539D01*
X122427011Y-71388294D01*
X122375500Y-71399500D01*
X115934108Y-71399500D01*
X115806812Y-71433608D01*
X115692686Y-71499500D01*
X115692683Y-71499502D01*
X115599502Y-71592683D01*
X115599500Y-71592686D01*
X115533608Y-71706812D01*
X115499500Y-71834108D01*
X115499500Y-74438770D01*
X115479815Y-74505809D01*
X115427011Y-74551564D01*
X115357853Y-74561508D01*
X115294297Y-74532483D01*
X115287819Y-74526451D01*
X114486315Y-73724947D01*
X114452830Y-73663624D01*
X114450280Y-73645650D01*
X114447600Y-73606114D01*
X114447600Y-73606112D01*
X114447599Y-73606107D01*
X114401641Y-73421307D01*
X114389685Y-73397200D01*
X114317032Y-73250707D01*
X114317030Y-73250704D01*
X114197722Y-73102278D01*
X114197721Y-73102277D01*
X114049295Y-72982969D01*
X114049292Y-72982967D01*
X113878697Y-72898360D01*
X113693892Y-72852400D01*
X113672506Y-72850950D01*
X113651123Y-72849500D01*
X113651120Y-72849500D01*
X112248877Y-72849500D01*
X112248874Y-72849501D01*
X112206113Y-72852399D01*
X112206112Y-72852399D01*
X112021303Y-72898360D01*
X111850707Y-72982967D01*
X111850704Y-72982969D01*
X111702278Y-73102277D01*
X111702277Y-73102278D01*
X111582969Y-73250704D01*
X111582967Y-73250707D01*
X111498360Y-73421302D01*
X111452400Y-73606107D01*
X111449500Y-73648879D01*
X111449500Y-74551122D01*
X111449501Y-74551125D01*
X111452399Y-74593886D01*
X111452399Y-74593887D01*
X111498360Y-74778696D01*
X111582967Y-74949292D01*
X111582969Y-74949295D01*
X111702277Y-75097721D01*
X111702278Y-75097722D01*
X111771486Y-75153353D01*
X111811405Y-75210696D01*
X111813985Y-75280518D01*
X111778406Y-75340651D01*
X111771486Y-75346647D01*
X111702278Y-75402277D01*
X111702277Y-75402278D01*
X111582969Y-75550704D01*
X111568146Y-75580594D01*
X111520725Y-75631907D01*
X111457058Y-75649500D01*
X108274499Y-75649500D01*
X108207460Y-75629815D01*
X108161705Y-75577011D01*
X108150499Y-75525500D01*
X108150499Y-74941971D01*
X108150499Y-74941964D01*
X108139886Y-74822582D01*
X108083909Y-74626951D01*
X107989698Y-74446593D01*
X107937684Y-74382803D01*
X107861109Y-74288890D01*
X107703409Y-74160304D01*
X107703410Y-74160304D01*
X107703407Y-74160302D01*
X107523049Y-74066091D01*
X107523048Y-74066090D01*
X107523045Y-74066089D01*
X107405829Y-74032550D01*
X107327418Y-74010114D01*
X107327415Y-74010113D01*
X107327413Y-74010113D01*
X107261102Y-74004217D01*
X107208037Y-73999500D01*
X107208032Y-73999500D01*
X106091971Y-73999500D01*
X106091965Y-73999500D01*
X106091964Y-73999501D01*
X106080316Y-74000536D01*
X105972584Y-74010113D01*
X105776954Y-74066089D01*
X105686772Y-74113196D01*
X105596593Y-74160302D01*
X105596591Y-74160303D01*
X105596590Y-74160304D01*
X105438890Y-74288890D01*
X105310304Y-74446590D01*
X105310302Y-74446593D01*
X105282400Y-74500009D01*
X105216089Y-74626954D01*
X105160114Y-74822583D01*
X105160113Y-74822586D01*
X105149500Y-74941966D01*
X105149500Y-75525500D01*
X105129815Y-75592539D01*
X105077011Y-75638294D01*
X105025500Y-75649500D01*
X103524499Y-75649500D01*
X103457460Y-75629815D01*
X103411705Y-75577011D01*
X103400499Y-75525500D01*
X103400499Y-75399998D01*
X103400498Y-75399981D01*
X103389999Y-75297203D01*
X103389998Y-75297200D01*
X103361333Y-75210696D01*
X103334814Y-75130666D01*
X103242712Y-74981344D01*
X103118656Y-74857288D01*
X103025888Y-74800069D01*
X102969336Y-74765187D01*
X102969331Y-74765185D01*
X102967862Y-74764698D01*
X102802797Y-74710001D01*
X102802795Y-74710000D01*
X102700010Y-74699500D01*
X101499998Y-74699500D01*
X101499981Y-74699501D01*
X101397203Y-74710000D01*
X101397200Y-74710001D01*
X101230668Y-74765185D01*
X101230663Y-74765187D01*
X101081342Y-74857289D01*
X100957289Y-74981342D01*
X100865187Y-75130663D01*
X100865186Y-75130666D01*
X100810001Y-75297203D01*
X100810001Y-75297204D01*
X100810000Y-75297204D01*
X100799500Y-75399983D01*
X100799500Y-76587770D01*
X100779815Y-76654809D01*
X100763181Y-76675451D01*
X100475451Y-76963181D01*
X100414128Y-76996666D01*
X100387770Y-76999500D01*
X98587230Y-76999500D01*
X98520191Y-76979815D01*
X98499549Y-76963181D01*
X98443657Y-76907289D01*
X98443656Y-76907288D01*
X98294334Y-76815186D01*
X98127797Y-76760001D01*
X98127795Y-76760000D01*
X98025016Y-76749500D01*
X98025009Y-76749500D01*
X97612229Y-76749500D01*
X97545190Y-76729815D01*
X97524548Y-76713181D01*
X97286819Y-76475451D01*
X97253334Y-76414128D01*
X97250500Y-76387770D01*
X97250500Y-75226079D01*
X97227883Y-75112380D01*
X97225500Y-75088188D01*
X97225500Y-75074730D01*
X97245185Y-75007691D01*
X97261819Y-74987049D01*
X97299819Y-74949049D01*
X97361142Y-74915564D01*
X97430834Y-74920548D01*
X97475181Y-74949049D01*
X97568844Y-75042712D01*
X97718166Y-75134814D01*
X97884703Y-75189999D01*
X97987491Y-75200500D01*
X98612508Y-75200499D01*
X98612516Y-75200498D01*
X98612519Y-75200498D01*
X98668802Y-75194748D01*
X98715297Y-75189999D01*
X98881834Y-75134814D01*
X99031156Y-75042712D01*
X99155212Y-74918656D01*
X99247314Y-74769334D01*
X99302499Y-74602797D01*
X99313000Y-74500009D01*
X99312999Y-73499992D01*
X99302499Y-73397203D01*
X99247314Y-73230666D01*
X99193961Y-73144166D01*
X99175500Y-73079070D01*
X99175500Y-72153391D01*
X99195185Y-72086352D01*
X99211819Y-72065710D01*
X99256526Y-72021003D01*
X99347862Y-71872925D01*
X99402587Y-71707775D01*
X99413000Y-71605848D01*
X99413000Y-70594152D01*
X99402587Y-70492225D01*
X99347862Y-70327075D01*
X99347858Y-70327069D01*
X99347857Y-70327066D01*
X99256528Y-70179000D01*
X99256525Y-70178996D01*
X99133503Y-70055974D01*
X99133499Y-70055971D01*
X98985433Y-69964642D01*
X98985427Y-69964639D01*
X98985425Y-69964638D01*
X98985422Y-69964637D01*
X98820276Y-69909913D01*
X98718355Y-69899500D01*
X98718348Y-69899500D01*
X98131652Y-69899500D01*
X98131644Y-69899500D01*
X98029723Y-69909913D01*
X97864577Y-69964637D01*
X97864566Y-69964642D01*
X97716500Y-70055971D01*
X97716496Y-70055974D01*
X97593474Y-70178996D01*
X97593467Y-70179005D01*
X97592734Y-70180194D01*
X97592019Y-70180836D01*
X97588993Y-70184664D01*
X97588338Y-70184146D01*
X97540780Y-70226911D01*
X97471816Y-70238123D01*
X97407738Y-70210271D01*
X97385738Y-70184877D01*
X97385612Y-70184977D01*
X97383385Y-70182161D01*
X97381663Y-70180173D01*
X97381130Y-70179309D01*
X97258191Y-70056370D01*
X97110214Y-69965096D01*
X97110209Y-69965094D01*
X96945173Y-69910407D01*
X96843315Y-69900000D01*
X96800000Y-69900000D01*
X96800000Y-72300000D01*
X96843303Y-72300000D01*
X96843315Y-72299999D01*
X96945173Y-72289592D01*
X97110209Y-72234905D01*
X97110214Y-72234903D01*
X97258191Y-72143629D01*
X97381128Y-72020692D01*
X97381659Y-72019832D01*
X97382180Y-72019363D01*
X97385612Y-72015023D01*
X97386353Y-72015608D01*
X97433601Y-71973102D01*
X97502563Y-71961872D01*
X97566648Y-71989708D01*
X97578262Y-72000747D01*
X97586430Y-72009584D01*
X97593474Y-72021003D01*
X97639907Y-72067436D01*
X97641557Y-72069221D01*
X97656046Y-72098427D01*
X97671666Y-72127033D01*
X97672061Y-72130710D01*
X97672608Y-72131812D01*
X97672390Y-72133770D01*
X97674500Y-72153391D01*
X97674500Y-72822911D01*
X97654815Y-72889950D01*
X97615598Y-72928449D01*
X97568844Y-72957287D01*
X97568843Y-72957288D01*
X97475181Y-73050951D01*
X97413858Y-73084436D01*
X97344166Y-73079452D01*
X97299819Y-73050951D01*
X97206157Y-72957289D01*
X97206156Y-72957288D01*
X97056834Y-72865186D01*
X96890297Y-72810001D01*
X96890295Y-72810000D01*
X96787510Y-72799500D01*
X96162498Y-72799500D01*
X96162480Y-72799501D01*
X96059703Y-72810000D01*
X96059700Y-72810001D01*
X95893168Y-72865185D01*
X95893163Y-72865187D01*
X95743842Y-72957289D01*
X95619789Y-73081342D01*
X95527687Y-73230663D01*
X95527686Y-73230666D01*
X95472501Y-73397203D01*
X95472501Y-73397204D01*
X95472500Y-73397204D01*
X95462000Y-73499983D01*
X95462000Y-74500001D01*
X95462001Y-74500019D01*
X95472500Y-74602796D01*
X95472501Y-74602799D01*
X95527685Y-74769331D01*
X95527687Y-74769336D01*
X95619789Y-74918657D01*
X95688181Y-74987049D01*
X95721666Y-75048372D01*
X95724500Y-75074730D01*
X95724500Y-75348920D01*
X95747117Y-75462618D01*
X95749500Y-75486810D01*
X95749500Y-76823918D01*
X95749500Y-76823920D01*
X95749499Y-76823920D01*
X95778340Y-76968907D01*
X95778343Y-76968917D01*
X95834913Y-77105490D01*
X95834915Y-77105493D01*
X95845718Y-77121662D01*
X95845717Y-77121662D01*
X95917046Y-77228414D01*
X95917047Y-77228415D01*
X95917048Y-77228416D01*
X96238182Y-77549549D01*
X96271666Y-77610871D01*
X96274500Y-77637229D01*
X96274500Y-78050001D01*
X96274501Y-78050019D01*
X96285000Y-78152796D01*
X96285001Y-78152799D01*
X96340185Y-78319331D01*
X96340187Y-78319336D01*
X96375069Y-78375888D01*
X96432288Y-78468656D01*
X96556344Y-78592712D01*
X96559628Y-78594737D01*
X96559653Y-78594753D01*
X96561445Y-78596746D01*
X96562011Y-78597193D01*
X96561934Y-78597289D01*
X96606379Y-78646699D01*
X96617603Y-78715661D01*
X96589761Y-78779744D01*
X96559665Y-78805826D01*
X96556660Y-78807679D01*
X96556655Y-78807683D01*
X96432684Y-78931654D01*
X96340643Y-79080875D01*
X96340641Y-79080880D01*
X96285494Y-79247302D01*
X96285493Y-79247309D01*
X96275000Y-79350013D01*
X96275000Y-79400000D01*
X98724999Y-79400000D01*
X98724999Y-79350028D01*
X98724998Y-79350013D01*
X98714505Y-79247302D01*
X98659358Y-79080880D01*
X98659356Y-79080875D01*
X98567315Y-78931654D01*
X98443344Y-78807683D01*
X98443341Y-78807681D01*
X98440339Y-78805829D01*
X98438713Y-78804021D01*
X98437677Y-78803202D01*
X98437817Y-78803024D01*
X98393617Y-78753880D01*
X98382397Y-78684917D01*
X98410243Y-78620836D01*
X98421157Y-78609341D01*
X98430036Y-78601112D01*
X98443656Y-78592712D01*
X98501214Y-78535153D01*
X98502947Y-78533548D01*
X98532197Y-78518991D01*
X98560872Y-78503334D01*
X98564428Y-78502951D01*
X98565499Y-78502419D01*
X98567419Y-78502630D01*
X98587230Y-78500500D01*
X100823920Y-78500500D01*
X100938419Y-78477724D01*
X101008011Y-78483951D01*
X101050292Y-78511660D01*
X101081344Y-78542712D01*
X101230666Y-78634814D01*
X101397203Y-78689999D01*
X101499991Y-78700500D01*
X102700008Y-78700499D01*
X102802797Y-78689999D01*
X102969334Y-78634814D01*
X103118656Y-78542712D01*
X103242712Y-78418656D01*
X103334814Y-78269334D01*
X103389999Y-78102797D01*
X103400500Y-78000009D01*
X103400500Y-77274500D01*
X103420185Y-77207461D01*
X103472989Y-77161706D01*
X103524500Y-77150500D01*
X105025501Y-77150500D01*
X105092540Y-77170185D01*
X105138295Y-77222989D01*
X105149501Y-77274500D01*
X105149501Y-77858034D01*
X105160113Y-77977415D01*
X105216089Y-78173045D01*
X105216090Y-78173048D01*
X105216091Y-78173049D01*
X105310302Y-78353407D01*
X105310304Y-78353409D01*
X105438890Y-78511109D01*
X105544465Y-78597193D01*
X105596593Y-78639698D01*
X105776951Y-78733909D01*
X105809613Y-78743254D01*
X105868647Y-78780618D01*
X105898112Y-78843971D01*
X105899500Y-78862469D01*
X105899500Y-83303918D01*
X105899500Y-83303920D01*
X105899499Y-83303920D01*
X105928340Y-83448907D01*
X105928343Y-83448917D01*
X105984914Y-83585492D01*
X106009882Y-83622859D01*
X106009883Y-83622862D01*
X106067046Y-83708414D01*
X106067052Y-83708421D01*
X106433181Y-84074549D01*
X106466666Y-84135872D01*
X106469500Y-84162230D01*
X106469500Y-85297870D01*
X106469501Y-85297876D01*
X106475908Y-85357483D01*
X106526202Y-85492328D01*
X106526206Y-85492335D01*
X106612452Y-85607544D01*
X106612455Y-85607547D01*
X106727664Y-85693793D01*
X106727671Y-85693797D01*
X106862517Y-85744091D01*
X106862516Y-85744091D01*
X106869444Y-85744835D01*
X106922127Y-85750500D01*
X108717872Y-85750499D01*
X108777483Y-85744091D01*
X108912331Y-85693796D01*
X109027546Y-85607546D01*
X109113796Y-85492331D01*
X109162810Y-85360916D01*
X109204681Y-85304984D01*
X109270145Y-85280566D01*
X109338418Y-85295417D01*
X109366673Y-85316569D01*
X109480213Y-85430109D01*
X109652179Y-85555048D01*
X109652181Y-85555049D01*
X109652184Y-85555051D01*
X109841588Y-85651557D01*
X110043757Y-85717246D01*
X110253713Y-85750500D01*
X110253714Y-85750500D01*
X110353223Y-85750500D01*
X110420262Y-85770185D01*
X110466017Y-85822989D01*
X110475961Y-85892147D01*
X110474840Y-85898692D01*
X110449500Y-86026079D01*
X110449500Y-86026082D01*
X110449500Y-91173918D01*
X110449500Y-91173920D01*
X110449499Y-91173920D01*
X110478340Y-91318907D01*
X110478343Y-91318917D01*
X110534913Y-91455490D01*
X110534915Y-91455493D01*
X110534916Y-91455495D01*
X110535659Y-91456607D01*
X110535869Y-91457279D01*
X110537785Y-91460862D01*
X110537105Y-91461225D01*
X110556539Y-91523282D01*
X110538057Y-91590663D01*
X110486080Y-91637355D01*
X110432559Y-91649500D01*
X108674499Y-91649500D01*
X108607460Y-91629815D01*
X108561705Y-91577011D01*
X108550499Y-91525500D01*
X108550499Y-90941971D01*
X108550499Y-90941964D01*
X108539886Y-90822582D01*
X108483909Y-90626951D01*
X108389698Y-90446593D01*
X108337684Y-90382803D01*
X108261109Y-90288890D01*
X108103409Y-90160304D01*
X108103410Y-90160304D01*
X108103407Y-90160302D01*
X107923049Y-90066091D01*
X107923048Y-90066090D01*
X107923045Y-90066089D01*
X107784513Y-90026451D01*
X107727418Y-90010114D01*
X107727415Y-90010113D01*
X107727413Y-90010113D01*
X107661102Y-90004217D01*
X107608037Y-89999500D01*
X107608032Y-89999500D01*
X106491971Y-89999500D01*
X106491965Y-89999500D01*
X106491964Y-89999501D01*
X106480316Y-90000536D01*
X106372584Y-90010113D01*
X106176954Y-90066089D01*
X106117390Y-90097203D01*
X105996593Y-90160302D01*
X105996591Y-90160303D01*
X105996590Y-90160304D01*
X105838890Y-90288890D01*
X105710304Y-90446590D01*
X105616089Y-90626954D01*
X105560114Y-90822583D01*
X105560113Y-90822586D01*
X105549500Y-90941966D01*
X105549500Y-91525500D01*
X105529815Y-91592539D01*
X105477011Y-91638294D01*
X105425500Y-91649500D01*
X103926080Y-91649500D01*
X103781092Y-91678340D01*
X103781082Y-91678343D01*
X103644511Y-91734912D01*
X103644498Y-91734919D01*
X103521587Y-91817046D01*
X103521582Y-91817050D01*
X103426504Y-91912127D01*
X103365181Y-91945611D01*
X103299821Y-91942151D01*
X103202799Y-91910001D01*
X103202795Y-91910000D01*
X103100010Y-91899500D01*
X101899998Y-91899500D01*
X101899981Y-91899501D01*
X101797203Y-91910000D01*
X101797200Y-91910001D01*
X101630668Y-91965185D01*
X101630663Y-91965187D01*
X101481342Y-92057289D01*
X101357289Y-92181342D01*
X101265187Y-92330663D01*
X101265186Y-92330666D01*
X101210001Y-92497203D01*
X101210001Y-92497204D01*
X101210000Y-92497204D01*
X101199500Y-92599983D01*
X101199500Y-94087768D01*
X101190855Y-94117207D01*
X101184333Y-94147193D01*
X101180577Y-94152209D01*
X101179815Y-94154807D01*
X101163182Y-94175448D01*
X101125451Y-94213180D01*
X101064129Y-94246666D01*
X101037769Y-94249500D01*
X98887230Y-94249500D01*
X98820191Y-94229815D01*
X98799549Y-94213181D01*
X98743655Y-94157287D01*
X98734402Y-94151580D01*
X98687678Y-94099632D01*
X98675500Y-94046042D01*
X98675500Y-91774730D01*
X98695185Y-91707691D01*
X98711819Y-91687049D01*
X98720528Y-91678340D01*
X98780212Y-91618656D01*
X98872314Y-91469334D01*
X98927499Y-91302797D01*
X98938000Y-91200009D01*
X98937999Y-90199992D01*
X98927499Y-90097203D01*
X98872314Y-89930666D01*
X98780212Y-89781344D01*
X98656156Y-89657288D01*
X98506834Y-89565186D01*
X98506833Y-89565185D01*
X98500291Y-89562136D01*
X98501098Y-89560404D01*
X98451636Y-89526148D01*
X98424822Y-89461629D01*
X98437147Y-89392854D01*
X98484697Y-89341661D01*
X98495706Y-89335839D01*
X98497715Y-89334902D01*
X98645691Y-89243629D01*
X98768629Y-89120691D01*
X98859903Y-88972714D01*
X98859905Y-88972709D01*
X98914592Y-88807673D01*
X98924999Y-88705815D01*
X98925000Y-88705802D01*
X98925000Y-88450000D01*
X98061500Y-88450000D01*
X97994461Y-88430315D01*
X97948706Y-88377511D01*
X97937500Y-88326000D01*
X97937500Y-88200000D01*
X97811500Y-88200000D01*
X97744461Y-88180315D01*
X97698706Y-88127511D01*
X97687500Y-88076000D01*
X97687500Y-87950000D01*
X98187500Y-87950000D01*
X98925000Y-87950000D01*
X98925000Y-87694197D01*
X98924999Y-87694184D01*
X98914592Y-87592326D01*
X98859905Y-87427290D01*
X98859903Y-87427285D01*
X98768629Y-87279308D01*
X98645691Y-87156370D01*
X98497714Y-87065096D01*
X98497709Y-87065094D01*
X98332673Y-87010407D01*
X98230815Y-87000000D01*
X98187500Y-87000000D01*
X98187500Y-87950000D01*
X97687500Y-87950000D01*
X97687500Y-87000000D01*
X97644184Y-87000000D01*
X97542326Y-87010407D01*
X97377290Y-87065094D01*
X97377285Y-87065096D01*
X97229308Y-87156370D01*
X97106369Y-87279309D01*
X97106364Y-87279315D01*
X97105829Y-87280184D01*
X97105306Y-87280654D01*
X97101888Y-87284977D01*
X97101149Y-87284392D01*
X97053879Y-87326906D01*
X96984916Y-87338125D01*
X96920835Y-87310278D01*
X96898586Y-87284601D01*
X96898507Y-87284664D01*
X96897111Y-87282898D01*
X96894758Y-87280183D01*
X96894028Y-87278999D01*
X96771003Y-87155974D01*
X96770999Y-87155971D01*
X96622933Y-87064642D01*
X96622927Y-87064639D01*
X96622925Y-87064638D01*
X96622922Y-87064637D01*
X96457776Y-87009913D01*
X96355855Y-86999500D01*
X96355848Y-86999500D01*
X95769152Y-86999500D01*
X95769144Y-86999500D01*
X95667223Y-87009913D01*
X95502077Y-87064637D01*
X95502066Y-87064642D01*
X95354000Y-87155971D01*
X95353996Y-87155974D01*
X95230974Y-87278996D01*
X95230971Y-87279000D01*
X95139642Y-87427066D01*
X95139637Y-87427077D01*
X95084913Y-87592223D01*
X95074500Y-87694144D01*
X95074500Y-88705855D01*
X95084913Y-88807776D01*
X95139637Y-88972922D01*
X95139642Y-88972933D01*
X95230971Y-89120999D01*
X95230974Y-89121003D01*
X95313181Y-89203210D01*
X95346666Y-89264533D01*
X95349500Y-89290891D01*
X95349500Y-89625270D01*
X95329815Y-89692309D01*
X95313181Y-89712951D01*
X95244789Y-89781342D01*
X95152687Y-89930663D01*
X95152685Y-89930668D01*
X95129877Y-89999500D01*
X95097501Y-90097203D01*
X95097501Y-90097204D01*
X95097500Y-90097204D01*
X95087000Y-90199983D01*
X95087000Y-91200001D01*
X95087001Y-91200019D01*
X95097500Y-91302796D01*
X95097501Y-91302799D01*
X95148100Y-91455495D01*
X95152686Y-91469334D01*
X95244788Y-91618656D01*
X95368844Y-91742712D01*
X95518166Y-91834814D01*
X95684703Y-91889999D01*
X95787491Y-91900500D01*
X96412508Y-91900499D01*
X96412516Y-91900498D01*
X96412519Y-91900498D01*
X96468802Y-91894748D01*
X96515297Y-91889999D01*
X96681834Y-91834814D01*
X96831156Y-91742712D01*
X96924819Y-91649049D01*
X96932764Y-91644710D01*
X96938190Y-91637463D01*
X96962949Y-91628228D01*
X96986142Y-91615564D01*
X96995171Y-91616209D01*
X97003654Y-91613046D01*
X97029474Y-91618662D01*
X97055834Y-91620548D01*
X97064887Y-91626366D01*
X97071927Y-91627898D01*
X97100181Y-91649049D01*
X97138181Y-91687049D01*
X97171666Y-91748372D01*
X97174500Y-91774730D01*
X97174500Y-93919699D01*
X97154815Y-93986738D01*
X97102011Y-94032493D01*
X97089507Y-94037403D01*
X97063439Y-94046042D01*
X97005668Y-94065185D01*
X97005663Y-94065187D01*
X96856342Y-94157289D01*
X96732289Y-94281342D01*
X96640187Y-94430663D01*
X96640186Y-94430666D01*
X96585001Y-94597203D01*
X96585001Y-94597204D01*
X96585000Y-94597204D01*
X96574500Y-94699983D01*
X96574500Y-95300001D01*
X96574501Y-95300019D01*
X96585000Y-95402796D01*
X96585001Y-95402799D01*
X96633455Y-95549022D01*
X96640186Y-95569334D01*
X96732288Y-95718656D01*
X96856344Y-95842712D01*
X96859628Y-95844737D01*
X96859653Y-95844753D01*
X96861445Y-95846746D01*
X96862011Y-95847193D01*
X96861934Y-95847289D01*
X96906379Y-95896699D01*
X96917603Y-95965661D01*
X96889761Y-96029744D01*
X96859665Y-96055826D01*
X96856660Y-96057679D01*
X96856655Y-96057683D01*
X96732684Y-96181654D01*
X96640643Y-96330875D01*
X96640641Y-96330880D01*
X96585494Y-96497302D01*
X96585493Y-96497309D01*
X96575000Y-96600013D01*
X96575000Y-96650000D01*
X99024999Y-96650000D01*
X99024999Y-96600028D01*
X99024998Y-96600013D01*
X99014505Y-96497302D01*
X98959358Y-96330880D01*
X98959356Y-96330875D01*
X98867315Y-96181654D01*
X98743344Y-96057683D01*
X98743341Y-96057681D01*
X98740339Y-96055829D01*
X98738713Y-96054021D01*
X98737677Y-96053202D01*
X98737817Y-96053024D01*
X98693617Y-96003880D01*
X98682397Y-95934917D01*
X98710243Y-95870836D01*
X98721157Y-95859341D01*
X98730036Y-95851112D01*
X98743656Y-95842712D01*
X98801214Y-95785153D01*
X98802947Y-95783548D01*
X98832197Y-95768991D01*
X98860872Y-95753334D01*
X98864428Y-95752951D01*
X98865499Y-95752419D01*
X98867419Y-95752630D01*
X98887230Y-95750500D01*
X101458805Y-95750500D01*
X101523900Y-95768960D01*
X101630666Y-95834814D01*
X101797203Y-95889999D01*
X101899991Y-95900500D01*
X103100008Y-95900499D01*
X103202797Y-95889999D01*
X103369334Y-95834814D01*
X103518656Y-95742712D01*
X103642712Y-95618656D01*
X103734814Y-95469334D01*
X103789999Y-95302797D01*
X103800500Y-95200009D01*
X103800500Y-95151096D01*
X111850000Y-95151096D01*
X111852897Y-95193824D01*
X111898831Y-95378523D01*
X111983390Y-95549022D01*
X111983392Y-95549025D01*
X112102632Y-95697366D01*
X112102633Y-95697367D01*
X112250974Y-95816607D01*
X112250977Y-95816609D01*
X112421476Y-95901168D01*
X112606175Y-95947102D01*
X112648903Y-95950000D01*
X113100000Y-95950000D01*
X113100000Y-94950000D01*
X111850000Y-94950000D01*
X111850000Y-95151096D01*
X103800500Y-95151096D01*
X103800499Y-93712228D01*
X103820184Y-93645190D01*
X103836813Y-93624553D01*
X104274548Y-93186819D01*
X104335871Y-93153334D01*
X104362229Y-93150500D01*
X105425501Y-93150500D01*
X105492540Y-93170185D01*
X105538295Y-93222989D01*
X105549501Y-93274500D01*
X105549501Y-93858034D01*
X105560113Y-93977415D01*
X105616089Y-94173045D01*
X105616090Y-94173048D01*
X105616091Y-94173049D01*
X105710302Y-94353407D01*
X105710304Y-94353409D01*
X105838890Y-94511109D01*
X105852847Y-94522489D01*
X105996593Y-94639698D01*
X106176951Y-94733909D01*
X106372582Y-94789886D01*
X106491963Y-94800500D01*
X107608036Y-94800499D01*
X107727418Y-94789886D01*
X107923049Y-94733909D01*
X108103407Y-94639698D01*
X108261109Y-94511109D01*
X108389698Y-94353407D01*
X108483909Y-94173049D01*
X108539886Y-93977418D01*
X108550500Y-93858037D01*
X108550500Y-93274500D01*
X108570185Y-93207461D01*
X108622989Y-93161706D01*
X108674500Y-93150500D01*
X111857058Y-93150500D01*
X111924097Y-93170185D01*
X111968146Y-93219406D01*
X111982969Y-93249295D01*
X112102277Y-93397721D01*
X112102278Y-93397722D01*
X112171884Y-93453673D01*
X112211803Y-93511016D01*
X112214383Y-93580838D01*
X112178804Y-93640971D01*
X112171885Y-93646967D01*
X112102631Y-93702635D01*
X111983392Y-93850974D01*
X111983390Y-93850977D01*
X111898831Y-94021476D01*
X111852897Y-94206175D01*
X111850000Y-94248903D01*
X111850000Y-94450000D01*
X113226000Y-94450000D01*
X113293039Y-94469685D01*
X113338794Y-94522489D01*
X113350000Y-94574000D01*
X113350000Y-94700000D01*
X113476000Y-94700000D01*
X113543039Y-94719685D01*
X113588794Y-94772489D01*
X113600000Y-94824000D01*
X113600000Y-95950000D01*
X114051097Y-95950000D01*
X114093824Y-95947102D01*
X114278523Y-95901168D01*
X114319404Y-95880893D01*
X114388209Y-95868740D01*
X114452661Y-95895715D01*
X114492298Y-95953254D01*
X114498500Y-95991980D01*
X114498500Y-98688770D01*
X114478815Y-98755809D01*
X114462181Y-98776451D01*
X114175450Y-99063181D01*
X114114127Y-99096666D01*
X114087769Y-99099500D01*
X112599998Y-99099500D01*
X112599981Y-99099501D01*
X112497203Y-99110000D01*
X112497200Y-99110001D01*
X112330668Y-99165185D01*
X112330663Y-99165187D01*
X112181342Y-99257289D01*
X112057289Y-99381342D01*
X111965187Y-99530663D01*
X111965185Y-99530668D01*
X111965115Y-99530880D01*
X111910001Y-99697203D01*
X111910001Y-99697204D01*
X111910000Y-99697204D01*
X111899500Y-99799983D01*
X111899500Y-101000001D01*
X111899501Y-101000018D01*
X111910000Y-101102796D01*
X111910001Y-101102799D01*
X111965115Y-101269119D01*
X111965186Y-101269334D01*
X112057096Y-101418345D01*
X112057289Y-101418657D01*
X112063181Y-101424549D01*
X112096666Y-101485872D01*
X112099500Y-101512230D01*
X112099500Y-104612770D01*
X112091493Y-104640035D01*
X112086513Y-104668017D01*
X112081046Y-104675616D01*
X112079815Y-104679809D01*
X112066451Y-104697055D01*
X112064857Y-104698774D01*
X112007288Y-104756344D01*
X111998889Y-104769960D01*
X111990657Y-104778844D01*
X111970627Y-104790790D01*
X111953291Y-104806383D01*
X111941185Y-104808352D01*
X111930651Y-104814636D01*
X111907344Y-104813857D01*
X111884328Y-104817602D01*
X111873078Y-104812713D01*
X111860821Y-104812304D01*
X111841636Y-104799050D01*
X111820247Y-104789755D01*
X111808412Y-104776096D01*
X111803336Y-104772589D01*
X111801445Y-104768055D01*
X111794168Y-104759656D01*
X111792319Y-104756659D01*
X111792316Y-104756655D01*
X111668345Y-104632684D01*
X111519124Y-104540643D01*
X111519119Y-104540641D01*
X111352697Y-104485494D01*
X111352690Y-104485493D01*
X111249986Y-104475000D01*
X111200000Y-104475000D01*
X111200000Y-106924999D01*
X111249972Y-106924999D01*
X111249986Y-106924998D01*
X111352697Y-106914505D01*
X111519119Y-106859358D01*
X111519124Y-106859356D01*
X111668345Y-106767315D01*
X111792318Y-106643342D01*
X111794165Y-106640348D01*
X111795969Y-106638724D01*
X111796798Y-106637677D01*
X111796976Y-106637818D01*
X111846110Y-106593621D01*
X111915073Y-106582396D01*
X111979156Y-106610236D01*
X111991259Y-106621810D01*
X111999124Y-106630420D01*
X112007288Y-106643656D01*
X112052663Y-106689031D01*
X112054553Y-106691100D01*
X112068712Y-106720071D01*
X112084166Y-106748372D01*
X112084623Y-106752625D01*
X112085233Y-106753873D01*
X112084985Y-106755989D01*
X112087000Y-106774730D01*
X112087000Y-107646609D01*
X112067315Y-107713648D01*
X112050681Y-107734290D01*
X112005974Y-107778996D01*
X112005971Y-107779000D01*
X112005538Y-107779703D01*
X112005114Y-107780083D01*
X112001493Y-107784664D01*
X112000710Y-107784045D01*
X111953590Y-107826428D01*
X111884628Y-107837649D01*
X111820546Y-107809806D01*
X111798657Y-107784544D01*
X111798507Y-107784664D01*
X111795859Y-107781315D01*
X111794462Y-107779703D01*
X111794028Y-107779000D01*
X111794025Y-107778996D01*
X111671003Y-107655974D01*
X111670999Y-107655971D01*
X111522933Y-107564642D01*
X111522927Y-107564639D01*
X111522925Y-107564638D01*
X111522922Y-107564637D01*
X111357776Y-107509913D01*
X111255855Y-107499500D01*
X111255848Y-107499500D01*
X110757158Y-107499500D01*
X110709706Y-107490061D01*
X110681417Y-107478343D01*
X110681407Y-107478340D01*
X110536420Y-107449500D01*
X110536418Y-107449500D01*
X109574499Y-107449500D01*
X109507460Y-107429815D01*
X109461705Y-107377011D01*
X109450499Y-107325500D01*
X109450499Y-106402129D01*
X109450498Y-106402123D01*
X109450497Y-106402116D01*
X109444091Y-106342517D01*
X109404571Y-106236559D01*
X109400255Y-106224986D01*
X109950001Y-106224986D01*
X109960494Y-106327697D01*
X110015641Y-106494119D01*
X110015643Y-106494124D01*
X110107684Y-106643345D01*
X110231654Y-106767315D01*
X110380875Y-106859356D01*
X110380880Y-106859358D01*
X110547302Y-106914505D01*
X110547309Y-106914506D01*
X110650019Y-106924999D01*
X110699999Y-106924998D01*
X110700000Y-106924998D01*
X110700000Y-105950000D01*
X109950001Y-105950000D01*
X109950001Y-106224986D01*
X109400255Y-106224986D01*
X109393797Y-106207671D01*
X109393793Y-106207664D01*
X109307547Y-106092455D01*
X109307544Y-106092452D01*
X109192336Y-106006207D01*
X109192333Y-106006205D01*
X109192331Y-106006204D01*
X109192326Y-106006202D01*
X109057482Y-105955908D01*
X109057483Y-105955908D01*
X108997883Y-105949501D01*
X108997881Y-105949500D01*
X108997873Y-105949500D01*
X108997864Y-105949500D01*
X105402129Y-105949500D01*
X105402123Y-105949501D01*
X105342516Y-105955908D01*
X105207671Y-106006202D01*
X105207664Y-106006206D01*
X105092455Y-106092452D01*
X105092452Y-106092455D01*
X105006206Y-106207664D01*
X105006202Y-106207671D01*
X104955908Y-106342517D01*
X104949501Y-106402116D01*
X104949501Y-106402123D01*
X104949500Y-106402135D01*
X104949500Y-109997870D01*
X104949501Y-109997876D01*
X104955908Y-110057483D01*
X105006202Y-110192328D01*
X105006206Y-110192335D01*
X105092452Y-110307544D01*
X105092455Y-110307547D01*
X105207664Y-110393793D01*
X105207673Y-110393798D01*
X105256506Y-110412011D01*
X105312440Y-110453881D01*
X105336858Y-110519345D01*
X105322007Y-110587618D01*
X105272603Y-110637024D01*
X105206598Y-110652018D01*
X105168625Y-110650001D01*
X105168579Y-110650000D01*
X104450000Y-110650000D01*
X104450000Y-112400000D01*
X103950000Y-112400000D01*
X103950000Y-110650000D01*
X103231423Y-110650000D01*
X103231411Y-110650001D01*
X103178808Y-110652794D01*
X102949012Y-110697237D01*
X102730024Y-110779879D01*
X102528158Y-110898339D01*
X102528151Y-110898344D01*
X102349213Y-111049211D01*
X102349211Y-111049213D01*
X102198344Y-111228151D01*
X102198339Y-111228158D01*
X102079879Y-111430024D01*
X101997237Y-111649012D01*
X101952794Y-111878808D01*
X101952794Y-111878809D01*
X101950001Y-111931382D01*
X101950000Y-111931421D01*
X101950000Y-112650000D01*
X102766988Y-112650000D01*
X102734075Y-112707007D01*
X102700000Y-112834174D01*
X102700000Y-112965826D01*
X102734075Y-113092993D01*
X102766988Y-113150000D01*
X101950001Y-113150000D01*
X101950001Y-113868588D01*
X101952794Y-113921191D01*
X101997237Y-114150987D01*
X102079879Y-114369975D01*
X102198339Y-114571841D01*
X102198344Y-114571848D01*
X102349211Y-114750786D01*
X102349213Y-114750788D01*
X102528151Y-114901655D01*
X102528158Y-114901660D01*
X102730024Y-115020120D01*
X102949012Y-115102762D01*
X103178809Y-115147205D01*
X103231382Y-115149998D01*
X103231421Y-115149999D01*
X103949999Y-115149999D01*
X103950000Y-115149998D01*
X103950000Y-113400000D01*
X104450000Y-113400000D01*
X104450000Y-115149999D01*
X105168576Y-115149999D01*
X105168588Y-115149998D01*
X105221191Y-115147205D01*
X105450987Y-115102762D01*
X105669975Y-115020120D01*
X105871841Y-114901660D01*
X105871848Y-114901655D01*
X106050786Y-114750788D01*
X106050788Y-114750786D01*
X106201655Y-114571848D01*
X106201660Y-114571841D01*
X106320120Y-114369975D01*
X106402762Y-114150987D01*
X106447205Y-113921191D01*
X106447205Y-113921190D01*
X106449998Y-113868617D01*
X106450000Y-113868578D01*
X106450000Y-113150000D01*
X105633012Y-113150000D01*
X105665925Y-113092993D01*
X105700000Y-112965826D01*
X105700000Y-112834174D01*
X105665925Y-112707007D01*
X105633012Y-112650000D01*
X106449999Y-112650000D01*
X106449999Y-111931423D01*
X106449998Y-111931411D01*
X106447205Y-111878808D01*
X106402762Y-111649012D01*
X106320120Y-111430024D01*
X106201660Y-111228158D01*
X106201655Y-111228151D01*
X106050788Y-111049213D01*
X106050786Y-111049211D01*
X105871848Y-110898344D01*
X105871841Y-110898339D01*
X105669975Y-110779879D01*
X105450984Y-110697236D01*
X105445840Y-110696241D01*
X105383760Y-110664180D01*
X105348869Y-110603646D01*
X105352244Y-110533858D01*
X105392814Y-110476973D01*
X105457697Y-110451052D01*
X105469374Y-110450499D01*
X108997872Y-110450499D01*
X109057483Y-110444091D01*
X109192331Y-110393796D01*
X109307546Y-110307546D01*
X109393796Y-110192331D01*
X109444091Y-110057483D01*
X109450500Y-109997873D01*
X109450500Y-109074500D01*
X109470185Y-109007461D01*
X109522989Y-108961706D01*
X109574500Y-108950500D01*
X109850500Y-108950500D01*
X109917539Y-108970185D01*
X109963294Y-109022989D01*
X109974500Y-109074500D01*
X109974500Y-109205855D01*
X109984913Y-109307776D01*
X110039637Y-109472922D01*
X110039642Y-109472933D01*
X110130971Y-109620999D01*
X110130974Y-109621003D01*
X110253996Y-109744025D01*
X110254000Y-109744028D01*
X110402066Y-109835357D01*
X110402069Y-109835358D01*
X110402075Y-109835362D01*
X110567225Y-109890087D01*
X110669152Y-109900500D01*
X110669157Y-109900500D01*
X111255843Y-109900500D01*
X111255848Y-109900500D01*
X111357775Y-109890087D01*
X111522925Y-109835362D01*
X111671003Y-109744026D01*
X111794026Y-109621003D01*
X111794458Y-109620301D01*
X111794881Y-109619921D01*
X111798507Y-109615336D01*
X111799290Y-109615955D01*
X111846402Y-109573575D01*
X111915364Y-109562349D01*
X111979448Y-109590188D01*
X111990960Y-109601118D01*
X111999183Y-109609993D01*
X112005974Y-109621003D01*
X112052359Y-109667388D01*
X112053960Y-109669116D01*
X112068511Y-109698364D01*
X112084166Y-109727033D01*
X112084549Y-109730599D01*
X112085083Y-109731672D01*
X112084871Y-109733594D01*
X112087000Y-109753391D01*
X112087000Y-110612770D01*
X112067315Y-110679809D01*
X112050681Y-110700451D01*
X112000181Y-110750951D01*
X111938858Y-110784436D01*
X111869166Y-110779452D01*
X111824819Y-110750951D01*
X111731157Y-110657289D01*
X111731156Y-110657288D01*
X111581834Y-110565186D01*
X111415297Y-110510001D01*
X111415295Y-110510000D01*
X111312510Y-110499500D01*
X110687498Y-110499500D01*
X110687480Y-110499501D01*
X110584703Y-110510000D01*
X110584700Y-110510001D01*
X110418168Y-110565185D01*
X110418163Y-110565187D01*
X110268842Y-110657289D01*
X110144789Y-110781342D01*
X110052687Y-110930663D01*
X110052685Y-110930668D01*
X110024849Y-111014670D01*
X109997501Y-111097203D01*
X109997501Y-111097204D01*
X109997500Y-111097204D01*
X109987000Y-111199983D01*
X109987000Y-112200001D01*
X109987001Y-112200019D01*
X109997500Y-112302796D01*
X109997501Y-112302799D01*
X110052685Y-112469331D01*
X110052687Y-112469336D01*
X110144789Y-112618657D01*
X110213181Y-112687049D01*
X110246666Y-112748372D01*
X110249500Y-112774730D01*
X110249500Y-113509109D01*
X110229815Y-113576148D01*
X110213181Y-113596790D01*
X110130974Y-113678996D01*
X110130971Y-113679000D01*
X110039642Y-113827066D01*
X110039637Y-113827077D01*
X109984913Y-113992223D01*
X109974500Y-114094144D01*
X109974500Y-115105855D01*
X109984913Y-115207776D01*
X110039637Y-115372922D01*
X110039642Y-115372933D01*
X110130971Y-115520999D01*
X110130974Y-115521003D01*
X110253996Y-115644025D01*
X110254000Y-115644028D01*
X110402066Y-115735357D01*
X110402069Y-115735358D01*
X110402075Y-115735362D01*
X110567225Y-115790087D01*
X110669152Y-115800500D01*
X110669157Y-115800500D01*
X111255843Y-115800500D01*
X111255848Y-115800500D01*
X111357775Y-115790087D01*
X111522925Y-115735362D01*
X111671003Y-115644026D01*
X111794026Y-115521003D01*
X111794755Y-115519821D01*
X111795466Y-115519181D01*
X111798507Y-115515336D01*
X111799163Y-115515855D01*
X111846701Y-115473097D01*
X111915664Y-115461873D01*
X111979746Y-115489715D01*
X112001761Y-115515123D01*
X112001888Y-115515023D01*
X112004113Y-115517838D01*
X112005833Y-115519822D01*
X112006365Y-115520685D01*
X112006369Y-115520690D01*
X112129308Y-115643629D01*
X112277285Y-115734903D01*
X112277290Y-115734905D01*
X112442326Y-115789592D01*
X112544184Y-115799999D01*
X112544197Y-115800000D01*
X112587500Y-115800000D01*
X113087500Y-115800000D01*
X113130803Y-115800000D01*
X113130815Y-115799999D01*
X113232673Y-115789592D01*
X113397709Y-115734905D01*
X113397714Y-115734903D01*
X113545691Y-115643629D01*
X113668629Y-115520691D01*
X113759903Y-115372714D01*
X113759905Y-115372709D01*
X113814592Y-115207673D01*
X113824999Y-115105815D01*
X113825000Y-115105802D01*
X113825000Y-114850000D01*
X113087500Y-114850000D01*
X113087500Y-115800000D01*
X112587500Y-115800000D01*
X112587500Y-114493713D01*
X117009500Y-114493713D01*
X117009500Y-114706286D01*
X117042753Y-114916239D01*
X117108444Y-115118414D01*
X117204951Y-115307820D01*
X117329890Y-115479786D01*
X117480213Y-115630109D01*
X117652179Y-115755048D01*
X117652181Y-115755049D01*
X117652184Y-115755051D01*
X117841588Y-115851557D01*
X118043757Y-115917246D01*
X118253713Y-115950500D01*
X118253714Y-115950500D01*
X118466286Y-115950500D01*
X118466287Y-115950500D01*
X118676243Y-115917246D01*
X118878412Y-115851557D01*
X119067816Y-115755051D01*
X119095548Y-115734903D01*
X119239786Y-115630109D01*
X119239788Y-115630106D01*
X119239792Y-115630104D01*
X119390104Y-115479792D01*
X119390106Y-115479788D01*
X119390109Y-115479786D01*
X119515048Y-115307820D01*
X119515047Y-115307820D01*
X119515051Y-115307816D01*
X119519514Y-115299054D01*
X119567488Y-115248259D01*
X119635308Y-115231463D01*
X119701444Y-115253999D01*
X119740486Y-115299056D01*
X119744951Y-115307820D01*
X119869890Y-115479786D01*
X120020213Y-115630109D01*
X120192179Y-115755048D01*
X120192181Y-115755049D01*
X120192184Y-115755051D01*
X120381588Y-115851557D01*
X120583757Y-115917246D01*
X120793713Y-115950500D01*
X120793714Y-115950500D01*
X121006286Y-115950500D01*
X121006287Y-115950500D01*
X121216243Y-115917246D01*
X121418412Y-115851557D01*
X121607816Y-115755051D01*
X121635548Y-115734903D01*
X121779786Y-115630109D01*
X121779788Y-115630106D01*
X121779792Y-115630104D01*
X121930104Y-115479792D01*
X121930106Y-115479788D01*
X121930109Y-115479786D01*
X122055048Y-115307820D01*
X122055047Y-115307820D01*
X122055051Y-115307816D01*
X122151557Y-115118412D01*
X122217246Y-114916243D01*
X122250500Y-114706287D01*
X122250500Y-114493713D01*
X122217246Y-114283757D01*
X122151557Y-114081588D01*
X122055051Y-113892184D01*
X122055049Y-113892181D01*
X122055048Y-113892179D01*
X121930109Y-113720213D01*
X121816181Y-113606285D01*
X121782696Y-113544962D01*
X121787680Y-113475270D01*
X121829552Y-113419337D01*
X121860529Y-113402422D01*
X121992086Y-113353354D01*
X121992093Y-113353350D01*
X122107187Y-113267190D01*
X122107190Y-113267187D01*
X122193350Y-113152093D01*
X122193354Y-113152086D01*
X122243596Y-113017379D01*
X122243598Y-113017372D01*
X122249999Y-112957844D01*
X122250000Y-112957827D01*
X122250000Y-112310000D01*
X121333012Y-112310000D01*
X121365925Y-112252993D01*
X121400000Y-112125826D01*
X121400000Y-111994174D01*
X121365925Y-111867007D01*
X121333012Y-111810000D01*
X122250000Y-111810000D01*
X122250000Y-111162172D01*
X122249999Y-111162155D01*
X122243598Y-111102627D01*
X122243596Y-111102620D01*
X122193354Y-110967913D01*
X122193350Y-110967906D01*
X122107190Y-110852812D01*
X122107187Y-110852809D01*
X121992093Y-110766649D01*
X121992086Y-110766645D01*
X121857379Y-110716403D01*
X121857372Y-110716401D01*
X121797844Y-110710000D01*
X121150000Y-110710000D01*
X121150000Y-111626988D01*
X121092993Y-111594075D01*
X120965826Y-111560000D01*
X120834174Y-111560000D01*
X120707007Y-111594075D01*
X120650000Y-111626988D01*
X120650000Y-110710000D01*
X120002155Y-110710000D01*
X119942627Y-110716401D01*
X119942620Y-110716403D01*
X119807913Y-110766645D01*
X119807906Y-110766649D01*
X119692812Y-110852809D01*
X119692809Y-110852812D01*
X119606649Y-110967906D01*
X119606645Y-110967913D01*
X119556403Y-111102619D01*
X119556401Y-111102626D01*
X119547497Y-111185444D01*
X119544434Y-111185114D01*
X119545336Y-111202094D01*
X119512356Y-111261195D01*
X118842962Y-111930590D01*
X118825925Y-111867007D01*
X118760099Y-111752993D01*
X118667007Y-111659901D01*
X118552993Y-111594075D01*
X118489409Y-111577037D01*
X119121716Y-110944728D01*
X119067550Y-110905375D01*
X118878217Y-110808904D01*
X118676129Y-110743242D01*
X118466246Y-110710000D01*
X118253754Y-110710000D01*
X118043872Y-110743242D01*
X118043869Y-110743242D01*
X117841782Y-110808904D01*
X117652439Y-110905380D01*
X117598282Y-110944727D01*
X117598282Y-110944728D01*
X118230591Y-111577037D01*
X118167007Y-111594075D01*
X118052993Y-111659901D01*
X117959901Y-111752993D01*
X117894075Y-111867007D01*
X117877037Y-111930591D01*
X117244728Y-111298282D01*
X117244727Y-111298282D01*
X117205380Y-111352439D01*
X117108904Y-111541782D01*
X117043242Y-111743869D01*
X117043242Y-111743872D01*
X117010000Y-111953753D01*
X117010000Y-112166246D01*
X117043242Y-112376127D01*
X117043242Y-112376130D01*
X117108904Y-112578217D01*
X117205375Y-112767550D01*
X117244728Y-112821716D01*
X117877037Y-112189408D01*
X117894075Y-112252993D01*
X117959901Y-112367007D01*
X118052993Y-112460099D01*
X118167007Y-112525925D01*
X118230590Y-112542962D01*
X117598282Y-113175269D01*
X117598282Y-113175270D01*
X117652452Y-113214626D01*
X117652451Y-113214626D01*
X117661495Y-113219234D01*
X117712292Y-113267208D01*
X117729087Y-113335029D01*
X117706550Y-113401164D01*
X117661499Y-113440202D01*
X117652182Y-113444949D01*
X117480213Y-113569890D01*
X117329890Y-113720213D01*
X117204951Y-113892179D01*
X117108444Y-114081585D01*
X117042753Y-114283760D01*
X117009500Y-114493713D01*
X112587500Y-114493713D01*
X112587500Y-114350000D01*
X113087500Y-114350000D01*
X113825000Y-114350000D01*
X113825000Y-114094197D01*
X113824999Y-114094184D01*
X113814592Y-113992326D01*
X113759905Y-113827290D01*
X113759903Y-113827285D01*
X113668629Y-113679308D01*
X113545691Y-113556370D01*
X113397714Y-113465096D01*
X113397709Y-113465094D01*
X113232673Y-113410407D01*
X113130815Y-113400000D01*
X113087500Y-113400000D01*
X113087500Y-114350000D01*
X112587500Y-114350000D01*
X112587500Y-113400000D01*
X112544184Y-113400000D01*
X112442326Y-113410407D01*
X112277290Y-113465094D01*
X112277285Y-113465096D01*
X112129308Y-113556370D01*
X112006369Y-113679309D01*
X112006364Y-113679315D01*
X112005829Y-113680184D01*
X112005306Y-113680654D01*
X112001888Y-113684977D01*
X112001149Y-113684392D01*
X111953879Y-113726906D01*
X111884916Y-113738125D01*
X111820835Y-113710278D01*
X111805009Y-113694434D01*
X111799374Y-113687668D01*
X111794026Y-113678997D01*
X111782825Y-113667796D01*
X111779215Y-113663461D01*
X111767479Y-113636372D01*
X111753334Y-113610467D01*
X111752369Y-113601493D01*
X111751440Y-113599349D01*
X111751861Y-113596774D01*
X111750500Y-113584109D01*
X111750500Y-112774730D01*
X111770185Y-112707691D01*
X111786819Y-112687049D01*
X111824819Y-112649049D01*
X111886142Y-112615564D01*
X111955834Y-112620548D01*
X112000181Y-112649049D01*
X112093844Y-112742712D01*
X112243166Y-112834814D01*
X112409703Y-112889999D01*
X112512491Y-112900500D01*
X113137508Y-112900499D01*
X113137516Y-112900498D01*
X113137519Y-112900498D01*
X113193802Y-112894748D01*
X113240297Y-112889999D01*
X113406834Y-112834814D01*
X113556156Y-112742712D01*
X113680212Y-112618656D01*
X113772314Y-112469334D01*
X113827499Y-112302797D01*
X113838000Y-112200009D01*
X113837999Y-111659901D01*
X113837999Y-111199998D01*
X113837998Y-111199980D01*
X113827499Y-111097203D01*
X113772314Y-110930666D01*
X113680212Y-110781344D01*
X113624319Y-110725451D01*
X113590834Y-110664128D01*
X113588000Y-110637770D01*
X113588000Y-109753391D01*
X113607685Y-109686352D01*
X113624319Y-109665710D01*
X113669026Y-109621003D01*
X113760362Y-109472925D01*
X113815087Y-109307775D01*
X113825500Y-109205848D01*
X113825500Y-108194152D01*
X113815087Y-108092225D01*
X113760362Y-107927075D01*
X113760358Y-107927069D01*
X113760357Y-107927066D01*
X113669028Y-107779000D01*
X113669025Y-107778996D01*
X113624319Y-107734290D01*
X113590834Y-107672967D01*
X113588000Y-107646609D01*
X113588000Y-106799730D01*
X113607685Y-106732691D01*
X113624319Y-106712049D01*
X113645268Y-106691100D01*
X113692712Y-106643656D01*
X113784814Y-106494334D01*
X113839999Y-106327797D01*
X113850500Y-106225009D01*
X113850499Y-105174992D01*
X113839999Y-105072203D01*
X113784814Y-104905666D01*
X113692712Y-104756344D01*
X113636819Y-104700451D01*
X113603334Y-104639128D01*
X113600500Y-104612770D01*
X113600500Y-101824499D01*
X113620185Y-101757460D01*
X113672989Y-101711705D01*
X113724500Y-101700499D01*
X115200002Y-101700499D01*
X115200008Y-101700499D01*
X115302797Y-101689999D01*
X115302800Y-101689997D01*
X115302804Y-101689997D01*
X115336495Y-101678833D01*
X115406323Y-101676430D01*
X115466365Y-101712161D01*
X115497558Y-101774681D01*
X115499500Y-101796538D01*
X115499500Y-109965892D01*
X115509801Y-110004335D01*
X115533608Y-110093187D01*
X115566554Y-110150250D01*
X115599500Y-110207314D01*
X115692686Y-110300500D01*
X115806814Y-110366392D01*
X115934108Y-110400500D01*
X116065892Y-110400500D01*
X122375500Y-110400500D01*
X122442539Y-110420185D01*
X122488294Y-110472989D01*
X122499500Y-110524500D01*
X122499500Y-116275500D01*
X122479815Y-116342539D01*
X122427011Y-116388294D01*
X122375500Y-116399500D01*
X93624500Y-116399500D01*
X93557461Y-116379815D01*
X93511706Y-116327011D01*
X93500500Y-116275500D01*
X93500500Y-107135803D01*
X99200000Y-107135803D01*
X99200000Y-107950000D01*
X100700000Y-107950000D01*
X100700000Y-108450000D01*
X99200001Y-108450000D01*
X99200001Y-109264197D01*
X99210400Y-109396332D01*
X99265377Y-109614519D01*
X99358428Y-109819374D01*
X99358431Y-109819380D01*
X99486559Y-110004323D01*
X99486569Y-110004335D01*
X99645664Y-110163430D01*
X99645676Y-110163440D01*
X99830619Y-110291568D01*
X99830625Y-110291571D01*
X100035480Y-110384622D01*
X100253667Y-110439599D01*
X100385810Y-110449999D01*
X100949999Y-110449999D01*
X100950000Y-110449998D01*
X100950000Y-109633012D01*
X101007007Y-109665925D01*
X101134174Y-109700000D01*
X101265826Y-109700000D01*
X101392993Y-109665925D01*
X101450000Y-109633012D01*
X101450000Y-110449999D01*
X102014182Y-110449999D01*
X102014197Y-110449998D01*
X102146332Y-110439599D01*
X102364519Y-110384622D01*
X102569374Y-110291571D01*
X102569380Y-110291568D01*
X102754323Y-110163440D01*
X102754335Y-110163430D01*
X102913430Y-110004335D01*
X102913440Y-110004323D01*
X103041568Y-109819380D01*
X103041571Y-109819374D01*
X103134622Y-109614519D01*
X103189599Y-109396332D01*
X103199999Y-109264196D01*
X103200000Y-109264184D01*
X103200000Y-108450000D01*
X101700000Y-108450000D01*
X101700000Y-107950000D01*
X103199999Y-107950000D01*
X103199999Y-107135817D01*
X103199998Y-107135802D01*
X103189599Y-107003667D01*
X103134622Y-106785480D01*
X103041571Y-106580625D01*
X103041568Y-106580619D01*
X102913440Y-106395676D01*
X102913430Y-106395664D01*
X102754335Y-106236569D01*
X102754323Y-106236559D01*
X102569380Y-106108431D01*
X102569374Y-106108428D01*
X102364519Y-106015377D01*
X102146332Y-105960400D01*
X102014196Y-105950000D01*
X101450000Y-105950000D01*
X101450000Y-106766988D01*
X101392993Y-106734075D01*
X101265826Y-106700000D01*
X101134174Y-106700000D01*
X101007007Y-106734075D01*
X100950000Y-106766988D01*
X100950000Y-105950000D01*
X100385817Y-105950000D01*
X100385802Y-105950001D01*
X100253667Y-105960400D01*
X100035480Y-106015377D01*
X99830625Y-106108428D01*
X99830619Y-106108431D01*
X99645676Y-106236559D01*
X99645664Y-106236569D01*
X99486569Y-106395664D01*
X99486559Y-106395676D01*
X99358431Y-106580619D01*
X99358428Y-106580625D01*
X99265377Y-106785480D01*
X99210400Y-107003667D01*
X99200000Y-107135803D01*
X93500500Y-107135803D01*
X93500500Y-105175013D01*
X109950000Y-105175013D01*
X109950000Y-105450000D01*
X110700000Y-105450000D01*
X110700000Y-104475000D01*
X110699999Y-104474999D01*
X110650029Y-104475000D01*
X110650011Y-104475001D01*
X110547302Y-104485494D01*
X110380880Y-104540641D01*
X110380875Y-104540643D01*
X110231654Y-104632684D01*
X110107684Y-104756654D01*
X110015643Y-104905875D01*
X110015641Y-104905880D01*
X109960494Y-105072302D01*
X109960493Y-105072309D01*
X109950000Y-105175013D01*
X93500500Y-105175013D01*
X93500500Y-100999986D01*
X107500001Y-100999986D01*
X107510494Y-101102697D01*
X107565641Y-101269119D01*
X107565643Y-101269124D01*
X107657684Y-101418345D01*
X107781654Y-101542315D01*
X107930875Y-101634356D01*
X107930880Y-101634358D01*
X108097302Y-101689505D01*
X108097309Y-101689506D01*
X108200019Y-101699999D01*
X109249999Y-101699999D01*
X109750000Y-101699999D01*
X110799972Y-101699999D01*
X110799986Y-101699998D01*
X110902697Y-101689505D01*
X111069119Y-101634358D01*
X111069124Y-101634356D01*
X111218345Y-101542315D01*
X111342315Y-101418345D01*
X111434356Y-101269124D01*
X111434358Y-101269119D01*
X111489505Y-101102697D01*
X111489506Y-101102690D01*
X111499999Y-100999986D01*
X111500000Y-100999973D01*
X111500000Y-100650000D01*
X109750000Y-100650000D01*
X109750000Y-101699999D01*
X109249999Y-101699999D01*
X109250000Y-101699998D01*
X109250000Y-100650000D01*
X107500001Y-100650000D01*
X107500001Y-100999986D01*
X93500500Y-100999986D01*
X93500500Y-99599986D01*
X101200001Y-99599986D01*
X101210494Y-99702697D01*
X101265641Y-99869119D01*
X101265642Y-99869121D01*
X101357684Y-100018345D01*
X101481654Y-100142315D01*
X101630875Y-100234356D01*
X101630880Y-100234358D01*
X101797302Y-100289505D01*
X101797309Y-100289506D01*
X101900019Y-100299999D01*
X102249999Y-100299999D01*
X102750000Y-100299999D01*
X103099972Y-100299999D01*
X103099986Y-100299998D01*
X103202697Y-100289505D01*
X103369119Y-100234358D01*
X103369124Y-100234356D01*
X103518345Y-100142315D01*
X103642315Y-100018345D01*
X103734358Y-99869121D01*
X103734358Y-99869119D01*
X103757258Y-99800013D01*
X107500000Y-99800013D01*
X107500000Y-100150000D01*
X109250000Y-100150000D01*
X109750000Y-100150000D01*
X111499999Y-100150000D01*
X111499999Y-99800028D01*
X111499998Y-99800013D01*
X111489505Y-99697302D01*
X111434358Y-99530880D01*
X111434356Y-99530875D01*
X111342315Y-99381654D01*
X111218345Y-99257684D01*
X111069124Y-99165643D01*
X111069119Y-99165641D01*
X110902697Y-99110494D01*
X110902690Y-99110493D01*
X110799986Y-99100000D01*
X109750000Y-99100000D01*
X109750000Y-100150000D01*
X109250000Y-100150000D01*
X109250000Y-99100000D01*
X108200028Y-99100000D01*
X108200012Y-99100001D01*
X108097302Y-99110494D01*
X107930880Y-99165641D01*
X107930875Y-99165643D01*
X107781654Y-99257684D01*
X107657684Y-99381654D01*
X107565643Y-99530875D01*
X107565641Y-99530880D01*
X107510494Y-99697302D01*
X107510493Y-99697309D01*
X107500000Y-99800013D01*
X103757258Y-99800013D01*
X103771226Y-99757860D01*
X103789505Y-99702697D01*
X103789506Y-99702690D01*
X103799999Y-99599986D01*
X103800000Y-99599973D01*
X103800000Y-98550000D01*
X102750000Y-98550000D01*
X102750000Y-100299999D01*
X102249999Y-100299999D01*
X102250000Y-100299998D01*
X102250000Y-98550000D01*
X101200001Y-98550000D01*
X101200001Y-99599986D01*
X93500500Y-99599986D01*
X93500500Y-97199986D01*
X96575001Y-97199986D01*
X96585494Y-97302697D01*
X96640641Y-97469119D01*
X96640643Y-97469124D01*
X96732684Y-97618345D01*
X96856654Y-97742315D01*
X97005875Y-97834356D01*
X97005880Y-97834358D01*
X97172302Y-97889505D01*
X97172309Y-97889506D01*
X97275019Y-97899999D01*
X97549999Y-97899999D01*
X98050000Y-97899999D01*
X98324972Y-97899999D01*
X98324986Y-97899998D01*
X98427697Y-97889505D01*
X98594119Y-97834358D01*
X98594124Y-97834356D01*
X98743345Y-97742315D01*
X98867315Y-97618345D01*
X98959356Y-97469124D01*
X98959358Y-97469119D01*
X99014505Y-97302697D01*
X99014506Y-97302690D01*
X99024999Y-97199986D01*
X99025000Y-97199973D01*
X99025000Y-97150000D01*
X98050000Y-97150000D01*
X98050000Y-97899999D01*
X97549999Y-97899999D01*
X97550000Y-97899998D01*
X97550000Y-97150000D01*
X96575001Y-97150000D01*
X96575001Y-97199986D01*
X93500500Y-97199986D01*
X93500500Y-97000013D01*
X101200000Y-97000013D01*
X101200000Y-98050000D01*
X102250000Y-98050000D01*
X102750000Y-98050000D01*
X103799999Y-98050000D01*
X103799999Y-97000028D01*
X103799998Y-97000013D01*
X103789505Y-96897302D01*
X103734358Y-96730880D01*
X103734356Y-96730875D01*
X103642315Y-96581654D01*
X103518345Y-96457684D01*
X103369124Y-96365643D01*
X103369119Y-96365641D01*
X103202697Y-96310494D01*
X103202690Y-96310493D01*
X103099986Y-96300000D01*
X102750000Y-96300000D01*
X102750000Y-98050000D01*
X102250000Y-98050000D01*
X102250000Y-96300000D01*
X101900028Y-96300000D01*
X101900012Y-96300001D01*
X101797302Y-96310494D01*
X101630880Y-96365641D01*
X101630875Y-96365643D01*
X101481654Y-96457684D01*
X101357684Y-96581654D01*
X101265643Y-96730875D01*
X101265641Y-96730880D01*
X101210494Y-96897302D01*
X101210493Y-96897309D01*
X101200000Y-97000013D01*
X93500500Y-97000013D01*
X93500500Y-82399986D01*
X100800001Y-82399986D01*
X100810494Y-82502697D01*
X100865641Y-82669119D01*
X100865643Y-82669124D01*
X100957684Y-82818345D01*
X101081654Y-82942315D01*
X101230875Y-83034356D01*
X101230880Y-83034358D01*
X101397302Y-83089505D01*
X101397309Y-83089506D01*
X101500019Y-83099999D01*
X101849999Y-83099999D01*
X102350000Y-83099999D01*
X102699972Y-83099999D01*
X102699986Y-83099998D01*
X102802697Y-83089505D01*
X102969119Y-83034358D01*
X102969124Y-83034356D01*
X103118345Y-82942315D01*
X103242315Y-82818345D01*
X103334356Y-82669124D01*
X103334358Y-82669119D01*
X103389505Y-82502697D01*
X103389506Y-82502690D01*
X103399999Y-82399986D01*
X103400000Y-82399973D01*
X103400000Y-81350000D01*
X102350000Y-81350000D01*
X102350000Y-83099999D01*
X101849999Y-83099999D01*
X101850000Y-83099998D01*
X101850000Y-81350000D01*
X100800001Y-81350000D01*
X100800001Y-82399986D01*
X93500500Y-82399986D01*
X93500500Y-79949986D01*
X96275001Y-79949986D01*
X96285494Y-80052697D01*
X96340641Y-80219119D01*
X96340643Y-80219124D01*
X96432684Y-80368345D01*
X96556654Y-80492315D01*
X96705875Y-80584356D01*
X96705880Y-80584358D01*
X96872302Y-80639505D01*
X96872309Y-80639506D01*
X96975019Y-80649999D01*
X97249999Y-80649999D01*
X97750000Y-80649999D01*
X98024972Y-80649999D01*
X98024986Y-80649998D01*
X98127697Y-80639505D01*
X98294119Y-80584358D01*
X98294124Y-80584356D01*
X98443345Y-80492315D01*
X98567315Y-80368345D01*
X98659356Y-80219124D01*
X98659358Y-80219119D01*
X98714505Y-80052697D01*
X98714506Y-80052690D01*
X98724999Y-79949986D01*
X98725000Y-79949973D01*
X98725000Y-79900000D01*
X97750000Y-79900000D01*
X97750000Y-80649999D01*
X97249999Y-80649999D01*
X97250000Y-80649998D01*
X97250000Y-79900000D01*
X96275001Y-79900000D01*
X96275001Y-79949986D01*
X93500500Y-79949986D01*
X93500500Y-79800013D01*
X100800000Y-79800013D01*
X100800000Y-80850000D01*
X101850000Y-80850000D01*
X102350000Y-80850000D01*
X103399999Y-80850000D01*
X103399999Y-79800028D01*
X103399998Y-79800013D01*
X103389505Y-79697302D01*
X103334358Y-79530880D01*
X103334356Y-79530875D01*
X103242315Y-79381654D01*
X103118345Y-79257684D01*
X102969124Y-79165643D01*
X102969119Y-79165641D01*
X102802697Y-79110494D01*
X102802690Y-79110493D01*
X102699986Y-79100000D01*
X102350000Y-79100000D01*
X102350000Y-80850000D01*
X101850000Y-80850000D01*
X101850000Y-79100000D01*
X101500028Y-79100000D01*
X101500012Y-79100001D01*
X101397302Y-79110494D01*
X101230880Y-79165641D01*
X101230875Y-79165643D01*
X101081654Y-79257684D01*
X100957684Y-79381654D01*
X100865643Y-79530875D01*
X100865641Y-79530880D01*
X100810494Y-79697302D01*
X100810493Y-79697309D01*
X100800000Y-79800013D01*
X93500500Y-79800013D01*
X93500500Y-71605815D01*
X95562500Y-71605815D01*
X95572907Y-71707673D01*
X95627594Y-71872709D01*
X95627596Y-71872714D01*
X95718870Y-72020691D01*
X95841808Y-72143629D01*
X95989785Y-72234903D01*
X95989790Y-72234905D01*
X96154826Y-72289592D01*
X96256684Y-72299999D01*
X96256697Y-72300000D01*
X96300000Y-72300000D01*
X96300000Y-71350000D01*
X95562500Y-71350000D01*
X95562500Y-71605815D01*
X93500500Y-71605815D01*
X93500500Y-70594184D01*
X95562500Y-70594184D01*
X95562500Y-70850000D01*
X96300000Y-70850000D01*
X96300000Y-69900000D01*
X96256684Y-69900000D01*
X96154826Y-69910407D01*
X95989790Y-69965094D01*
X95989785Y-69965096D01*
X95841808Y-70056370D01*
X95718870Y-70179308D01*
X95627596Y-70327285D01*
X95627594Y-70327290D01*
X95572907Y-70492326D01*
X95562500Y-70594184D01*
X93500500Y-70594184D01*
X93500500Y-69633713D01*
X117009500Y-69633713D01*
X117009500Y-69846286D01*
X117028317Y-69965096D01*
X117042754Y-70056243D01*
X117084582Y-70184977D01*
X117108444Y-70258414D01*
X117204951Y-70447820D01*
X117329890Y-70619786D01*
X117480213Y-70770109D01*
X117652179Y-70895048D01*
X117652181Y-70895049D01*
X117652184Y-70895051D01*
X117841588Y-70991557D01*
X118043757Y-71057246D01*
X118253713Y-71090500D01*
X118253714Y-71090500D01*
X118466286Y-71090500D01*
X118466287Y-71090500D01*
X118676243Y-71057246D01*
X118878412Y-70991557D01*
X119067816Y-70895051D01*
X119129824Y-70850000D01*
X119239786Y-70770109D01*
X119239788Y-70770106D01*
X119239792Y-70770104D01*
X119390104Y-70619792D01*
X119408729Y-70594157D01*
X119446903Y-70541615D01*
X119451234Y-70538274D01*
X119453508Y-70533297D01*
X119478610Y-70517164D01*
X119502233Y-70498949D01*
X119508904Y-70497696D01*
X119512286Y-70495523D01*
X119547221Y-70490500D01*
X119712779Y-70490500D01*
X119779818Y-70510185D01*
X119813097Y-70541615D01*
X119869892Y-70619788D01*
X120020213Y-70770109D01*
X120192179Y-70895048D01*
X120192181Y-70895049D01*
X120192184Y-70895051D01*
X120381588Y-70991557D01*
X120583757Y-71057246D01*
X120793713Y-71090500D01*
X120793714Y-71090500D01*
X121006286Y-71090500D01*
X121006287Y-71090500D01*
X121216243Y-71057246D01*
X121418412Y-70991557D01*
X121607816Y-70895051D01*
X121669824Y-70850000D01*
X121779786Y-70770109D01*
X121779788Y-70770106D01*
X121779792Y-70770104D01*
X121930104Y-70619792D01*
X121930106Y-70619788D01*
X121930109Y-70619786D01*
X122055048Y-70447820D01*
X122055047Y-70447820D01*
X122055051Y-70447816D01*
X122151557Y-70258412D01*
X122217246Y-70056243D01*
X122250500Y-69846287D01*
X122250500Y-69633713D01*
X122217246Y-69423757D01*
X122151557Y-69221588D01*
X122055051Y-69032184D01*
X122055049Y-69032181D01*
X122055048Y-69032179D01*
X121930109Y-68860213D01*
X121816181Y-68746285D01*
X121782696Y-68684962D01*
X121787680Y-68615270D01*
X121829552Y-68559337D01*
X121860529Y-68542422D01*
X121992086Y-68493354D01*
X121992093Y-68493350D01*
X122107187Y-68407190D01*
X122107190Y-68407187D01*
X122193350Y-68292093D01*
X122193354Y-68292086D01*
X122243596Y-68157379D01*
X122243598Y-68157372D01*
X122249999Y-68097844D01*
X122250000Y-68097827D01*
X122250000Y-67450000D01*
X121333012Y-67450000D01*
X121365925Y-67392993D01*
X121400000Y-67265826D01*
X121400000Y-67134174D01*
X121365925Y-67007007D01*
X121333012Y-66950000D01*
X122250000Y-66950000D01*
X122250000Y-66302172D01*
X122249999Y-66302155D01*
X122243598Y-66242627D01*
X122243596Y-66242620D01*
X122193354Y-66107913D01*
X122193350Y-66107906D01*
X122107190Y-65992812D01*
X122107187Y-65992809D01*
X121992093Y-65906649D01*
X121992086Y-65906645D01*
X121857379Y-65856403D01*
X121857372Y-65856401D01*
X121797844Y-65850000D01*
X121150000Y-65850000D01*
X121150000Y-66766988D01*
X121092993Y-66734075D01*
X120965826Y-66700000D01*
X120834174Y-66700000D01*
X120707007Y-66734075D01*
X120650000Y-66766988D01*
X120650000Y-65850000D01*
X120002155Y-65850000D01*
X119942627Y-65856401D01*
X119942620Y-65856403D01*
X119807913Y-65906645D01*
X119807906Y-65906649D01*
X119692812Y-65992809D01*
X119692809Y-65992812D01*
X119606649Y-66107906D01*
X119606645Y-66107913D01*
X119556403Y-66242619D01*
X119556401Y-66242626D01*
X119547497Y-66325444D01*
X119544434Y-66325114D01*
X119545336Y-66342094D01*
X119512356Y-66401195D01*
X118842962Y-67070590D01*
X118825925Y-67007007D01*
X118760099Y-66892993D01*
X118667007Y-66799901D01*
X118552993Y-66734075D01*
X118489409Y-66717037D01*
X119121716Y-66084728D01*
X119067550Y-66045375D01*
X118878217Y-65948904D01*
X118676129Y-65883242D01*
X118466246Y-65850000D01*
X118253754Y-65850000D01*
X118043872Y-65883242D01*
X118043869Y-65883242D01*
X117841782Y-65948904D01*
X117652439Y-66045380D01*
X117598282Y-66084727D01*
X117598282Y-66084728D01*
X118230591Y-66717037D01*
X118167007Y-66734075D01*
X118052993Y-66799901D01*
X117959901Y-66892993D01*
X117894075Y-67007007D01*
X117877037Y-67070591D01*
X117244728Y-66438282D01*
X117244727Y-66438282D01*
X117205380Y-66492439D01*
X117108904Y-66681782D01*
X117043242Y-66883869D01*
X117043242Y-66883872D01*
X117010000Y-67093753D01*
X117010000Y-67306246D01*
X117043242Y-67516127D01*
X117043242Y-67516130D01*
X117108904Y-67718217D01*
X117205375Y-67907550D01*
X117244728Y-67961716D01*
X117877037Y-67329408D01*
X117894075Y-67392993D01*
X117959901Y-67507007D01*
X118052993Y-67600099D01*
X118167007Y-67665925D01*
X118230590Y-67682962D01*
X117598282Y-68315269D01*
X117598282Y-68315270D01*
X117652452Y-68354626D01*
X117652451Y-68354626D01*
X117661495Y-68359234D01*
X117712292Y-68407208D01*
X117729087Y-68475029D01*
X117706550Y-68541164D01*
X117661499Y-68580202D01*
X117652182Y-68584949D01*
X117480213Y-68709890D01*
X117329890Y-68860213D01*
X117204951Y-69032179D01*
X117108444Y-69221585D01*
X117042753Y-69423760D01*
X117009500Y-69633713D01*
X93500500Y-69633713D01*
X93500500Y-65524500D01*
X93520185Y-65457461D01*
X93572989Y-65411706D01*
X93624500Y-65400500D01*
X122375500Y-65400500D01*
X122442539Y-65420185D01*
G37*
%TD.AperFunction*%
%TA.AperFunction,Conductor*%
G36*
X111472295Y-77154974D02*
G01*
X111488168Y-77154466D01*
X111505132Y-77164616D01*
X111524097Y-77170185D01*
X111535228Y-77182623D01*
X111548125Y-77190340D01*
X111568146Y-77219406D01*
X111582969Y-77249295D01*
X111702277Y-77397721D01*
X111702278Y-77397722D01*
X111771884Y-77453673D01*
X111811803Y-77511016D01*
X111814383Y-77580838D01*
X111778804Y-77640971D01*
X111771885Y-77646967D01*
X111702631Y-77702635D01*
X111583392Y-77850974D01*
X111583390Y-77850977D01*
X111498831Y-78021476D01*
X111452897Y-78206175D01*
X111450000Y-78248903D01*
X111450000Y-78450000D01*
X112826000Y-78450000D01*
X112893039Y-78469685D01*
X112938794Y-78522489D01*
X112950000Y-78574000D01*
X112950000Y-78700000D01*
X113076000Y-78700000D01*
X113143039Y-78719685D01*
X113188794Y-78772489D01*
X113200000Y-78824000D01*
X113200000Y-79950000D01*
X113651097Y-79950000D01*
X113693824Y-79947102D01*
X113878523Y-79901168D01*
X114049022Y-79816609D01*
X114054686Y-79812989D01*
X114055574Y-79814378D01*
X114112397Y-79790923D01*
X114181141Y-79803413D01*
X114232220Y-79851087D01*
X114249500Y-79914229D01*
X114249500Y-83437770D01*
X114240855Y-83467207D01*
X114234332Y-83497198D01*
X114230577Y-83502213D01*
X114229815Y-83504809D01*
X114213180Y-83525452D01*
X114154091Y-83584540D01*
X114092768Y-83618024D01*
X114023076Y-83613039D01*
X113967143Y-83571168D01*
X113966148Y-83569820D01*
X113930104Y-83520208D01*
X113779792Y-83369896D01*
X113779786Y-83369890D01*
X113607820Y-83244951D01*
X113418414Y-83148444D01*
X113418413Y-83148443D01*
X113418412Y-83148443D01*
X113216243Y-83082754D01*
X113216241Y-83082753D01*
X113216240Y-83082753D01*
X113054957Y-83057208D01*
X113006287Y-83049500D01*
X112793713Y-83049500D01*
X112745042Y-83057208D01*
X112583760Y-83082753D01*
X112381585Y-83148444D01*
X112192179Y-83244951D01*
X112020213Y-83369890D01*
X111869890Y-83520213D01*
X111744949Y-83692182D01*
X111740484Y-83700946D01*
X111692509Y-83751742D01*
X111624688Y-83768536D01*
X111558553Y-83745998D01*
X111519516Y-83700946D01*
X111515050Y-83692182D01*
X111390109Y-83520213D01*
X111239786Y-83369890D01*
X111067820Y-83244951D01*
X110878414Y-83148444D01*
X110878413Y-83148443D01*
X110878412Y-83148443D01*
X110676243Y-83082754D01*
X110676241Y-83082753D01*
X110676240Y-83082753D01*
X110514957Y-83057208D01*
X110466287Y-83049500D01*
X110253713Y-83049500D01*
X110205042Y-83057208D01*
X110043760Y-83082753D01*
X109841585Y-83148444D01*
X109652179Y-83244951D01*
X109480215Y-83369889D01*
X109366673Y-83483431D01*
X109305350Y-83516915D01*
X109235658Y-83511931D01*
X109179725Y-83470059D01*
X109162810Y-83439082D01*
X109113797Y-83307671D01*
X109113793Y-83307664D01*
X109027547Y-83192455D01*
X109027544Y-83192452D01*
X108912335Y-83106206D01*
X108912328Y-83106202D01*
X108777482Y-83055908D01*
X108777483Y-83055908D01*
X108717883Y-83049501D01*
X108717881Y-83049500D01*
X108717873Y-83049500D01*
X108717865Y-83049500D01*
X107582230Y-83049500D01*
X107552789Y-83040855D01*
X107522803Y-83034332D01*
X107517787Y-83030577D01*
X107515191Y-83029815D01*
X107494549Y-83013181D01*
X107436819Y-82955451D01*
X107403334Y-82894128D01*
X107400500Y-82867770D01*
X107400500Y-79151096D01*
X111450000Y-79151096D01*
X111452897Y-79193824D01*
X111498831Y-79378523D01*
X111583390Y-79549022D01*
X111583392Y-79549025D01*
X111702632Y-79697366D01*
X111702633Y-79697367D01*
X111850974Y-79816607D01*
X111850977Y-79816609D01*
X112021476Y-79901168D01*
X112206175Y-79947102D01*
X112248903Y-79950000D01*
X112700000Y-79950000D01*
X112700000Y-78950000D01*
X111450000Y-78950000D01*
X111450000Y-79151096D01*
X107400500Y-79151096D01*
X107400500Y-78862469D01*
X107420185Y-78795430D01*
X107472989Y-78749675D01*
X107490373Y-78743258D01*
X107523049Y-78733909D01*
X107703407Y-78639698D01*
X107861109Y-78511109D01*
X107989698Y-78353407D01*
X108083909Y-78173049D01*
X108139886Y-77977418D01*
X108150500Y-77858037D01*
X108150500Y-77274500D01*
X108170185Y-77207461D01*
X108222989Y-77161706D01*
X108274500Y-77150500D01*
X111457058Y-77150500D01*
X111472295Y-77154974D01*
G37*
%TD.AperFunction*%
%TD*%
M02*
