%TF.GenerationSoftware,KiCad,Pcbnew,9.0.5*%
%TF.CreationDate,2025-10-31T15:32:29+05:30*%
%TF.ProjectId,Breadboard-PCB,42726561-6462-46f6-9172-642d5043422e,rev?*%
%TF.SameCoordinates,Original*%
%TF.FileFunction,Legend,Top*%
%TF.FilePolarity,Positive*%
%FSLAX46Y46*%
G04 Gerber Fmt 4.6, Leading zero omitted, Abs format (unit mm)*
G04 Created by KiCad (PCBNEW 9.0.5) date 2025-10-31 15:32:29*
%MOMM*%
%LPD*%
G01*
G04 APERTURE LIST*
%ADD10C,0.150000*%
%ADD11C,0.010000*%
%ADD12C,0.120000*%
G04 APERTURE END LIST*
D10*
X95071429Y-115854819D02*
X95071429Y-114854819D01*
X95071429Y-114854819D02*
X95309524Y-114854819D01*
X95309524Y-114854819D02*
X95452381Y-114902438D01*
X95452381Y-114902438D02*
X95547619Y-114997676D01*
X95547619Y-114997676D02*
X95595238Y-115092914D01*
X95595238Y-115092914D02*
X95642857Y-115283390D01*
X95642857Y-115283390D02*
X95642857Y-115426247D01*
X95642857Y-115426247D02*
X95595238Y-115616723D01*
X95595238Y-115616723D02*
X95547619Y-115711961D01*
X95547619Y-115711961D02*
X95452381Y-115807200D01*
X95452381Y-115807200D02*
X95309524Y-115854819D01*
X95309524Y-115854819D02*
X95071429Y-115854819D01*
X96642857Y-115759580D02*
X96595238Y-115807200D01*
X96595238Y-115807200D02*
X96452381Y-115854819D01*
X96452381Y-115854819D02*
X96357143Y-115854819D01*
X96357143Y-115854819D02*
X96214286Y-115807200D01*
X96214286Y-115807200D02*
X96119048Y-115711961D01*
X96119048Y-115711961D02*
X96071429Y-115616723D01*
X96071429Y-115616723D02*
X96023810Y-115426247D01*
X96023810Y-115426247D02*
X96023810Y-115283390D01*
X96023810Y-115283390D02*
X96071429Y-115092914D01*
X96071429Y-115092914D02*
X96119048Y-114997676D01*
X96119048Y-114997676D02*
X96214286Y-114902438D01*
X96214286Y-114902438D02*
X96357143Y-114854819D01*
X96357143Y-114854819D02*
X96452381Y-114854819D01*
X96452381Y-114854819D02*
X96595238Y-114902438D01*
X96595238Y-114902438D02*
X96642857Y-114950057D01*
X97071429Y-115473866D02*
X97833334Y-115473866D01*
X98309524Y-115854819D02*
X98309524Y-114854819D01*
X98309524Y-114854819D02*
X98690476Y-114854819D01*
X98690476Y-114854819D02*
X98785714Y-114902438D01*
X98785714Y-114902438D02*
X98833333Y-114950057D01*
X98833333Y-114950057D02*
X98880952Y-115045295D01*
X98880952Y-115045295D02*
X98880952Y-115188152D01*
X98880952Y-115188152D02*
X98833333Y-115283390D01*
X98833333Y-115283390D02*
X98785714Y-115331009D01*
X98785714Y-115331009D02*
X98690476Y-115378628D01*
X98690476Y-115378628D02*
X98309524Y-115378628D01*
X99500000Y-114854819D02*
X99690476Y-114854819D01*
X99690476Y-114854819D02*
X99785714Y-114902438D01*
X99785714Y-114902438D02*
X99880952Y-114997676D01*
X99880952Y-114997676D02*
X99928571Y-115188152D01*
X99928571Y-115188152D02*
X99928571Y-115521485D01*
X99928571Y-115521485D02*
X99880952Y-115711961D01*
X99880952Y-115711961D02*
X99785714Y-115807200D01*
X99785714Y-115807200D02*
X99690476Y-115854819D01*
X99690476Y-115854819D02*
X99500000Y-115854819D01*
X99500000Y-115854819D02*
X99404762Y-115807200D01*
X99404762Y-115807200D02*
X99309524Y-115711961D01*
X99309524Y-115711961D02*
X99261905Y-115521485D01*
X99261905Y-115521485D02*
X99261905Y-115188152D01*
X99261905Y-115188152D02*
X99309524Y-114997676D01*
X99309524Y-114997676D02*
X99404762Y-114902438D01*
X99404762Y-114902438D02*
X99500000Y-114854819D01*
X100261905Y-114854819D02*
X100500000Y-115854819D01*
X100500000Y-115854819D02*
X100690476Y-115140533D01*
X100690476Y-115140533D02*
X100880952Y-115854819D01*
X100880952Y-115854819D02*
X101119048Y-114854819D01*
X101500000Y-115331009D02*
X101833333Y-115331009D01*
X101976190Y-115854819D02*
X101500000Y-115854819D01*
X101500000Y-115854819D02*
X101500000Y-114854819D01*
X101500000Y-114854819D02*
X101976190Y-114854819D01*
X102976190Y-115854819D02*
X102642857Y-115378628D01*
X102404762Y-115854819D02*
X102404762Y-114854819D01*
X102404762Y-114854819D02*
X102785714Y-114854819D01*
X102785714Y-114854819D02*
X102880952Y-114902438D01*
X102880952Y-114902438D02*
X102928571Y-114950057D01*
X102928571Y-114950057D02*
X102976190Y-115045295D01*
X102976190Y-115045295D02*
X102976190Y-115188152D01*
X102976190Y-115188152D02*
X102928571Y-115283390D01*
X102928571Y-115283390D02*
X102880952Y-115331009D01*
X102880952Y-115331009D02*
X102785714Y-115378628D01*
X102785714Y-115378628D02*
X102404762Y-115378628D01*
X114166666Y-108631009D02*
X113833333Y-108631009D01*
X113833333Y-109154819D02*
X113833333Y-108154819D01*
X113833333Y-108154819D02*
X114309523Y-108154819D01*
X115214285Y-109154819D02*
X114642857Y-109154819D01*
X114928571Y-109154819D02*
X114928571Y-108154819D01*
X114928571Y-108154819D02*
X114833333Y-108297676D01*
X114833333Y-108297676D02*
X114738095Y-108392914D01*
X114738095Y-108392914D02*
X114642857Y-108440533D01*
X109233333Y-112354819D02*
X108900000Y-111878628D01*
X108661905Y-112354819D02*
X108661905Y-111354819D01*
X108661905Y-111354819D02*
X109042857Y-111354819D01*
X109042857Y-111354819D02*
X109138095Y-111402438D01*
X109138095Y-111402438D02*
X109185714Y-111450057D01*
X109185714Y-111450057D02*
X109233333Y-111545295D01*
X109233333Y-111545295D02*
X109233333Y-111688152D01*
X109233333Y-111688152D02*
X109185714Y-111783390D01*
X109185714Y-111783390D02*
X109138095Y-111831009D01*
X109138095Y-111831009D02*
X109042857Y-111878628D01*
X109042857Y-111878628D02*
X108661905Y-111878628D01*
X110185714Y-112354819D02*
X109614286Y-112354819D01*
X109900000Y-112354819D02*
X109900000Y-111354819D01*
X109900000Y-111354819D02*
X109804762Y-111497676D01*
X109804762Y-111497676D02*
X109709524Y-111592914D01*
X109709524Y-111592914D02*
X109614286Y-111640533D01*
X108352381Y-116704819D02*
X108352381Y-115704819D01*
X108352381Y-115704819D02*
X108733333Y-115704819D01*
X108733333Y-115704819D02*
X108828571Y-115752438D01*
X108828571Y-115752438D02*
X108876190Y-115800057D01*
X108876190Y-115800057D02*
X108923809Y-115895295D01*
X108923809Y-115895295D02*
X108923809Y-116038152D01*
X108923809Y-116038152D02*
X108876190Y-116133390D01*
X108876190Y-116133390D02*
X108828571Y-116181009D01*
X108828571Y-116181009D02*
X108733333Y-116228628D01*
X108733333Y-116228628D02*
X108352381Y-116228628D01*
X109257143Y-115704819D02*
X109495238Y-116704819D01*
X109495238Y-116704819D02*
X109685714Y-115990533D01*
X109685714Y-115990533D02*
X109876190Y-116704819D01*
X109876190Y-116704819D02*
X110114286Y-115704819D01*
X111066666Y-116704819D02*
X110733333Y-116228628D01*
X110495238Y-116704819D02*
X110495238Y-115704819D01*
X110495238Y-115704819D02*
X110876190Y-115704819D01*
X110876190Y-115704819D02*
X110971428Y-115752438D01*
X110971428Y-115752438D02*
X111019047Y-115800057D01*
X111019047Y-115800057D02*
X111066666Y-115895295D01*
X111066666Y-115895295D02*
X111066666Y-116038152D01*
X111066666Y-116038152D02*
X111019047Y-116133390D01*
X111019047Y-116133390D02*
X110971428Y-116181009D01*
X110971428Y-116181009D02*
X110876190Y-116228628D01*
X110876190Y-116228628D02*
X110495238Y-116228628D01*
X111257143Y-116800057D02*
X112019047Y-116800057D01*
X112733333Y-116704819D02*
X112257143Y-116704819D01*
X112257143Y-116704819D02*
X112257143Y-115704819D01*
X113066667Y-116181009D02*
X113400000Y-116181009D01*
X113542857Y-116704819D02*
X113066667Y-116704819D01*
X113066667Y-116704819D02*
X113066667Y-115704819D01*
X113066667Y-115704819D02*
X113542857Y-115704819D01*
X113971429Y-116704819D02*
X113971429Y-115704819D01*
X113971429Y-115704819D02*
X114209524Y-115704819D01*
X114209524Y-115704819D02*
X114352381Y-115752438D01*
X114352381Y-115752438D02*
X114447619Y-115847676D01*
X114447619Y-115847676D02*
X114495238Y-115942914D01*
X114495238Y-115942914D02*
X114542857Y-116133390D01*
X114542857Y-116133390D02*
X114542857Y-116276247D01*
X114542857Y-116276247D02*
X114495238Y-116466723D01*
X114495238Y-116466723D02*
X114447619Y-116561961D01*
X114447619Y-116561961D02*
X114352381Y-116657200D01*
X114352381Y-116657200D02*
X114209524Y-116704819D01*
X114209524Y-116704819D02*
X113971429Y-116704819D01*
X115495238Y-116704819D02*
X114923810Y-116704819D01*
X115209524Y-116704819D02*
X115209524Y-115704819D01*
X115209524Y-115704819D02*
X115114286Y-115847676D01*
X115114286Y-115847676D02*
X115019048Y-115942914D01*
X115019048Y-115942914D02*
X114923810Y-115990533D01*
X106433333Y-100759580D02*
X106385714Y-100807200D01*
X106385714Y-100807200D02*
X106242857Y-100854819D01*
X106242857Y-100854819D02*
X106147619Y-100854819D01*
X106147619Y-100854819D02*
X106004762Y-100807200D01*
X106004762Y-100807200D02*
X105909524Y-100711961D01*
X105909524Y-100711961D02*
X105861905Y-100616723D01*
X105861905Y-100616723D02*
X105814286Y-100426247D01*
X105814286Y-100426247D02*
X105814286Y-100283390D01*
X105814286Y-100283390D02*
X105861905Y-100092914D01*
X105861905Y-100092914D02*
X105909524Y-99997676D01*
X105909524Y-99997676D02*
X106004762Y-99902438D01*
X106004762Y-99902438D02*
X106147619Y-99854819D01*
X106147619Y-99854819D02*
X106242857Y-99854819D01*
X106242857Y-99854819D02*
X106385714Y-99902438D01*
X106385714Y-99902438D02*
X106433333Y-99950057D01*
X107385714Y-100854819D02*
X106814286Y-100854819D01*
X107100000Y-100854819D02*
X107100000Y-99854819D01*
X107100000Y-99854819D02*
X107004762Y-99997676D01*
X107004762Y-99997676D02*
X106909524Y-100092914D01*
X106909524Y-100092914D02*
X106814286Y-100140533D01*
X114533333Y-106059580D02*
X114485714Y-106107200D01*
X114485714Y-106107200D02*
X114342857Y-106154819D01*
X114342857Y-106154819D02*
X114247619Y-106154819D01*
X114247619Y-106154819D02*
X114104762Y-106107200D01*
X114104762Y-106107200D02*
X114009524Y-106011961D01*
X114009524Y-106011961D02*
X113961905Y-105916723D01*
X113961905Y-105916723D02*
X113914286Y-105726247D01*
X113914286Y-105726247D02*
X113914286Y-105583390D01*
X113914286Y-105583390D02*
X113961905Y-105392914D01*
X113961905Y-105392914D02*
X114009524Y-105297676D01*
X114009524Y-105297676D02*
X114104762Y-105202438D01*
X114104762Y-105202438D02*
X114247619Y-105154819D01*
X114247619Y-105154819D02*
X114342857Y-105154819D01*
X114342857Y-105154819D02*
X114485714Y-105202438D01*
X114485714Y-105202438D02*
X114533333Y-105250057D01*
X114914286Y-105250057D02*
X114961905Y-105202438D01*
X114961905Y-105202438D02*
X115057143Y-105154819D01*
X115057143Y-105154819D02*
X115295238Y-105154819D01*
X115295238Y-105154819D02*
X115390476Y-105202438D01*
X115390476Y-105202438D02*
X115438095Y-105250057D01*
X115438095Y-105250057D02*
X115485714Y-105345295D01*
X115485714Y-105345295D02*
X115485714Y-105440533D01*
X115485714Y-105440533D02*
X115438095Y-105583390D01*
X115438095Y-105583390D02*
X114866667Y-106154819D01*
X114866667Y-106154819D02*
X115485714Y-106154819D01*
X109438095Y-96354819D02*
X109438095Y-97164342D01*
X109438095Y-97164342D02*
X109485714Y-97259580D01*
X109485714Y-97259580D02*
X109533333Y-97307200D01*
X109533333Y-97307200D02*
X109628571Y-97354819D01*
X109628571Y-97354819D02*
X109819047Y-97354819D01*
X109819047Y-97354819D02*
X109914285Y-97307200D01*
X109914285Y-97307200D02*
X109961904Y-97259580D01*
X109961904Y-97259580D02*
X110009523Y-97164342D01*
X110009523Y-97164342D02*
X110009523Y-96354819D01*
X111009523Y-97354819D02*
X110438095Y-97354819D01*
X110723809Y-97354819D02*
X110723809Y-96354819D01*
X110723809Y-96354819D02*
X110628571Y-96497676D01*
X110628571Y-96497676D02*
X110533333Y-96592914D01*
X110533333Y-96592914D02*
X110438095Y-96640533D01*
X106559580Y-97766666D02*
X106607200Y-97814285D01*
X106607200Y-97814285D02*
X106654819Y-97957142D01*
X106654819Y-97957142D02*
X106654819Y-98052380D01*
X106654819Y-98052380D02*
X106607200Y-98195237D01*
X106607200Y-98195237D02*
X106511961Y-98290475D01*
X106511961Y-98290475D02*
X106416723Y-98338094D01*
X106416723Y-98338094D02*
X106226247Y-98385713D01*
X106226247Y-98385713D02*
X106083390Y-98385713D01*
X106083390Y-98385713D02*
X105892914Y-98338094D01*
X105892914Y-98338094D02*
X105797676Y-98290475D01*
X105797676Y-98290475D02*
X105702438Y-98195237D01*
X105702438Y-98195237D02*
X105654819Y-98052380D01*
X105654819Y-98052380D02*
X105654819Y-97957142D01*
X105654819Y-97957142D02*
X105702438Y-97814285D01*
X105702438Y-97814285D02*
X105750057Y-97766666D01*
X105654819Y-97433332D02*
X105654819Y-96814285D01*
X105654819Y-96814285D02*
X106035771Y-97147618D01*
X106035771Y-97147618D02*
X106035771Y-97004761D01*
X106035771Y-97004761D02*
X106083390Y-96909523D01*
X106083390Y-96909523D02*
X106131009Y-96861904D01*
X106131009Y-96861904D02*
X106226247Y-96814285D01*
X106226247Y-96814285D02*
X106464342Y-96814285D01*
X106464342Y-96814285D02*
X106559580Y-96861904D01*
X106559580Y-96861904D02*
X106607200Y-96909523D01*
X106607200Y-96909523D02*
X106654819Y-97004761D01*
X106654819Y-97004761D02*
X106654819Y-97290475D01*
X106654819Y-97290475D02*
X106607200Y-97385713D01*
X106607200Y-97385713D02*
X106559580Y-97433332D01*
X96059580Y-96116666D02*
X96107200Y-96164285D01*
X96107200Y-96164285D02*
X96154819Y-96307142D01*
X96154819Y-96307142D02*
X96154819Y-96402380D01*
X96154819Y-96402380D02*
X96107200Y-96545237D01*
X96107200Y-96545237D02*
X96011961Y-96640475D01*
X96011961Y-96640475D02*
X95916723Y-96688094D01*
X95916723Y-96688094D02*
X95726247Y-96735713D01*
X95726247Y-96735713D02*
X95583390Y-96735713D01*
X95583390Y-96735713D02*
X95392914Y-96688094D01*
X95392914Y-96688094D02*
X95297676Y-96640475D01*
X95297676Y-96640475D02*
X95202438Y-96545237D01*
X95202438Y-96545237D02*
X95154819Y-96402380D01*
X95154819Y-96402380D02*
X95154819Y-96307142D01*
X95154819Y-96307142D02*
X95202438Y-96164285D01*
X95202438Y-96164285D02*
X95250057Y-96116666D01*
X95488152Y-95259523D02*
X96154819Y-95259523D01*
X95107200Y-95497618D02*
X95821485Y-95735713D01*
X95821485Y-95735713D02*
X95821485Y-95116666D01*
X99633333Y-91354819D02*
X99300000Y-90878628D01*
X99061905Y-91354819D02*
X99061905Y-90354819D01*
X99061905Y-90354819D02*
X99442857Y-90354819D01*
X99442857Y-90354819D02*
X99538095Y-90402438D01*
X99538095Y-90402438D02*
X99585714Y-90450057D01*
X99585714Y-90450057D02*
X99633333Y-90545295D01*
X99633333Y-90545295D02*
X99633333Y-90688152D01*
X99633333Y-90688152D02*
X99585714Y-90783390D01*
X99585714Y-90783390D02*
X99538095Y-90831009D01*
X99538095Y-90831009D02*
X99442857Y-90878628D01*
X99442857Y-90878628D02*
X99061905Y-90878628D01*
X100014286Y-90450057D02*
X100061905Y-90402438D01*
X100061905Y-90402438D02*
X100157143Y-90354819D01*
X100157143Y-90354819D02*
X100395238Y-90354819D01*
X100395238Y-90354819D02*
X100490476Y-90402438D01*
X100490476Y-90402438D02*
X100538095Y-90450057D01*
X100538095Y-90450057D02*
X100585714Y-90545295D01*
X100585714Y-90545295D02*
X100585714Y-90640533D01*
X100585714Y-90640533D02*
X100538095Y-90783390D01*
X100538095Y-90783390D02*
X99966667Y-91354819D01*
X99966667Y-91354819D02*
X100585714Y-91354819D01*
X94833333Y-85554819D02*
X94357143Y-85554819D01*
X94357143Y-85554819D02*
X94309524Y-86031009D01*
X94309524Y-86031009D02*
X94357143Y-85983390D01*
X94357143Y-85983390D02*
X94452381Y-85935771D01*
X94452381Y-85935771D02*
X94690476Y-85935771D01*
X94690476Y-85935771D02*
X94785714Y-85983390D01*
X94785714Y-85983390D02*
X94833333Y-86031009D01*
X94833333Y-86031009D02*
X94880952Y-86126247D01*
X94880952Y-86126247D02*
X94880952Y-86364342D01*
X94880952Y-86364342D02*
X94833333Y-86459580D01*
X94833333Y-86459580D02*
X94785714Y-86507200D01*
X94785714Y-86507200D02*
X94690476Y-86554819D01*
X94690476Y-86554819D02*
X94452381Y-86554819D01*
X94452381Y-86554819D02*
X94357143Y-86507200D01*
X94357143Y-86507200D02*
X94309524Y-86459580D01*
X95166667Y-85554819D02*
X95500000Y-86554819D01*
X95500000Y-86554819D02*
X95833333Y-85554819D01*
X96166667Y-86173866D02*
X96928572Y-86173866D01*
X97880952Y-86554819D02*
X97404762Y-86554819D01*
X97404762Y-86554819D02*
X97404762Y-85554819D01*
X98214286Y-86031009D02*
X98547619Y-86031009D01*
X98690476Y-86554819D02*
X98214286Y-86554819D01*
X98214286Y-86554819D02*
X98214286Y-85554819D01*
X98214286Y-85554819D02*
X98690476Y-85554819D01*
X99119048Y-86554819D02*
X99119048Y-85554819D01*
X99119048Y-85554819D02*
X99357143Y-85554819D01*
X99357143Y-85554819D02*
X99500000Y-85602438D01*
X99500000Y-85602438D02*
X99595238Y-85697676D01*
X99595238Y-85697676D02*
X99642857Y-85792914D01*
X99642857Y-85792914D02*
X99690476Y-85983390D01*
X99690476Y-85983390D02*
X99690476Y-86126247D01*
X99690476Y-86126247D02*
X99642857Y-86316723D01*
X99642857Y-86316723D02*
X99595238Y-86411961D01*
X99595238Y-86411961D02*
X99500000Y-86507200D01*
X99500000Y-86507200D02*
X99357143Y-86554819D01*
X99357143Y-86554819D02*
X99119048Y-86554819D01*
X109038095Y-80354819D02*
X109038095Y-81164342D01*
X109038095Y-81164342D02*
X109085714Y-81259580D01*
X109085714Y-81259580D02*
X109133333Y-81307200D01*
X109133333Y-81307200D02*
X109228571Y-81354819D01*
X109228571Y-81354819D02*
X109419047Y-81354819D01*
X109419047Y-81354819D02*
X109514285Y-81307200D01*
X109514285Y-81307200D02*
X109561904Y-81259580D01*
X109561904Y-81259580D02*
X109609523Y-81164342D01*
X109609523Y-81164342D02*
X109609523Y-80354819D01*
X110038095Y-80450057D02*
X110085714Y-80402438D01*
X110085714Y-80402438D02*
X110180952Y-80354819D01*
X110180952Y-80354819D02*
X110419047Y-80354819D01*
X110419047Y-80354819D02*
X110514285Y-80402438D01*
X110514285Y-80402438D02*
X110561904Y-80450057D01*
X110561904Y-80450057D02*
X110609523Y-80545295D01*
X110609523Y-80545295D02*
X110609523Y-80640533D01*
X110609523Y-80640533D02*
X110561904Y-80783390D01*
X110561904Y-80783390D02*
X109990476Y-81354819D01*
X109990476Y-81354819D02*
X110609523Y-81354819D01*
X102359580Y-84166666D02*
X102407200Y-84214285D01*
X102407200Y-84214285D02*
X102454819Y-84357142D01*
X102454819Y-84357142D02*
X102454819Y-84452380D01*
X102454819Y-84452380D02*
X102407200Y-84595237D01*
X102407200Y-84595237D02*
X102311961Y-84690475D01*
X102311961Y-84690475D02*
X102216723Y-84738094D01*
X102216723Y-84738094D02*
X102026247Y-84785713D01*
X102026247Y-84785713D02*
X101883390Y-84785713D01*
X101883390Y-84785713D02*
X101692914Y-84738094D01*
X101692914Y-84738094D02*
X101597676Y-84690475D01*
X101597676Y-84690475D02*
X101502438Y-84595237D01*
X101502438Y-84595237D02*
X101454819Y-84452380D01*
X101454819Y-84452380D02*
X101454819Y-84357142D01*
X101454819Y-84357142D02*
X101502438Y-84214285D01*
X101502438Y-84214285D02*
X101550057Y-84166666D01*
X101454819Y-83261904D02*
X101454819Y-83738094D01*
X101454819Y-83738094D02*
X101931009Y-83785713D01*
X101931009Y-83785713D02*
X101883390Y-83738094D01*
X101883390Y-83738094D02*
X101835771Y-83642856D01*
X101835771Y-83642856D02*
X101835771Y-83404761D01*
X101835771Y-83404761D02*
X101883390Y-83309523D01*
X101883390Y-83309523D02*
X101931009Y-83261904D01*
X101931009Y-83261904D02*
X102026247Y-83214285D01*
X102026247Y-83214285D02*
X102264342Y-83214285D01*
X102264342Y-83214285D02*
X102359580Y-83261904D01*
X102359580Y-83261904D02*
X102407200Y-83309523D01*
X102407200Y-83309523D02*
X102454819Y-83404761D01*
X102454819Y-83404761D02*
X102454819Y-83642856D01*
X102454819Y-83642856D02*
X102407200Y-83738094D01*
X102407200Y-83738094D02*
X102359580Y-83785713D01*
X95659580Y-78866666D02*
X95707200Y-78914285D01*
X95707200Y-78914285D02*
X95754819Y-79057142D01*
X95754819Y-79057142D02*
X95754819Y-79152380D01*
X95754819Y-79152380D02*
X95707200Y-79295237D01*
X95707200Y-79295237D02*
X95611961Y-79390475D01*
X95611961Y-79390475D02*
X95516723Y-79438094D01*
X95516723Y-79438094D02*
X95326247Y-79485713D01*
X95326247Y-79485713D02*
X95183390Y-79485713D01*
X95183390Y-79485713D02*
X94992914Y-79438094D01*
X94992914Y-79438094D02*
X94897676Y-79390475D01*
X94897676Y-79390475D02*
X94802438Y-79295237D01*
X94802438Y-79295237D02*
X94754819Y-79152380D01*
X94754819Y-79152380D02*
X94754819Y-79057142D01*
X94754819Y-79057142D02*
X94802438Y-78914285D01*
X94802438Y-78914285D02*
X94850057Y-78866666D01*
X94754819Y-78009523D02*
X94754819Y-78199999D01*
X94754819Y-78199999D02*
X94802438Y-78295237D01*
X94802438Y-78295237D02*
X94850057Y-78342856D01*
X94850057Y-78342856D02*
X94992914Y-78438094D01*
X94992914Y-78438094D02*
X95183390Y-78485713D01*
X95183390Y-78485713D02*
X95564342Y-78485713D01*
X95564342Y-78485713D02*
X95659580Y-78438094D01*
X95659580Y-78438094D02*
X95707200Y-78390475D01*
X95707200Y-78390475D02*
X95754819Y-78295237D01*
X95754819Y-78295237D02*
X95754819Y-78104761D01*
X95754819Y-78104761D02*
X95707200Y-78009523D01*
X95707200Y-78009523D02*
X95659580Y-77961904D01*
X95659580Y-77961904D02*
X95564342Y-77914285D01*
X95564342Y-77914285D02*
X95326247Y-77914285D01*
X95326247Y-77914285D02*
X95231009Y-77961904D01*
X95231009Y-77961904D02*
X95183390Y-78009523D01*
X95183390Y-78009523D02*
X95135771Y-78104761D01*
X95135771Y-78104761D02*
X95135771Y-78295237D01*
X95135771Y-78295237D02*
X95183390Y-78390475D01*
X95183390Y-78390475D02*
X95231009Y-78438094D01*
X95231009Y-78438094D02*
X95326247Y-78485713D01*
X99933333Y-74554819D02*
X99600000Y-74078628D01*
X99361905Y-74554819D02*
X99361905Y-73554819D01*
X99361905Y-73554819D02*
X99742857Y-73554819D01*
X99742857Y-73554819D02*
X99838095Y-73602438D01*
X99838095Y-73602438D02*
X99885714Y-73650057D01*
X99885714Y-73650057D02*
X99933333Y-73745295D01*
X99933333Y-73745295D02*
X99933333Y-73888152D01*
X99933333Y-73888152D02*
X99885714Y-73983390D01*
X99885714Y-73983390D02*
X99838095Y-74031009D01*
X99838095Y-74031009D02*
X99742857Y-74078628D01*
X99742857Y-74078628D02*
X99361905Y-74078628D01*
X100266667Y-73554819D02*
X100885714Y-73554819D01*
X100885714Y-73554819D02*
X100552381Y-73935771D01*
X100552381Y-73935771D02*
X100695238Y-73935771D01*
X100695238Y-73935771D02*
X100790476Y-73983390D01*
X100790476Y-73983390D02*
X100838095Y-74031009D01*
X100838095Y-74031009D02*
X100885714Y-74126247D01*
X100885714Y-74126247D02*
X100885714Y-74364342D01*
X100885714Y-74364342D02*
X100838095Y-74459580D01*
X100838095Y-74459580D02*
X100790476Y-74507200D01*
X100790476Y-74507200D02*
X100695238Y-74554819D01*
X100695238Y-74554819D02*
X100409524Y-74554819D01*
X100409524Y-74554819D02*
X100314286Y-74507200D01*
X100314286Y-74507200D02*
X100266667Y-74459580D01*
X94035119Y-68904819D02*
X94654166Y-68904819D01*
X94654166Y-68904819D02*
X94320833Y-69285771D01*
X94320833Y-69285771D02*
X94463690Y-69285771D01*
X94463690Y-69285771D02*
X94558928Y-69333390D01*
X94558928Y-69333390D02*
X94606547Y-69381009D01*
X94606547Y-69381009D02*
X94654166Y-69476247D01*
X94654166Y-69476247D02*
X94654166Y-69714342D01*
X94654166Y-69714342D02*
X94606547Y-69809580D01*
X94606547Y-69809580D02*
X94558928Y-69857200D01*
X94558928Y-69857200D02*
X94463690Y-69904819D01*
X94463690Y-69904819D02*
X94177976Y-69904819D01*
X94177976Y-69904819D02*
X94082738Y-69857200D01*
X94082738Y-69857200D02*
X94035119Y-69809580D01*
X95082738Y-69809580D02*
X95130357Y-69857200D01*
X95130357Y-69857200D02*
X95082738Y-69904819D01*
X95082738Y-69904819D02*
X95035119Y-69857200D01*
X95035119Y-69857200D02*
X95082738Y-69809580D01*
X95082738Y-69809580D02*
X95082738Y-69904819D01*
X95463690Y-68904819D02*
X96082737Y-68904819D01*
X96082737Y-68904819D02*
X95749404Y-69285771D01*
X95749404Y-69285771D02*
X95892261Y-69285771D01*
X95892261Y-69285771D02*
X95987499Y-69333390D01*
X95987499Y-69333390D02*
X96035118Y-69381009D01*
X96035118Y-69381009D02*
X96082737Y-69476247D01*
X96082737Y-69476247D02*
X96082737Y-69714342D01*
X96082737Y-69714342D02*
X96035118Y-69809580D01*
X96035118Y-69809580D02*
X95987499Y-69857200D01*
X95987499Y-69857200D02*
X95892261Y-69904819D01*
X95892261Y-69904819D02*
X95606547Y-69904819D01*
X95606547Y-69904819D02*
X95511309Y-69857200D01*
X95511309Y-69857200D02*
X95463690Y-69809580D01*
X96368452Y-68904819D02*
X96701785Y-69904819D01*
X96701785Y-69904819D02*
X97035118Y-68904819D01*
X97368452Y-69523866D02*
X98130357Y-69523866D01*
X99082737Y-69904819D02*
X98606547Y-69904819D01*
X98606547Y-69904819D02*
X98606547Y-68904819D01*
X99416071Y-69381009D02*
X99749404Y-69381009D01*
X99892261Y-69904819D02*
X99416071Y-69904819D01*
X99416071Y-69904819D02*
X99416071Y-68904819D01*
X99416071Y-68904819D02*
X99892261Y-68904819D01*
X100320833Y-69904819D02*
X100320833Y-68904819D01*
X100320833Y-68904819D02*
X100558928Y-68904819D01*
X100558928Y-68904819D02*
X100701785Y-68952438D01*
X100701785Y-68952438D02*
X100797023Y-69047676D01*
X100797023Y-69047676D02*
X100844642Y-69142914D01*
X100844642Y-69142914D02*
X100892261Y-69333390D01*
X100892261Y-69333390D02*
X100892261Y-69476247D01*
X100892261Y-69476247D02*
X100844642Y-69666723D01*
X100844642Y-69666723D02*
X100797023Y-69761961D01*
X100797023Y-69761961D02*
X100701785Y-69857200D01*
X100701785Y-69857200D02*
X100558928Y-69904819D01*
X100558928Y-69904819D02*
X100320833Y-69904819D01*
X105788571Y-86254819D02*
X106407618Y-86254819D01*
X106407618Y-86254819D02*
X106074285Y-86635771D01*
X106074285Y-86635771D02*
X106217142Y-86635771D01*
X106217142Y-86635771D02*
X106312380Y-86683390D01*
X106312380Y-86683390D02*
X106359999Y-86731009D01*
X106359999Y-86731009D02*
X106407618Y-86826247D01*
X106407618Y-86826247D02*
X106407618Y-87064342D01*
X106407618Y-87064342D02*
X106359999Y-87159580D01*
X106359999Y-87159580D02*
X106312380Y-87207200D01*
X106312380Y-87207200D02*
X106217142Y-87254819D01*
X106217142Y-87254819D02*
X105931428Y-87254819D01*
X105931428Y-87254819D02*
X105836190Y-87207200D01*
X105836190Y-87207200D02*
X105788571Y-87159580D01*
X106836190Y-87159580D02*
X106883809Y-87207200D01*
X106883809Y-87207200D02*
X106836190Y-87254819D01*
X106836190Y-87254819D02*
X106788571Y-87207200D01*
X106788571Y-87207200D02*
X106836190Y-87159580D01*
X106836190Y-87159580D02*
X106836190Y-87254819D01*
X107217142Y-86254819D02*
X107836189Y-86254819D01*
X107836189Y-86254819D02*
X107502856Y-86635771D01*
X107502856Y-86635771D02*
X107645713Y-86635771D01*
X107645713Y-86635771D02*
X107740951Y-86683390D01*
X107740951Y-86683390D02*
X107788570Y-86731009D01*
X107788570Y-86731009D02*
X107836189Y-86826247D01*
X107836189Y-86826247D02*
X107836189Y-87064342D01*
X107836189Y-87064342D02*
X107788570Y-87159580D01*
X107788570Y-87159580D02*
X107740951Y-87207200D01*
X107740951Y-87207200D02*
X107645713Y-87254819D01*
X107645713Y-87254819D02*
X107359999Y-87254819D01*
X107359999Y-87254819D02*
X107264761Y-87207200D01*
X107264761Y-87207200D02*
X107217142Y-87159580D01*
X108121904Y-86254819D02*
X108455237Y-87254819D01*
X108455237Y-87254819D02*
X108788570Y-86254819D01*
X110074285Y-86254819D02*
X110264761Y-86254819D01*
X110264761Y-86254819D02*
X110359999Y-86302438D01*
X110359999Y-86302438D02*
X110455237Y-86397676D01*
X110455237Y-86397676D02*
X110502856Y-86588152D01*
X110502856Y-86588152D02*
X110502856Y-86921485D01*
X110502856Y-86921485D02*
X110455237Y-87111961D01*
X110455237Y-87111961D02*
X110359999Y-87207200D01*
X110359999Y-87207200D02*
X110264761Y-87254819D01*
X110264761Y-87254819D02*
X110074285Y-87254819D01*
X110074285Y-87254819D02*
X109979047Y-87207200D01*
X109979047Y-87207200D02*
X109883809Y-87111961D01*
X109883809Y-87111961D02*
X109836190Y-86921485D01*
X109836190Y-86921485D02*
X109836190Y-86588152D01*
X109836190Y-86588152D02*
X109883809Y-86397676D01*
X109883809Y-86397676D02*
X109979047Y-86302438D01*
X109979047Y-86302438D02*
X110074285Y-86254819D01*
X110931428Y-86254819D02*
X110931428Y-87064342D01*
X110931428Y-87064342D02*
X110979047Y-87159580D01*
X110979047Y-87159580D02*
X111026666Y-87207200D01*
X111026666Y-87207200D02*
X111121904Y-87254819D01*
X111121904Y-87254819D02*
X111312380Y-87254819D01*
X111312380Y-87254819D02*
X111407618Y-87207200D01*
X111407618Y-87207200D02*
X111455237Y-87159580D01*
X111455237Y-87159580D02*
X111502856Y-87064342D01*
X111502856Y-87064342D02*
X111502856Y-86254819D01*
X111836190Y-86254819D02*
X112407618Y-86254819D01*
X112121904Y-87254819D02*
X112121904Y-86254819D01*
X113979047Y-86254819D02*
X113502857Y-86254819D01*
X113502857Y-86254819D02*
X113455238Y-86731009D01*
X113455238Y-86731009D02*
X113502857Y-86683390D01*
X113502857Y-86683390D02*
X113598095Y-86635771D01*
X113598095Y-86635771D02*
X113836190Y-86635771D01*
X113836190Y-86635771D02*
X113931428Y-86683390D01*
X113931428Y-86683390D02*
X113979047Y-86731009D01*
X113979047Y-86731009D02*
X114026666Y-86826247D01*
X114026666Y-86826247D02*
X114026666Y-87064342D01*
X114026666Y-87064342D02*
X113979047Y-87159580D01*
X113979047Y-87159580D02*
X113931428Y-87207200D01*
X113931428Y-87207200D02*
X113836190Y-87254819D01*
X113836190Y-87254819D02*
X113598095Y-87254819D01*
X113598095Y-87254819D02*
X113502857Y-87207200D01*
X113502857Y-87207200D02*
X113455238Y-87159580D01*
X114312381Y-86254819D02*
X114645714Y-87254819D01*
X114645714Y-87254819D02*
X114979047Y-86254819D01*
D11*
%TO.C,REF\u002A\u002A*%
X112288614Y-70975877D02*
X112312327Y-70990647D01*
X112338978Y-71012227D01*
X112338978Y-71333773D01*
X112338893Y-71427830D01*
X112338529Y-71501932D01*
X112337724Y-71558704D01*
X112336313Y-71600768D01*
X112334133Y-71630748D01*
X112331021Y-71651267D01*
X112326814Y-71664949D01*
X112321348Y-71674416D01*
X112317472Y-71679082D01*
X112286034Y-71699575D01*
X112250233Y-71698739D01*
X112218873Y-71681264D01*
X112192222Y-71659684D01*
X112192222Y-71012227D01*
X112218873Y-70990647D01*
X112244594Y-70974949D01*
X112265600Y-70969067D01*
X112288614Y-70975877D01*
G36*
X112288614Y-70975877D02*
G01*
X112312327Y-70990647D01*
X112338978Y-71012227D01*
X112338978Y-71333773D01*
X112338893Y-71427830D01*
X112338529Y-71501932D01*
X112337724Y-71558704D01*
X112336313Y-71600768D01*
X112334133Y-71630748D01*
X112331021Y-71651267D01*
X112326814Y-71664949D01*
X112321348Y-71674416D01*
X112317472Y-71679082D01*
X112286034Y-71699575D01*
X112250233Y-71698739D01*
X112218873Y-71681264D01*
X112192222Y-71659684D01*
X112192222Y-71012227D01*
X112218873Y-70990647D01*
X112244594Y-70974949D01*
X112265600Y-70969067D01*
X112288614Y-70975877D01*
G37*
X105176178Y-70991645D02*
X105182758Y-70999218D01*
X105187921Y-71008987D01*
X105191836Y-71023571D01*
X105194676Y-71045585D01*
X105196613Y-71077648D01*
X105197817Y-71122375D01*
X105198461Y-71182385D01*
X105198716Y-71260294D01*
X105198755Y-71335956D01*
X105198686Y-71429802D01*
X105198362Y-71503689D01*
X105197614Y-71560232D01*
X105196268Y-71602049D01*
X105194154Y-71631757D01*
X105191100Y-71651973D01*
X105186934Y-71665314D01*
X105181484Y-71674398D01*
X105176178Y-71680267D01*
X105143174Y-71699947D01*
X105108009Y-71698181D01*
X105076545Y-71676717D01*
X105069316Y-71668337D01*
X105063666Y-71658614D01*
X105059401Y-71644861D01*
X105056327Y-71624389D01*
X105054248Y-71594512D01*
X105052970Y-71552541D01*
X105052299Y-71495789D01*
X105052041Y-71421567D01*
X105052000Y-71337537D01*
X105052000Y-71024485D01*
X105079709Y-70996776D01*
X105113863Y-70973463D01*
X105146994Y-70972623D01*
X105176178Y-70991645D01*
G36*
X105176178Y-70991645D02*
G01*
X105182758Y-70999218D01*
X105187921Y-71008987D01*
X105191836Y-71023571D01*
X105194676Y-71045585D01*
X105196613Y-71077648D01*
X105197817Y-71122375D01*
X105198461Y-71182385D01*
X105198716Y-71260294D01*
X105198755Y-71335956D01*
X105198686Y-71429802D01*
X105198362Y-71503689D01*
X105197614Y-71560232D01*
X105196268Y-71602049D01*
X105194154Y-71631757D01*
X105191100Y-71651973D01*
X105186934Y-71665314D01*
X105181484Y-71674398D01*
X105176178Y-71680267D01*
X105143174Y-71699947D01*
X105108009Y-71698181D01*
X105076545Y-71676717D01*
X105069316Y-71668337D01*
X105063666Y-71658614D01*
X105059401Y-71644861D01*
X105056327Y-71624389D01*
X105054248Y-71594512D01*
X105052970Y-71552541D01*
X105052299Y-71495789D01*
X105052041Y-71421567D01*
X105052000Y-71337537D01*
X105052000Y-71024485D01*
X105079709Y-70996776D01*
X105113863Y-70973463D01*
X105146994Y-70972623D01*
X105176178Y-70991645D01*
G37*
X105826957Y-65726571D02*
X105923232Y-65750809D01*
X106009816Y-65793641D01*
X106084627Y-65853419D01*
X106145582Y-65928494D01*
X106190601Y-66017220D01*
X106216864Y-66113530D01*
X106222714Y-66210795D01*
X106207860Y-66304654D01*
X106174160Y-66392511D01*
X106123472Y-66471770D01*
X106057655Y-66539836D01*
X105978566Y-66594112D01*
X105888066Y-66632002D01*
X105836800Y-66644426D01*
X105792302Y-66651947D01*
X105758001Y-66654919D01*
X105725040Y-66653094D01*
X105684566Y-66646225D01*
X105651469Y-66639250D01*
X105558053Y-66607741D01*
X105474381Y-66556617D01*
X105402335Y-66487429D01*
X105343800Y-66401728D01*
X105329852Y-66374489D01*
X105313414Y-66338122D01*
X105303106Y-66307582D01*
X105297540Y-66275450D01*
X105295331Y-66234307D01*
X105295052Y-66188222D01*
X105299139Y-66103865D01*
X105312554Y-66034586D01*
X105337744Y-65973961D01*
X105377154Y-65915567D01*
X105415702Y-65871302D01*
X105487594Y-65805484D01*
X105562687Y-65760053D01*
X105645438Y-65732850D01*
X105723072Y-65722576D01*
X105826957Y-65726571D01*
G36*
X105826957Y-65726571D02*
G01*
X105923232Y-65750809D01*
X106009816Y-65793641D01*
X106084627Y-65853419D01*
X106145582Y-65928494D01*
X106190601Y-66017220D01*
X106216864Y-66113530D01*
X106222714Y-66210795D01*
X106207860Y-66304654D01*
X106174160Y-66392511D01*
X106123472Y-66471770D01*
X106057655Y-66539836D01*
X105978566Y-66594112D01*
X105888066Y-66632002D01*
X105836800Y-66644426D01*
X105792302Y-66651947D01*
X105758001Y-66654919D01*
X105725040Y-66653094D01*
X105684566Y-66646225D01*
X105651469Y-66639250D01*
X105558053Y-66607741D01*
X105474381Y-66556617D01*
X105402335Y-66487429D01*
X105343800Y-66401728D01*
X105329852Y-66374489D01*
X105313414Y-66338122D01*
X105303106Y-66307582D01*
X105297540Y-66275450D01*
X105295331Y-66234307D01*
X105295052Y-66188222D01*
X105299139Y-66103865D01*
X105312554Y-66034586D01*
X105337744Y-65973961D01*
X105377154Y-65915567D01*
X105415702Y-65871302D01*
X105487594Y-65805484D01*
X105562687Y-65760053D01*
X105645438Y-65732850D01*
X105723072Y-65722576D01*
X105826957Y-65726571D01*
G37*
X113063065Y-70969163D02*
X113141772Y-70969542D01*
X113202863Y-70970333D01*
X113248817Y-70971670D01*
X113282114Y-70973683D01*
X113305236Y-70976506D01*
X113320662Y-70980269D01*
X113330871Y-70985105D01*
X113335813Y-70988822D01*
X113361457Y-71021358D01*
X113364559Y-71055138D01*
X113348711Y-71085826D01*
X113338348Y-71098089D01*
X113327196Y-71106450D01*
X113311035Y-71111657D01*
X113285642Y-71114457D01*
X113246798Y-71115596D01*
X113190280Y-71115821D01*
X113179180Y-71115822D01*
X113033244Y-71115822D01*
X113033244Y-71386756D01*
X113033148Y-71472154D01*
X113032711Y-71537864D01*
X113031712Y-71586774D01*
X113029928Y-71621773D01*
X113027137Y-71645749D01*
X113023117Y-71661593D01*
X113017645Y-71672191D01*
X113010666Y-71680267D01*
X112977734Y-71700112D01*
X112943354Y-71698548D01*
X112912176Y-71675906D01*
X112909886Y-71673100D01*
X112902429Y-71662492D01*
X112896747Y-71650081D01*
X112892601Y-71632850D01*
X112889750Y-71607784D01*
X112887954Y-71571867D01*
X112886972Y-71522083D01*
X112886564Y-71455417D01*
X112886489Y-71379589D01*
X112886489Y-71115822D01*
X112747127Y-71115822D01*
X112687322Y-71115418D01*
X112645918Y-71113840D01*
X112618748Y-71110547D01*
X112601646Y-71104992D01*
X112590443Y-71096631D01*
X112589083Y-71095178D01*
X112572725Y-71061939D01*
X112574172Y-71024362D01*
X112592978Y-70991645D01*
X112600250Y-70985298D01*
X112609627Y-70980266D01*
X112623609Y-70976396D01*
X112644696Y-70973537D01*
X112675389Y-70971535D01*
X112718189Y-70970239D01*
X112775595Y-70969498D01*
X112850110Y-70969158D01*
X112944233Y-70969068D01*
X112964260Y-70969067D01*
X113063065Y-70969163D01*
G36*
X113063065Y-70969163D02*
G01*
X113141772Y-70969542D01*
X113202863Y-70970333D01*
X113248817Y-70971670D01*
X113282114Y-70973683D01*
X113305236Y-70976506D01*
X113320662Y-70980269D01*
X113330871Y-70985105D01*
X113335813Y-70988822D01*
X113361457Y-71021358D01*
X113364559Y-71055138D01*
X113348711Y-71085826D01*
X113338348Y-71098089D01*
X113327196Y-71106450D01*
X113311035Y-71111657D01*
X113285642Y-71114457D01*
X113246798Y-71115596D01*
X113190280Y-71115821D01*
X113179180Y-71115822D01*
X113033244Y-71115822D01*
X113033244Y-71386756D01*
X113033148Y-71472154D01*
X113032711Y-71537864D01*
X113031712Y-71586774D01*
X113029928Y-71621773D01*
X113027137Y-71645749D01*
X113023117Y-71661593D01*
X113017645Y-71672191D01*
X113010666Y-71680267D01*
X112977734Y-71700112D01*
X112943354Y-71698548D01*
X112912176Y-71675906D01*
X112909886Y-71673100D01*
X112902429Y-71662492D01*
X112896747Y-71650081D01*
X112892601Y-71632850D01*
X112889750Y-71607784D01*
X112887954Y-71571867D01*
X112886972Y-71522083D01*
X112886564Y-71455417D01*
X112886489Y-71379589D01*
X112886489Y-71115822D01*
X112747127Y-71115822D01*
X112687322Y-71115418D01*
X112645918Y-71113840D01*
X112618748Y-71110547D01*
X112601646Y-71104992D01*
X112590443Y-71096631D01*
X112589083Y-71095178D01*
X112572725Y-71061939D01*
X112574172Y-71024362D01*
X112592978Y-70991645D01*
X112600250Y-70985298D01*
X112609627Y-70980266D01*
X112623609Y-70976396D01*
X112644696Y-70973537D01*
X112675389Y-70971535D01*
X112718189Y-70970239D01*
X112775595Y-70969498D01*
X112850110Y-70969158D01*
X112944233Y-70969068D01*
X112964260Y-70969067D01*
X113063065Y-70969163D01*
G37*
X114328823Y-70974533D02*
X114360202Y-70996776D01*
X114387911Y-71024485D01*
X114387911Y-71333920D01*
X114387838Y-71425799D01*
X114387495Y-71497840D01*
X114386692Y-71552780D01*
X114385241Y-71593360D01*
X114382952Y-71622317D01*
X114379636Y-71642391D01*
X114375105Y-71656321D01*
X114369169Y-71666845D01*
X114364514Y-71673100D01*
X114333783Y-71697673D01*
X114298496Y-71700341D01*
X114266245Y-71685271D01*
X114255588Y-71676374D01*
X114248464Y-71664557D01*
X114244167Y-71645526D01*
X114241991Y-71614992D01*
X114241228Y-71568662D01*
X114241155Y-71532871D01*
X114241155Y-71398045D01*
X113744444Y-71398045D01*
X113744444Y-71520700D01*
X113743931Y-71576787D01*
X113741876Y-71615333D01*
X113737508Y-71641361D01*
X113730056Y-71659897D01*
X113721047Y-71673100D01*
X113690144Y-71697604D01*
X113655196Y-71700506D01*
X113621738Y-71683089D01*
X113612604Y-71673959D01*
X113606152Y-71661855D01*
X113601897Y-71643001D01*
X113599352Y-71613620D01*
X113598029Y-71569937D01*
X113597443Y-71508175D01*
X113597375Y-71494000D01*
X113596891Y-71377631D01*
X113596641Y-71281727D01*
X113596723Y-71204177D01*
X113597231Y-71142869D01*
X113598262Y-71095690D01*
X113599913Y-71060530D01*
X113602279Y-71035276D01*
X113605457Y-71017817D01*
X113609544Y-71006041D01*
X113614634Y-70997835D01*
X113620266Y-70991645D01*
X113652128Y-70971844D01*
X113685357Y-70974533D01*
X113716735Y-70996776D01*
X113729433Y-71011126D01*
X113737526Y-71026978D01*
X113742042Y-71049554D01*
X113744006Y-71084078D01*
X113744444Y-71135776D01*
X113744444Y-71251289D01*
X114241155Y-71251289D01*
X114241155Y-71132756D01*
X114241662Y-71078148D01*
X114243698Y-71041275D01*
X114248035Y-71017307D01*
X114255447Y-71001415D01*
X114263733Y-70991645D01*
X114295594Y-70971844D01*
X114328823Y-70974533D01*
G36*
X114328823Y-70974533D02*
G01*
X114360202Y-70996776D01*
X114387911Y-71024485D01*
X114387911Y-71333920D01*
X114387838Y-71425799D01*
X114387495Y-71497840D01*
X114386692Y-71552780D01*
X114385241Y-71593360D01*
X114382952Y-71622317D01*
X114379636Y-71642391D01*
X114375105Y-71656321D01*
X114369169Y-71666845D01*
X114364514Y-71673100D01*
X114333783Y-71697673D01*
X114298496Y-71700341D01*
X114266245Y-71685271D01*
X114255588Y-71676374D01*
X114248464Y-71664557D01*
X114244167Y-71645526D01*
X114241991Y-71614992D01*
X114241228Y-71568662D01*
X114241155Y-71532871D01*
X114241155Y-71398045D01*
X113744444Y-71398045D01*
X113744444Y-71520700D01*
X113743931Y-71576787D01*
X113741876Y-71615333D01*
X113737508Y-71641361D01*
X113730056Y-71659897D01*
X113721047Y-71673100D01*
X113690144Y-71697604D01*
X113655196Y-71700506D01*
X113621738Y-71683089D01*
X113612604Y-71673959D01*
X113606152Y-71661855D01*
X113601897Y-71643001D01*
X113599352Y-71613620D01*
X113598029Y-71569937D01*
X113597443Y-71508175D01*
X113597375Y-71494000D01*
X113596891Y-71377631D01*
X113596641Y-71281727D01*
X113596723Y-71204177D01*
X113597231Y-71142869D01*
X113598262Y-71095690D01*
X113599913Y-71060530D01*
X113602279Y-71035276D01*
X113605457Y-71017817D01*
X113609544Y-71006041D01*
X113614634Y-70997835D01*
X113620266Y-70991645D01*
X113652128Y-70971844D01*
X113685357Y-70974533D01*
X113716735Y-70996776D01*
X113729433Y-71011126D01*
X113737526Y-71026978D01*
X113742042Y-71049554D01*
X113744006Y-71084078D01*
X113744444Y-71135776D01*
X113744444Y-71251289D01*
X114241155Y-71251289D01*
X114241155Y-71132756D01*
X114241662Y-71078148D01*
X114243698Y-71041275D01*
X114248035Y-71017307D01*
X114255447Y-71001415D01*
X114263733Y-70991645D01*
X114295594Y-70971844D01*
X114328823Y-70974533D01*
G37*
X109118309Y-70969275D02*
X109247288Y-70973636D01*
X109356991Y-70986861D01*
X109449226Y-71009741D01*
X109525802Y-71043070D01*
X109588527Y-71087638D01*
X109639212Y-71144236D01*
X109679663Y-71213658D01*
X109680459Y-71215351D01*
X109704601Y-71277483D01*
X109713203Y-71332509D01*
X109706231Y-71387887D01*
X109683654Y-71451073D01*
X109679372Y-71460689D01*
X109650172Y-71516966D01*
X109617356Y-71560451D01*
X109575002Y-71597417D01*
X109517190Y-71634135D01*
X109513831Y-71636052D01*
X109463504Y-71660227D01*
X109406621Y-71678282D01*
X109339527Y-71690839D01*
X109258565Y-71698522D01*
X109160082Y-71701953D01*
X109125286Y-71702251D01*
X108959594Y-71702845D01*
X108936197Y-71673100D01*
X108929257Y-71663319D01*
X108923842Y-71651897D01*
X108919765Y-71636095D01*
X108916837Y-71613175D01*
X108914867Y-71580396D01*
X108914225Y-71556089D01*
X108913668Y-71535021D01*
X108913050Y-71474311D01*
X108912825Y-71395526D01*
X108912800Y-71333920D01*
X108912800Y-71115822D01*
X109070844Y-71115822D01*
X109070844Y-71556089D01*
X109164726Y-71556089D01*
X109219664Y-71554483D01*
X109276060Y-71550255D01*
X109322345Y-71544292D01*
X109325139Y-71543790D01*
X109407348Y-71521736D01*
X109471114Y-71488600D01*
X109518452Y-71442847D01*
X109551382Y-71382939D01*
X109557108Y-71367061D01*
X109562721Y-71342333D01*
X109560291Y-71317902D01*
X109548467Y-71285400D01*
X109541340Y-71269434D01*
X109518000Y-71227006D01*
X109489880Y-71197240D01*
X109458940Y-71176511D01*
X109396966Y-71149537D01*
X109317651Y-71129998D01*
X109225253Y-71118746D01*
X109158333Y-71116270D01*
X109070844Y-71115822D01*
X108912800Y-71115822D01*
X108912800Y-71024485D01*
X108940509Y-70996776D01*
X108952806Y-70985544D01*
X108966103Y-70977853D01*
X108984672Y-70973040D01*
X109012786Y-70970446D01*
X109054717Y-70969410D01*
X109114737Y-70969270D01*
X109118309Y-70969275D01*
G36*
X109118309Y-70969275D02*
G01*
X109247288Y-70973636D01*
X109356991Y-70986861D01*
X109449226Y-71009741D01*
X109525802Y-71043070D01*
X109588527Y-71087638D01*
X109639212Y-71144236D01*
X109679663Y-71213658D01*
X109680459Y-71215351D01*
X109704601Y-71277483D01*
X109713203Y-71332509D01*
X109706231Y-71387887D01*
X109683654Y-71451073D01*
X109679372Y-71460689D01*
X109650172Y-71516966D01*
X109617356Y-71560451D01*
X109575002Y-71597417D01*
X109517190Y-71634135D01*
X109513831Y-71636052D01*
X109463504Y-71660227D01*
X109406621Y-71678282D01*
X109339527Y-71690839D01*
X109258565Y-71698522D01*
X109160082Y-71701953D01*
X109125286Y-71702251D01*
X108959594Y-71702845D01*
X108936197Y-71673100D01*
X108929257Y-71663319D01*
X108923842Y-71651897D01*
X108919765Y-71636095D01*
X108916837Y-71613175D01*
X108914867Y-71580396D01*
X108914225Y-71556089D01*
X108913668Y-71535021D01*
X108913050Y-71474311D01*
X108912825Y-71395526D01*
X108912800Y-71333920D01*
X108912800Y-71115822D01*
X109070844Y-71115822D01*
X109070844Y-71556089D01*
X109164726Y-71556089D01*
X109219664Y-71554483D01*
X109276060Y-71550255D01*
X109322345Y-71544292D01*
X109325139Y-71543790D01*
X109407348Y-71521736D01*
X109471114Y-71488600D01*
X109518452Y-71442847D01*
X109551382Y-71382939D01*
X109557108Y-71367061D01*
X109562721Y-71342333D01*
X109560291Y-71317902D01*
X109548467Y-71285400D01*
X109541340Y-71269434D01*
X109518000Y-71227006D01*
X109489880Y-71197240D01*
X109458940Y-71176511D01*
X109396966Y-71149537D01*
X109317651Y-71129998D01*
X109225253Y-71118746D01*
X109158333Y-71116270D01*
X109070844Y-71115822D01*
X108912800Y-71115822D01*
X108912800Y-71024485D01*
X108940509Y-70996776D01*
X108952806Y-70985544D01*
X108966103Y-70977853D01*
X108984672Y-70973040D01*
X109012786Y-70970446D01*
X109054717Y-70969410D01*
X109114737Y-70969270D01*
X109118309Y-70969275D01*
G37*
X101978629Y-70969066D02*
X102018111Y-70969467D01*
X102133800Y-70972259D01*
X102230689Y-70980550D01*
X102312081Y-70995232D01*
X102381277Y-71017193D01*
X102441580Y-71047322D01*
X102496292Y-71086510D01*
X102515833Y-71103532D01*
X102548250Y-71143363D01*
X102577480Y-71197413D01*
X102600009Y-71257323D01*
X102612321Y-71314739D01*
X102613600Y-71335956D01*
X102605583Y-71394769D01*
X102584101Y-71459013D01*
X102553001Y-71519821D01*
X102516134Y-71568330D01*
X102510146Y-71574182D01*
X102459421Y-71615321D01*
X102403875Y-71647435D01*
X102340304Y-71671365D01*
X102265506Y-71687953D01*
X102176278Y-71698041D01*
X102069418Y-71702469D01*
X102020472Y-71702845D01*
X101958238Y-71702545D01*
X101914472Y-71701292D01*
X101885069Y-71698554D01*
X101865921Y-71693801D01*
X101852923Y-71686501D01*
X101845955Y-71680267D01*
X101839374Y-71672694D01*
X101834212Y-71662924D01*
X101830297Y-71648340D01*
X101827457Y-71626326D01*
X101825520Y-71594264D01*
X101824492Y-71556089D01*
X101970133Y-71556089D01*
X102063266Y-71556004D01*
X102119307Y-71554396D01*
X102178001Y-71550256D01*
X102226972Y-71544464D01*
X102228462Y-71544226D01*
X102307608Y-71525090D01*
X102368998Y-71495287D01*
X102415695Y-71452878D01*
X102445365Y-71406961D01*
X102463647Y-71356026D01*
X102462229Y-71308200D01*
X102441012Y-71256933D01*
X102399511Y-71203899D01*
X102342002Y-71164600D01*
X102267250Y-71138331D01*
X102217292Y-71129035D01*
X102160584Y-71122507D01*
X102100481Y-71117782D01*
X102049361Y-71115817D01*
X102046333Y-71115808D01*
X101970133Y-71115822D01*
X101970133Y-71556089D01*
X101824492Y-71556089D01*
X101824316Y-71549536D01*
X101823672Y-71489526D01*
X101823417Y-71411617D01*
X101823378Y-71335956D01*
X101823130Y-71235041D01*
X101823183Y-71154427D01*
X101824143Y-71115822D01*
X101824740Y-71091851D01*
X101829002Y-71045055D01*
X101837170Y-71011778D01*
X101850444Y-70989759D01*
X101870026Y-70976739D01*
X101897117Y-70970457D01*
X101932918Y-70968653D01*
X101978629Y-70969066D01*
G36*
X101978629Y-70969066D02*
G01*
X102018111Y-70969467D01*
X102133800Y-70972259D01*
X102230689Y-70980550D01*
X102312081Y-70995232D01*
X102381277Y-71017193D01*
X102441580Y-71047322D01*
X102496292Y-71086510D01*
X102515833Y-71103532D01*
X102548250Y-71143363D01*
X102577480Y-71197413D01*
X102600009Y-71257323D01*
X102612321Y-71314739D01*
X102613600Y-71335956D01*
X102605583Y-71394769D01*
X102584101Y-71459013D01*
X102553001Y-71519821D01*
X102516134Y-71568330D01*
X102510146Y-71574182D01*
X102459421Y-71615321D01*
X102403875Y-71647435D01*
X102340304Y-71671365D01*
X102265506Y-71687953D01*
X102176278Y-71698041D01*
X102069418Y-71702469D01*
X102020472Y-71702845D01*
X101958238Y-71702545D01*
X101914472Y-71701292D01*
X101885069Y-71698554D01*
X101865921Y-71693801D01*
X101852923Y-71686501D01*
X101845955Y-71680267D01*
X101839374Y-71672694D01*
X101834212Y-71662924D01*
X101830297Y-71648340D01*
X101827457Y-71626326D01*
X101825520Y-71594264D01*
X101824492Y-71556089D01*
X101970133Y-71556089D01*
X102063266Y-71556004D01*
X102119307Y-71554396D01*
X102178001Y-71550256D01*
X102226972Y-71544464D01*
X102228462Y-71544226D01*
X102307608Y-71525090D01*
X102368998Y-71495287D01*
X102415695Y-71452878D01*
X102445365Y-71406961D01*
X102463647Y-71356026D01*
X102462229Y-71308200D01*
X102441012Y-71256933D01*
X102399511Y-71203899D01*
X102342002Y-71164600D01*
X102267250Y-71138331D01*
X102217292Y-71129035D01*
X102160584Y-71122507D01*
X102100481Y-71117782D01*
X102049361Y-71115817D01*
X102046333Y-71115808D01*
X101970133Y-71115822D01*
X101970133Y-71556089D01*
X101824492Y-71556089D01*
X101824316Y-71549536D01*
X101823672Y-71489526D01*
X101823417Y-71411617D01*
X101823378Y-71335956D01*
X101823130Y-71235041D01*
X101823183Y-71154427D01*
X101824143Y-71115822D01*
X101824740Y-71091851D01*
X101829002Y-71045055D01*
X101837170Y-71011778D01*
X101850444Y-70989759D01*
X101870026Y-70976739D01*
X101897117Y-70970457D01*
X101932918Y-70968653D01*
X101978629Y-70969066D01*
G37*
X106799886Y-70973448D02*
X106823452Y-70987273D01*
X106854265Y-71009881D01*
X106893922Y-71042338D01*
X106944020Y-71085708D01*
X107006157Y-71141058D01*
X107081928Y-71209451D01*
X107168666Y-71288084D01*
X107349289Y-71451878D01*
X107354933Y-71232029D01*
X107356971Y-71156351D01*
X107358937Y-71099994D01*
X107361266Y-71059706D01*
X107364394Y-71032235D01*
X107368755Y-71014329D01*
X107374784Y-71002737D01*
X107382916Y-70994208D01*
X107387228Y-70990623D01*
X107421759Y-70971670D01*
X107454617Y-70974441D01*
X107480682Y-70990633D01*
X107507333Y-71012199D01*
X107510648Y-71327151D01*
X107511565Y-71419779D01*
X107512032Y-71492544D01*
X107511887Y-71548161D01*
X107510968Y-71589342D01*
X107509113Y-71618803D01*
X107506161Y-71639255D01*
X107501950Y-71653413D01*
X107496318Y-71663991D01*
X107490073Y-71672474D01*
X107476561Y-71688207D01*
X107463117Y-71698636D01*
X107447876Y-71702639D01*
X107428974Y-71699094D01*
X107404545Y-71686879D01*
X107372727Y-71664871D01*
X107331652Y-71631949D01*
X107279458Y-71586991D01*
X107214278Y-71528875D01*
X107140444Y-71462099D01*
X106875155Y-71221458D01*
X106869511Y-71440589D01*
X106867469Y-71516128D01*
X106865498Y-71572354D01*
X106863161Y-71612524D01*
X106860019Y-71639896D01*
X106855636Y-71657728D01*
X106849576Y-71669279D01*
X106841400Y-71677807D01*
X106837216Y-71681282D01*
X106800235Y-71700372D01*
X106765292Y-71697493D01*
X106734864Y-71673100D01*
X106727903Y-71663286D01*
X106722477Y-71651826D01*
X106718397Y-71635968D01*
X106715471Y-71612963D01*
X106713508Y-71580062D01*
X106712317Y-71534516D01*
X106711708Y-71473573D01*
X106711489Y-71394486D01*
X106711466Y-71335956D01*
X106711540Y-71244407D01*
X106711887Y-71172687D01*
X106712699Y-71118045D01*
X106714167Y-71077732D01*
X106716481Y-71048998D01*
X106719833Y-71029093D01*
X106724412Y-71015268D01*
X106730411Y-71004772D01*
X106734864Y-70998811D01*
X106746150Y-70984691D01*
X106756699Y-70974029D01*
X106768107Y-70967892D01*
X106781970Y-70967343D01*
X106799886Y-70973448D01*
G36*
X106799886Y-70973448D02*
G01*
X106823452Y-70987273D01*
X106854265Y-71009881D01*
X106893922Y-71042338D01*
X106944020Y-71085708D01*
X107006157Y-71141058D01*
X107081928Y-71209451D01*
X107168666Y-71288084D01*
X107349289Y-71451878D01*
X107354933Y-71232029D01*
X107356971Y-71156351D01*
X107358937Y-71099994D01*
X107361266Y-71059706D01*
X107364394Y-71032235D01*
X107368755Y-71014329D01*
X107374784Y-71002737D01*
X107382916Y-70994208D01*
X107387228Y-70990623D01*
X107421759Y-70971670D01*
X107454617Y-70974441D01*
X107480682Y-70990633D01*
X107507333Y-71012199D01*
X107510648Y-71327151D01*
X107511565Y-71419779D01*
X107512032Y-71492544D01*
X107511887Y-71548161D01*
X107510968Y-71589342D01*
X107509113Y-71618803D01*
X107506161Y-71639255D01*
X107501950Y-71653413D01*
X107496318Y-71663991D01*
X107490073Y-71672474D01*
X107476561Y-71688207D01*
X107463117Y-71698636D01*
X107447876Y-71702639D01*
X107428974Y-71699094D01*
X107404545Y-71686879D01*
X107372727Y-71664871D01*
X107331652Y-71631949D01*
X107279458Y-71586991D01*
X107214278Y-71528875D01*
X107140444Y-71462099D01*
X106875155Y-71221458D01*
X106869511Y-71440589D01*
X106867469Y-71516128D01*
X106865498Y-71572354D01*
X106863161Y-71612524D01*
X106860019Y-71639896D01*
X106855636Y-71657728D01*
X106849576Y-71669279D01*
X106841400Y-71677807D01*
X106837216Y-71681282D01*
X106800235Y-71700372D01*
X106765292Y-71697493D01*
X106734864Y-71673100D01*
X106727903Y-71663286D01*
X106722477Y-71651826D01*
X106718397Y-71635968D01*
X106715471Y-71612963D01*
X106713508Y-71580062D01*
X106712317Y-71534516D01*
X106711708Y-71473573D01*
X106711489Y-71394486D01*
X106711466Y-71335956D01*
X106711540Y-71244407D01*
X106711887Y-71172687D01*
X106712699Y-71118045D01*
X106714167Y-71077732D01*
X106716481Y-71048998D01*
X106719833Y-71029093D01*
X106724412Y-71015268D01*
X106730411Y-71004772D01*
X106734864Y-70998811D01*
X106746150Y-70984691D01*
X106756699Y-70974029D01*
X106768107Y-70967892D01*
X106781970Y-70967343D01*
X106799886Y-70973448D01*
G37*
X106149919Y-70974599D02*
X106218435Y-70986095D01*
X106271057Y-71003967D01*
X106305292Y-71027499D01*
X106314621Y-71040924D01*
X106324107Y-71072148D01*
X106317723Y-71100395D01*
X106297570Y-71127182D01*
X106266255Y-71139713D01*
X106220817Y-71138696D01*
X106185674Y-71131906D01*
X106107581Y-71118971D01*
X106027774Y-71117742D01*
X105938445Y-71128241D01*
X105913771Y-71132690D01*
X105830709Y-71156108D01*
X105765727Y-71190945D01*
X105719539Y-71236604D01*
X105692855Y-71292494D01*
X105687337Y-71321388D01*
X105690949Y-71380012D01*
X105714271Y-71431879D01*
X105755176Y-71475978D01*
X105811541Y-71511299D01*
X105881240Y-71536829D01*
X105962148Y-71551559D01*
X106052140Y-71554478D01*
X106149090Y-71544575D01*
X106154564Y-71543641D01*
X106193125Y-71536459D01*
X106214506Y-71529521D01*
X106223773Y-71519227D01*
X106225994Y-71501976D01*
X106226044Y-71492841D01*
X106226044Y-71454489D01*
X106157569Y-71454489D01*
X106097100Y-71450347D01*
X106055835Y-71437147D01*
X106031825Y-71413730D01*
X106023123Y-71378936D01*
X106023017Y-71374394D01*
X106028108Y-71344654D01*
X106045567Y-71323419D01*
X106078061Y-71309366D01*
X106128257Y-71301173D01*
X106176877Y-71298161D01*
X106247544Y-71296433D01*
X106298802Y-71299070D01*
X106333761Y-71308800D01*
X106355530Y-71328353D01*
X106367220Y-71360456D01*
X106371940Y-71407838D01*
X106372800Y-71470071D01*
X106371391Y-71539535D01*
X106367152Y-71586786D01*
X106360064Y-71612012D01*
X106358689Y-71613988D01*
X106319772Y-71645508D01*
X106262714Y-71670470D01*
X106191131Y-71688340D01*
X106108642Y-71698586D01*
X106018861Y-71700673D01*
X105925408Y-71694068D01*
X105870444Y-71685956D01*
X105784234Y-71661554D01*
X105704108Y-71621662D01*
X105637023Y-71569887D01*
X105626827Y-71559539D01*
X105593698Y-71516035D01*
X105563806Y-71462118D01*
X105540643Y-71405592D01*
X105527702Y-71354259D01*
X105526142Y-71334544D01*
X105532782Y-71293419D01*
X105550432Y-71242252D01*
X105575703Y-71188394D01*
X105605211Y-71139195D01*
X105631281Y-71106334D01*
X105692235Y-71057452D01*
X105771031Y-71018545D01*
X105864843Y-70990494D01*
X105970850Y-70974179D01*
X106068000Y-70970192D01*
X106149919Y-70974599D01*
G36*
X106149919Y-70974599D02*
G01*
X106218435Y-70986095D01*
X106271057Y-71003967D01*
X106305292Y-71027499D01*
X106314621Y-71040924D01*
X106324107Y-71072148D01*
X106317723Y-71100395D01*
X106297570Y-71127182D01*
X106266255Y-71139713D01*
X106220817Y-71138696D01*
X106185674Y-71131906D01*
X106107581Y-71118971D01*
X106027774Y-71117742D01*
X105938445Y-71128241D01*
X105913771Y-71132690D01*
X105830709Y-71156108D01*
X105765727Y-71190945D01*
X105719539Y-71236604D01*
X105692855Y-71292494D01*
X105687337Y-71321388D01*
X105690949Y-71380012D01*
X105714271Y-71431879D01*
X105755176Y-71475978D01*
X105811541Y-71511299D01*
X105881240Y-71536829D01*
X105962148Y-71551559D01*
X106052140Y-71554478D01*
X106149090Y-71544575D01*
X106154564Y-71543641D01*
X106193125Y-71536459D01*
X106214506Y-71529521D01*
X106223773Y-71519227D01*
X106225994Y-71501976D01*
X106226044Y-71492841D01*
X106226044Y-71454489D01*
X106157569Y-71454489D01*
X106097100Y-71450347D01*
X106055835Y-71437147D01*
X106031825Y-71413730D01*
X106023123Y-71378936D01*
X106023017Y-71374394D01*
X106028108Y-71344654D01*
X106045567Y-71323419D01*
X106078061Y-71309366D01*
X106128257Y-71301173D01*
X106176877Y-71298161D01*
X106247544Y-71296433D01*
X106298802Y-71299070D01*
X106333761Y-71308800D01*
X106355530Y-71328353D01*
X106367220Y-71360456D01*
X106371940Y-71407838D01*
X106372800Y-71470071D01*
X106371391Y-71539535D01*
X106367152Y-71586786D01*
X106360064Y-71612012D01*
X106358689Y-71613988D01*
X106319772Y-71645508D01*
X106262714Y-71670470D01*
X106191131Y-71688340D01*
X106108642Y-71698586D01*
X106018861Y-71700673D01*
X105925408Y-71694068D01*
X105870444Y-71685956D01*
X105784234Y-71661554D01*
X105704108Y-71621662D01*
X105637023Y-71569887D01*
X105626827Y-71559539D01*
X105593698Y-71516035D01*
X105563806Y-71462118D01*
X105540643Y-71405592D01*
X105527702Y-71354259D01*
X105526142Y-71334544D01*
X105532782Y-71293419D01*
X105550432Y-71242252D01*
X105575703Y-71188394D01*
X105605211Y-71139195D01*
X105631281Y-71106334D01*
X105692235Y-71057452D01*
X105771031Y-71018545D01*
X105864843Y-70990494D01*
X105970850Y-70974179D01*
X106068000Y-70970192D01*
X106149919Y-70974599D01*
G37*
X108330343Y-70969260D02*
X108406701Y-70970174D01*
X108465217Y-70972311D01*
X108508255Y-70976175D01*
X108538183Y-70982267D01*
X108557368Y-70991090D01*
X108568176Y-71003146D01*
X108572973Y-71018939D01*
X108574127Y-71038970D01*
X108574133Y-71041335D01*
X108573131Y-71063992D01*
X108568396Y-71081503D01*
X108557333Y-71094574D01*
X108537348Y-71103913D01*
X108505846Y-71110227D01*
X108460232Y-71114222D01*
X108397913Y-71116606D01*
X108316293Y-71118086D01*
X108291277Y-71118414D01*
X108049200Y-71121467D01*
X108045814Y-71186378D01*
X108042429Y-71251289D01*
X108210576Y-71251289D01*
X108276266Y-71251531D01*
X108323172Y-71252556D01*
X108355083Y-71254811D01*
X108375791Y-71258742D01*
X108389084Y-71264798D01*
X108398755Y-71273424D01*
X108398817Y-71273493D01*
X108416356Y-71307112D01*
X108415722Y-71343448D01*
X108397314Y-71374423D01*
X108393671Y-71377607D01*
X108380741Y-71385812D01*
X108363024Y-71391521D01*
X108336570Y-71395162D01*
X108297432Y-71397167D01*
X108241662Y-71397964D01*
X108205994Y-71398045D01*
X108043555Y-71398045D01*
X108043555Y-71556089D01*
X108290161Y-71556089D01*
X108371580Y-71556231D01*
X108433410Y-71556814D01*
X108478637Y-71558068D01*
X108510248Y-71560227D01*
X108531231Y-71563523D01*
X108544573Y-71568189D01*
X108553261Y-71574457D01*
X108555450Y-71576733D01*
X108571614Y-71608280D01*
X108572797Y-71644168D01*
X108559536Y-71675285D01*
X108549043Y-71685271D01*
X108538129Y-71690769D01*
X108521217Y-71695022D01*
X108495633Y-71698180D01*
X108458701Y-71700392D01*
X108407746Y-71701806D01*
X108340094Y-71702572D01*
X108253069Y-71702838D01*
X108233394Y-71702845D01*
X108144911Y-71702787D01*
X108076227Y-71702467D01*
X108024564Y-71701667D01*
X107987145Y-71700167D01*
X107961190Y-71697749D01*
X107943922Y-71694194D01*
X107932562Y-71689282D01*
X107924332Y-71682795D01*
X107919817Y-71678138D01*
X107913021Y-71669889D01*
X107907712Y-71659669D01*
X107903706Y-71644800D01*
X107900821Y-71622602D01*
X107898874Y-71590393D01*
X107897681Y-71545496D01*
X107897061Y-71485228D01*
X107896829Y-71406911D01*
X107896800Y-71340994D01*
X107896871Y-71248628D01*
X107897208Y-71176117D01*
X107897998Y-71120737D01*
X107899426Y-71079765D01*
X107901679Y-71050478D01*
X107904943Y-71030153D01*
X107909404Y-71016066D01*
X107915248Y-71005495D01*
X107920197Y-70998811D01*
X107943594Y-70969067D01*
X108233774Y-70969067D01*
X108330343Y-70969260D01*
G36*
X108330343Y-70969260D02*
G01*
X108406701Y-70970174D01*
X108465217Y-70972311D01*
X108508255Y-70976175D01*
X108538183Y-70982267D01*
X108557368Y-70991090D01*
X108568176Y-71003146D01*
X108572973Y-71018939D01*
X108574127Y-71038970D01*
X108574133Y-71041335D01*
X108573131Y-71063992D01*
X108568396Y-71081503D01*
X108557333Y-71094574D01*
X108537348Y-71103913D01*
X108505846Y-71110227D01*
X108460232Y-71114222D01*
X108397913Y-71116606D01*
X108316293Y-71118086D01*
X108291277Y-71118414D01*
X108049200Y-71121467D01*
X108045814Y-71186378D01*
X108042429Y-71251289D01*
X108210576Y-71251289D01*
X108276266Y-71251531D01*
X108323172Y-71252556D01*
X108355083Y-71254811D01*
X108375791Y-71258742D01*
X108389084Y-71264798D01*
X108398755Y-71273424D01*
X108398817Y-71273493D01*
X108416356Y-71307112D01*
X108415722Y-71343448D01*
X108397314Y-71374423D01*
X108393671Y-71377607D01*
X108380741Y-71385812D01*
X108363024Y-71391521D01*
X108336570Y-71395162D01*
X108297432Y-71397167D01*
X108241662Y-71397964D01*
X108205994Y-71398045D01*
X108043555Y-71398045D01*
X108043555Y-71556089D01*
X108290161Y-71556089D01*
X108371580Y-71556231D01*
X108433410Y-71556814D01*
X108478637Y-71558068D01*
X108510248Y-71560227D01*
X108531231Y-71563523D01*
X108544573Y-71568189D01*
X108553261Y-71574457D01*
X108555450Y-71576733D01*
X108571614Y-71608280D01*
X108572797Y-71644168D01*
X108559536Y-71675285D01*
X108549043Y-71685271D01*
X108538129Y-71690769D01*
X108521217Y-71695022D01*
X108495633Y-71698180D01*
X108458701Y-71700392D01*
X108407746Y-71701806D01*
X108340094Y-71702572D01*
X108253069Y-71702838D01*
X108233394Y-71702845D01*
X108144911Y-71702787D01*
X108076227Y-71702467D01*
X108024564Y-71701667D01*
X107987145Y-71700167D01*
X107961190Y-71697749D01*
X107943922Y-71694194D01*
X107932562Y-71689282D01*
X107924332Y-71682795D01*
X107919817Y-71678138D01*
X107913021Y-71669889D01*
X107907712Y-71659669D01*
X107903706Y-71644800D01*
X107900821Y-71622602D01*
X107898874Y-71590393D01*
X107897681Y-71545496D01*
X107897061Y-71485228D01*
X107896829Y-71406911D01*
X107896800Y-71340994D01*
X107896871Y-71248628D01*
X107897208Y-71176117D01*
X107897998Y-71120737D01*
X107899426Y-71079765D01*
X107901679Y-71050478D01*
X107904943Y-71030153D01*
X107909404Y-71016066D01*
X107915248Y-71005495D01*
X107920197Y-70998811D01*
X107943594Y-70969067D01*
X108233774Y-70969067D01*
X108330343Y-70969260D01*
G37*
X103387206Y-70969146D02*
X103456614Y-70969518D01*
X103509003Y-70970385D01*
X103547153Y-70971946D01*
X103573841Y-70974403D01*
X103591847Y-70977957D01*
X103603951Y-70982810D01*
X103612931Y-70989161D01*
X103616182Y-70992084D01*
X103635957Y-71023142D01*
X103639518Y-71058828D01*
X103626509Y-71090510D01*
X103620494Y-71096913D01*
X103610765Y-71103121D01*
X103595099Y-71107910D01*
X103570592Y-71111514D01*
X103534339Y-71114164D01*
X103483435Y-71116095D01*
X103414974Y-71117539D01*
X103352383Y-71118418D01*
X103104666Y-71121467D01*
X103101281Y-71186378D01*
X103097895Y-71251289D01*
X103266042Y-71251289D01*
X103339041Y-71251919D01*
X103392483Y-71254553D01*
X103429372Y-71260309D01*
X103452712Y-71270304D01*
X103465506Y-71285656D01*
X103470758Y-71307482D01*
X103471555Y-71327738D01*
X103469077Y-71352592D01*
X103459723Y-71370906D01*
X103440617Y-71383637D01*
X103408882Y-71391741D01*
X103361641Y-71396176D01*
X103296017Y-71397899D01*
X103260199Y-71398045D01*
X103099022Y-71398045D01*
X103099022Y-71556089D01*
X103347378Y-71556089D01*
X103428787Y-71556202D01*
X103490658Y-71556712D01*
X103536032Y-71557870D01*
X103567946Y-71559930D01*
X103589441Y-71563146D01*
X103603557Y-71567772D01*
X103613332Y-71574059D01*
X103618311Y-71578667D01*
X103635390Y-71605560D01*
X103640889Y-71629467D01*
X103633037Y-71658667D01*
X103618311Y-71680267D01*
X103610454Y-71687066D01*
X103600312Y-71692346D01*
X103585156Y-71696298D01*
X103562259Y-71699113D01*
X103528891Y-71700982D01*
X103482325Y-71702098D01*
X103419833Y-71702651D01*
X103338686Y-71702833D01*
X103296578Y-71702845D01*
X103206402Y-71702765D01*
X103136076Y-71702398D01*
X103082871Y-71701552D01*
X103044060Y-71700036D01*
X103016913Y-71697659D01*
X102998702Y-71694229D01*
X102986700Y-71689554D01*
X102978178Y-71683444D01*
X102974844Y-71680267D01*
X102968245Y-71672670D01*
X102963073Y-71662870D01*
X102959154Y-71648239D01*
X102956316Y-71626152D01*
X102954385Y-71593982D01*
X102953188Y-71549103D01*
X102952552Y-71488889D01*
X102952303Y-71410713D01*
X102952266Y-71337923D01*
X102952300Y-71244707D01*
X102952535Y-71171431D01*
X102953170Y-71115458D01*
X102954406Y-71074151D01*
X102956444Y-71044872D01*
X102959483Y-71024984D01*
X102963723Y-71011850D01*
X102969365Y-71002832D01*
X102976609Y-70995293D01*
X102978394Y-70993612D01*
X102987055Y-70986172D01*
X102997118Y-70980409D01*
X103011375Y-70976112D01*
X103032617Y-70973064D01*
X103063636Y-70971051D01*
X103107223Y-70969860D01*
X103166169Y-70969275D01*
X103243266Y-70969083D01*
X103297999Y-70969067D01*
X103387206Y-70969146D01*
G36*
X103387206Y-70969146D02*
G01*
X103456614Y-70969518D01*
X103509003Y-70970385D01*
X103547153Y-70971946D01*
X103573841Y-70974403D01*
X103591847Y-70977957D01*
X103603951Y-70982810D01*
X103612931Y-70989161D01*
X103616182Y-70992084D01*
X103635957Y-71023142D01*
X103639518Y-71058828D01*
X103626509Y-71090510D01*
X103620494Y-71096913D01*
X103610765Y-71103121D01*
X103595099Y-71107910D01*
X103570592Y-71111514D01*
X103534339Y-71114164D01*
X103483435Y-71116095D01*
X103414974Y-71117539D01*
X103352383Y-71118418D01*
X103104666Y-71121467D01*
X103101281Y-71186378D01*
X103097895Y-71251289D01*
X103266042Y-71251289D01*
X103339041Y-71251919D01*
X103392483Y-71254553D01*
X103429372Y-71260309D01*
X103452712Y-71270304D01*
X103465506Y-71285656D01*
X103470758Y-71307482D01*
X103471555Y-71327738D01*
X103469077Y-71352592D01*
X103459723Y-71370906D01*
X103440617Y-71383637D01*
X103408882Y-71391741D01*
X103361641Y-71396176D01*
X103296017Y-71397899D01*
X103260199Y-71398045D01*
X103099022Y-71398045D01*
X103099022Y-71556089D01*
X103347378Y-71556089D01*
X103428787Y-71556202D01*
X103490658Y-71556712D01*
X103536032Y-71557870D01*
X103567946Y-71559930D01*
X103589441Y-71563146D01*
X103603557Y-71567772D01*
X103613332Y-71574059D01*
X103618311Y-71578667D01*
X103635390Y-71605560D01*
X103640889Y-71629467D01*
X103633037Y-71658667D01*
X103618311Y-71680267D01*
X103610454Y-71687066D01*
X103600312Y-71692346D01*
X103585156Y-71696298D01*
X103562259Y-71699113D01*
X103528891Y-71700982D01*
X103482325Y-71702098D01*
X103419833Y-71702651D01*
X103338686Y-71702833D01*
X103296578Y-71702845D01*
X103206402Y-71702765D01*
X103136076Y-71702398D01*
X103082871Y-71701552D01*
X103044060Y-71700036D01*
X103016913Y-71697659D01*
X102998702Y-71694229D01*
X102986700Y-71689554D01*
X102978178Y-71683444D01*
X102974844Y-71680267D01*
X102968245Y-71672670D01*
X102963073Y-71662870D01*
X102959154Y-71648239D01*
X102956316Y-71626152D01*
X102954385Y-71593982D01*
X102953188Y-71549103D01*
X102952552Y-71488889D01*
X102952303Y-71410713D01*
X102952266Y-71337923D01*
X102952300Y-71244707D01*
X102952535Y-71171431D01*
X102953170Y-71115458D01*
X102954406Y-71074151D01*
X102956444Y-71044872D01*
X102959483Y-71024984D01*
X102963723Y-71011850D01*
X102969365Y-71002832D01*
X102976609Y-70995293D01*
X102978394Y-70993612D01*
X102987055Y-70986172D01*
X102997118Y-70980409D01*
X103011375Y-70976112D01*
X103032617Y-70973064D01*
X103063636Y-70971051D01*
X103107223Y-70969860D01*
X103166169Y-70969275D01*
X103243266Y-70969083D01*
X103297999Y-70969067D01*
X103387206Y-70969146D01*
G37*
X111844665Y-70971034D02*
X111864255Y-70978035D01*
X111865010Y-70978377D01*
X111891613Y-70998678D01*
X111906270Y-71019561D01*
X111909138Y-71029352D01*
X111908996Y-71042361D01*
X111904961Y-71060895D01*
X111896146Y-71087257D01*
X111881669Y-71123752D01*
X111860645Y-71172687D01*
X111832188Y-71236365D01*
X111795415Y-71317093D01*
X111775175Y-71361216D01*
X111738625Y-71439985D01*
X111704315Y-71512423D01*
X111673552Y-71575880D01*
X111647648Y-71627708D01*
X111627910Y-71665259D01*
X111615650Y-71685884D01*
X111613224Y-71688733D01*
X111582183Y-71701302D01*
X111547121Y-71699619D01*
X111519000Y-71684332D01*
X111517854Y-71683089D01*
X111506668Y-71666154D01*
X111487904Y-71633170D01*
X111463875Y-71588380D01*
X111436897Y-71536032D01*
X111427201Y-71516742D01*
X111354014Y-71370150D01*
X111274240Y-71529393D01*
X111245767Y-71584415D01*
X111219350Y-71632132D01*
X111197148Y-71668893D01*
X111181319Y-71691044D01*
X111175954Y-71695741D01*
X111134257Y-71702102D01*
X111099849Y-71688733D01*
X111089728Y-71674446D01*
X111072214Y-71642692D01*
X111048735Y-71596597D01*
X111020720Y-71539285D01*
X110989599Y-71473880D01*
X110956799Y-71403507D01*
X110923750Y-71331291D01*
X110891881Y-71260355D01*
X110862619Y-71193825D01*
X110837395Y-71134826D01*
X110817636Y-71086481D01*
X110804772Y-71051915D01*
X110800231Y-71034253D01*
X110800277Y-71033613D01*
X110811326Y-71011388D01*
X110833410Y-70988753D01*
X110834710Y-70987768D01*
X110861853Y-70972425D01*
X110886958Y-70972574D01*
X110896368Y-70975466D01*
X110907834Y-70981718D01*
X110920010Y-70994014D01*
X110934357Y-71014908D01*
X110952336Y-71046949D01*
X110975407Y-71092688D01*
X111005030Y-71154677D01*
X111031745Y-71211898D01*
X111062480Y-71278226D01*
X111090021Y-71337874D01*
X111112938Y-71387725D01*
X111129798Y-71424664D01*
X111139173Y-71445573D01*
X111140540Y-71448845D01*
X111146689Y-71443497D01*
X111160822Y-71421109D01*
X111181057Y-71384946D01*
X111205515Y-71338277D01*
X111215248Y-71319022D01*
X111248217Y-71254004D01*
X111273643Y-71206654D01*
X111293612Y-71174219D01*
X111310210Y-71153946D01*
X111325524Y-71143082D01*
X111341640Y-71138875D01*
X111352143Y-71138400D01*
X111370670Y-71140042D01*
X111386904Y-71146831D01*
X111403035Y-71161566D01*
X111421251Y-71187044D01*
X111443739Y-71226061D01*
X111472689Y-71281414D01*
X111488662Y-71312903D01*
X111514570Y-71363087D01*
X111537167Y-71404704D01*
X111554458Y-71434242D01*
X111564450Y-71448189D01*
X111565809Y-71448770D01*
X111572261Y-71437793D01*
X111586708Y-71409290D01*
X111607703Y-71366244D01*
X111633797Y-71311638D01*
X111663546Y-71248454D01*
X111678180Y-71217071D01*
X111716250Y-71136078D01*
X111746905Y-71073756D01*
X111771737Y-71028071D01*
X111792337Y-70996989D01*
X111810298Y-70978478D01*
X111827210Y-70970504D01*
X111844665Y-70971034D01*
G36*
X111844665Y-70971034D02*
G01*
X111864255Y-70978035D01*
X111865010Y-70978377D01*
X111891613Y-70998678D01*
X111906270Y-71019561D01*
X111909138Y-71029352D01*
X111908996Y-71042361D01*
X111904961Y-71060895D01*
X111896146Y-71087257D01*
X111881669Y-71123752D01*
X111860645Y-71172687D01*
X111832188Y-71236365D01*
X111795415Y-71317093D01*
X111775175Y-71361216D01*
X111738625Y-71439985D01*
X111704315Y-71512423D01*
X111673552Y-71575880D01*
X111647648Y-71627708D01*
X111627910Y-71665259D01*
X111615650Y-71685884D01*
X111613224Y-71688733D01*
X111582183Y-71701302D01*
X111547121Y-71699619D01*
X111519000Y-71684332D01*
X111517854Y-71683089D01*
X111506668Y-71666154D01*
X111487904Y-71633170D01*
X111463875Y-71588380D01*
X111436897Y-71536032D01*
X111427201Y-71516742D01*
X111354014Y-71370150D01*
X111274240Y-71529393D01*
X111245767Y-71584415D01*
X111219350Y-71632132D01*
X111197148Y-71668893D01*
X111181319Y-71691044D01*
X111175954Y-71695741D01*
X111134257Y-71702102D01*
X111099849Y-71688733D01*
X111089728Y-71674446D01*
X111072214Y-71642692D01*
X111048735Y-71596597D01*
X111020720Y-71539285D01*
X110989599Y-71473880D01*
X110956799Y-71403507D01*
X110923750Y-71331291D01*
X110891881Y-71260355D01*
X110862619Y-71193825D01*
X110837395Y-71134826D01*
X110817636Y-71086481D01*
X110804772Y-71051915D01*
X110800231Y-71034253D01*
X110800277Y-71033613D01*
X110811326Y-71011388D01*
X110833410Y-70988753D01*
X110834710Y-70987768D01*
X110861853Y-70972425D01*
X110886958Y-70972574D01*
X110896368Y-70975466D01*
X110907834Y-70981718D01*
X110920010Y-70994014D01*
X110934357Y-71014908D01*
X110952336Y-71046949D01*
X110975407Y-71092688D01*
X111005030Y-71154677D01*
X111031745Y-71211898D01*
X111062480Y-71278226D01*
X111090021Y-71337874D01*
X111112938Y-71387725D01*
X111129798Y-71424664D01*
X111139173Y-71445573D01*
X111140540Y-71448845D01*
X111146689Y-71443497D01*
X111160822Y-71421109D01*
X111181057Y-71384946D01*
X111205515Y-71338277D01*
X111215248Y-71319022D01*
X111248217Y-71254004D01*
X111273643Y-71206654D01*
X111293612Y-71174219D01*
X111310210Y-71153946D01*
X111325524Y-71143082D01*
X111341640Y-71138875D01*
X111352143Y-71138400D01*
X111370670Y-71140042D01*
X111386904Y-71146831D01*
X111403035Y-71161566D01*
X111421251Y-71187044D01*
X111443739Y-71226061D01*
X111472689Y-71281414D01*
X111488662Y-71312903D01*
X111514570Y-71363087D01*
X111537167Y-71404704D01*
X111554458Y-71434242D01*
X111564450Y-71448189D01*
X111565809Y-71448770D01*
X111572261Y-71437793D01*
X111586708Y-71409290D01*
X111607703Y-71366244D01*
X111633797Y-71311638D01*
X111663546Y-71248454D01*
X111678180Y-71217071D01*
X111716250Y-71136078D01*
X111746905Y-71073756D01*
X111771737Y-71028071D01*
X111792337Y-70996989D01*
X111810298Y-70978478D01*
X111827210Y-70970504D01*
X111844665Y-70971034D01*
G37*
X104408297Y-70970351D02*
X104483112Y-70975581D01*
X104552694Y-70983750D01*
X104612998Y-70994550D01*
X104659980Y-71007673D01*
X104689594Y-71022813D01*
X104694140Y-71027269D01*
X104709946Y-71061850D01*
X104705153Y-71097351D01*
X104680636Y-71127725D01*
X104679466Y-71128596D01*
X104665046Y-71137954D01*
X104649992Y-71142876D01*
X104628995Y-71143473D01*
X104596743Y-71139861D01*
X104547927Y-71132154D01*
X104544000Y-71131505D01*
X104471261Y-71122569D01*
X104392783Y-71118161D01*
X104314073Y-71118119D01*
X104240639Y-71122279D01*
X104177989Y-71130479D01*
X104131630Y-71142557D01*
X104128584Y-71143771D01*
X104094952Y-71162615D01*
X104083136Y-71181685D01*
X104092386Y-71200439D01*
X104121953Y-71218337D01*
X104171089Y-71234837D01*
X104239043Y-71249396D01*
X104284355Y-71256406D01*
X104378544Y-71269889D01*
X104453456Y-71282214D01*
X104512283Y-71294449D01*
X104558215Y-71307661D01*
X104594445Y-71322917D01*
X104624162Y-71341285D01*
X104650558Y-71363831D01*
X104671770Y-71385971D01*
X104696935Y-71416819D01*
X104709319Y-71443345D01*
X104713192Y-71476026D01*
X104713333Y-71487995D01*
X104710424Y-71527712D01*
X104698798Y-71557259D01*
X104678677Y-71583486D01*
X104637784Y-71623576D01*
X104592183Y-71654149D01*
X104538487Y-71676203D01*
X104473308Y-71690735D01*
X104393256Y-71698741D01*
X104294943Y-71701218D01*
X104278711Y-71701177D01*
X104213151Y-71699818D01*
X104148134Y-71696730D01*
X104090748Y-71692356D01*
X104048078Y-71687140D01*
X104044628Y-71686541D01*
X104002204Y-71676491D01*
X103966220Y-71663796D01*
X103945850Y-71652190D01*
X103926893Y-71621572D01*
X103925573Y-71585918D01*
X103941915Y-71554144D01*
X103945571Y-71550551D01*
X103960685Y-71539876D01*
X103979585Y-71535276D01*
X104008838Y-71536059D01*
X104044349Y-71540127D01*
X104084030Y-71543762D01*
X104139655Y-71546828D01*
X104204594Y-71549053D01*
X104272215Y-71550164D01*
X104290000Y-71550237D01*
X104357872Y-71549964D01*
X104407546Y-71548646D01*
X104443390Y-71545827D01*
X104469776Y-71541050D01*
X104491074Y-71533857D01*
X104503874Y-71527867D01*
X104532000Y-71511233D01*
X104549932Y-71496168D01*
X104552553Y-71491897D01*
X104547024Y-71474263D01*
X104520740Y-71457192D01*
X104475522Y-71441458D01*
X104413192Y-71427838D01*
X104394829Y-71424804D01*
X104298910Y-71409738D01*
X104222359Y-71397146D01*
X104162220Y-71386111D01*
X104115540Y-71375720D01*
X104079363Y-71365056D01*
X104050735Y-71353205D01*
X104026702Y-71339251D01*
X104004308Y-71322281D01*
X103980598Y-71301378D01*
X103972620Y-71294049D01*
X103944647Y-71266699D01*
X103929840Y-71245029D01*
X103924048Y-71220232D01*
X103923111Y-71188983D01*
X103933425Y-71127705D01*
X103964248Y-71075640D01*
X104015405Y-71032958D01*
X104086717Y-70999825D01*
X104137600Y-70984964D01*
X104192900Y-70975366D01*
X104259147Y-70969936D01*
X104332294Y-70968367D01*
X104408297Y-70970351D01*
G36*
X104408297Y-70970351D02*
G01*
X104483112Y-70975581D01*
X104552694Y-70983750D01*
X104612998Y-70994550D01*
X104659980Y-71007673D01*
X104689594Y-71022813D01*
X104694140Y-71027269D01*
X104709946Y-71061850D01*
X104705153Y-71097351D01*
X104680636Y-71127725D01*
X104679466Y-71128596D01*
X104665046Y-71137954D01*
X104649992Y-71142876D01*
X104628995Y-71143473D01*
X104596743Y-71139861D01*
X104547927Y-71132154D01*
X104544000Y-71131505D01*
X104471261Y-71122569D01*
X104392783Y-71118161D01*
X104314073Y-71118119D01*
X104240639Y-71122279D01*
X104177989Y-71130479D01*
X104131630Y-71142557D01*
X104128584Y-71143771D01*
X104094952Y-71162615D01*
X104083136Y-71181685D01*
X104092386Y-71200439D01*
X104121953Y-71218337D01*
X104171089Y-71234837D01*
X104239043Y-71249396D01*
X104284355Y-71256406D01*
X104378544Y-71269889D01*
X104453456Y-71282214D01*
X104512283Y-71294449D01*
X104558215Y-71307661D01*
X104594445Y-71322917D01*
X104624162Y-71341285D01*
X104650558Y-71363831D01*
X104671770Y-71385971D01*
X104696935Y-71416819D01*
X104709319Y-71443345D01*
X104713192Y-71476026D01*
X104713333Y-71487995D01*
X104710424Y-71527712D01*
X104698798Y-71557259D01*
X104678677Y-71583486D01*
X104637784Y-71623576D01*
X104592183Y-71654149D01*
X104538487Y-71676203D01*
X104473308Y-71690735D01*
X104393256Y-71698741D01*
X104294943Y-71701218D01*
X104278711Y-71701177D01*
X104213151Y-71699818D01*
X104148134Y-71696730D01*
X104090748Y-71692356D01*
X104048078Y-71687140D01*
X104044628Y-71686541D01*
X104002204Y-71676491D01*
X103966220Y-71663796D01*
X103945850Y-71652190D01*
X103926893Y-71621572D01*
X103925573Y-71585918D01*
X103941915Y-71554144D01*
X103945571Y-71550551D01*
X103960685Y-71539876D01*
X103979585Y-71535276D01*
X104008838Y-71536059D01*
X104044349Y-71540127D01*
X104084030Y-71543762D01*
X104139655Y-71546828D01*
X104204594Y-71549053D01*
X104272215Y-71550164D01*
X104290000Y-71550237D01*
X104357872Y-71549964D01*
X104407546Y-71548646D01*
X104443390Y-71545827D01*
X104469776Y-71541050D01*
X104491074Y-71533857D01*
X104503874Y-71527867D01*
X104532000Y-71511233D01*
X104549932Y-71496168D01*
X104552553Y-71491897D01*
X104547024Y-71474263D01*
X104520740Y-71457192D01*
X104475522Y-71441458D01*
X104413192Y-71427838D01*
X104394829Y-71424804D01*
X104298910Y-71409738D01*
X104222359Y-71397146D01*
X104162220Y-71386111D01*
X104115540Y-71375720D01*
X104079363Y-71365056D01*
X104050735Y-71353205D01*
X104026702Y-71339251D01*
X104004308Y-71322281D01*
X103980598Y-71301378D01*
X103972620Y-71294049D01*
X103944647Y-71266699D01*
X103929840Y-71245029D01*
X103924048Y-71220232D01*
X103923111Y-71188983D01*
X103933425Y-71127705D01*
X103964248Y-71075640D01*
X104015405Y-71032958D01*
X104086717Y-70999825D01*
X104137600Y-70984964D01*
X104192900Y-70975366D01*
X104259147Y-70969936D01*
X104332294Y-70968367D01*
X104408297Y-70970351D01*
G37*
X108428429Y-66649071D02*
X108588570Y-66670245D01*
X108752510Y-66710385D01*
X108922313Y-66769889D01*
X109100043Y-66849154D01*
X109111310Y-66854699D01*
X109169005Y-66882725D01*
X109220552Y-66906802D01*
X109262191Y-66925249D01*
X109290162Y-66936386D01*
X109299733Y-66938933D01*
X109318950Y-66943941D01*
X109323561Y-66948147D01*
X109318458Y-66958580D01*
X109302418Y-66984868D01*
X109277288Y-67024257D01*
X109244914Y-67073991D01*
X109207143Y-67131315D01*
X109165822Y-67193476D01*
X109122798Y-67257718D01*
X109079917Y-67321285D01*
X109039026Y-67381425D01*
X109001971Y-67435380D01*
X108970600Y-67480397D01*
X108946759Y-67513721D01*
X108932294Y-67532597D01*
X108930309Y-67534787D01*
X108920191Y-67530138D01*
X108897850Y-67512962D01*
X108867280Y-67486440D01*
X108851536Y-67471964D01*
X108755047Y-67396682D01*
X108648336Y-67341241D01*
X108532832Y-67306141D01*
X108409962Y-67291880D01*
X108340561Y-67293051D01*
X108219423Y-67310212D01*
X108110205Y-67346094D01*
X108012582Y-67400959D01*
X107926228Y-67475070D01*
X107850815Y-67568688D01*
X107786018Y-67682076D01*
X107748601Y-67768667D01*
X107704748Y-67904366D01*
X107672428Y-68051850D01*
X107651557Y-68207314D01*
X107642051Y-68366956D01*
X107643827Y-68526973D01*
X107656803Y-68683561D01*
X107680894Y-68832918D01*
X107716018Y-68971240D01*
X107762092Y-69094724D01*
X107778373Y-69128978D01*
X107846620Y-69243064D01*
X107927079Y-69339557D01*
X108018570Y-69417670D01*
X108119911Y-69476617D01*
X108229920Y-69515612D01*
X108347415Y-69533868D01*
X108388883Y-69535211D01*
X108510441Y-69524290D01*
X108630878Y-69491474D01*
X108748666Y-69437439D01*
X108862277Y-69362865D01*
X108953685Y-69284539D01*
X109000215Y-69240008D01*
X109181483Y-69537271D01*
X109226580Y-69611433D01*
X109267819Y-69679646D01*
X109303735Y-69739459D01*
X109332866Y-69788420D01*
X109353750Y-69824079D01*
X109364924Y-69843984D01*
X109366375Y-69847079D01*
X109358146Y-69856718D01*
X109332567Y-69873999D01*
X109292873Y-69897283D01*
X109242297Y-69924934D01*
X109184074Y-69955315D01*
X109121437Y-69986790D01*
X109057621Y-70017722D01*
X108995860Y-70046473D01*
X108939388Y-70071408D01*
X108891438Y-70090889D01*
X108867986Y-70099318D01*
X108734221Y-70137133D01*
X108596327Y-70162136D01*
X108448622Y-70175140D01*
X108321833Y-70177468D01*
X108253878Y-70176373D01*
X108188277Y-70174275D01*
X108130847Y-70171434D01*
X108087403Y-70168106D01*
X108073298Y-70166422D01*
X107934284Y-70137587D01*
X107792757Y-70092468D01*
X107655275Y-70033750D01*
X107528394Y-69964120D01*
X107450889Y-69911441D01*
X107323481Y-69803239D01*
X107205178Y-69676671D01*
X107098172Y-69534866D01*
X107004652Y-69380951D01*
X106926810Y-69218053D01*
X106882956Y-69100756D01*
X106832708Y-68917128D01*
X106799209Y-68722581D01*
X106782449Y-68521325D01*
X106782416Y-68317568D01*
X106799101Y-68115521D01*
X106832493Y-67919392D01*
X106882580Y-67733391D01*
X106886397Y-67721803D01*
X106949281Y-67559750D01*
X107026028Y-67411832D01*
X107119242Y-67273865D01*
X107231527Y-67141661D01*
X107275392Y-67096399D01*
X107411534Y-66972457D01*
X107551491Y-66869915D01*
X107697411Y-66787656D01*
X107851442Y-66724564D01*
X108015732Y-66679523D01*
X108111289Y-66662033D01*
X108270023Y-66646466D01*
X108428429Y-66649071D01*
G36*
X108428429Y-66649071D02*
G01*
X108588570Y-66670245D01*
X108752510Y-66710385D01*
X108922313Y-66769889D01*
X109100043Y-66849154D01*
X109111310Y-66854699D01*
X109169005Y-66882725D01*
X109220552Y-66906802D01*
X109262191Y-66925249D01*
X109290162Y-66936386D01*
X109299733Y-66938933D01*
X109318950Y-66943941D01*
X109323561Y-66948147D01*
X109318458Y-66958580D01*
X109302418Y-66984868D01*
X109277288Y-67024257D01*
X109244914Y-67073991D01*
X109207143Y-67131315D01*
X109165822Y-67193476D01*
X109122798Y-67257718D01*
X109079917Y-67321285D01*
X109039026Y-67381425D01*
X109001971Y-67435380D01*
X108970600Y-67480397D01*
X108946759Y-67513721D01*
X108932294Y-67532597D01*
X108930309Y-67534787D01*
X108920191Y-67530138D01*
X108897850Y-67512962D01*
X108867280Y-67486440D01*
X108851536Y-67471964D01*
X108755047Y-67396682D01*
X108648336Y-67341241D01*
X108532832Y-67306141D01*
X108409962Y-67291880D01*
X108340561Y-67293051D01*
X108219423Y-67310212D01*
X108110205Y-67346094D01*
X108012582Y-67400959D01*
X107926228Y-67475070D01*
X107850815Y-67568688D01*
X107786018Y-67682076D01*
X107748601Y-67768667D01*
X107704748Y-67904366D01*
X107672428Y-68051850D01*
X107651557Y-68207314D01*
X107642051Y-68366956D01*
X107643827Y-68526973D01*
X107656803Y-68683561D01*
X107680894Y-68832918D01*
X107716018Y-68971240D01*
X107762092Y-69094724D01*
X107778373Y-69128978D01*
X107846620Y-69243064D01*
X107927079Y-69339557D01*
X108018570Y-69417670D01*
X108119911Y-69476617D01*
X108229920Y-69515612D01*
X108347415Y-69533868D01*
X108388883Y-69535211D01*
X108510441Y-69524290D01*
X108630878Y-69491474D01*
X108748666Y-69437439D01*
X108862277Y-69362865D01*
X108953685Y-69284539D01*
X109000215Y-69240008D01*
X109181483Y-69537271D01*
X109226580Y-69611433D01*
X109267819Y-69679646D01*
X109303735Y-69739459D01*
X109332866Y-69788420D01*
X109353750Y-69824079D01*
X109364924Y-69843984D01*
X109366375Y-69847079D01*
X109358146Y-69856718D01*
X109332567Y-69873999D01*
X109292873Y-69897283D01*
X109242297Y-69924934D01*
X109184074Y-69955315D01*
X109121437Y-69986790D01*
X109057621Y-70017722D01*
X108995860Y-70046473D01*
X108939388Y-70071408D01*
X108891438Y-70090889D01*
X108867986Y-70099318D01*
X108734221Y-70137133D01*
X108596327Y-70162136D01*
X108448622Y-70175140D01*
X108321833Y-70177468D01*
X108253878Y-70176373D01*
X108188277Y-70174275D01*
X108130847Y-70171434D01*
X108087403Y-70168106D01*
X108073298Y-70166422D01*
X107934284Y-70137587D01*
X107792757Y-70092468D01*
X107655275Y-70033750D01*
X107528394Y-69964120D01*
X107450889Y-69911441D01*
X107323481Y-69803239D01*
X107205178Y-69676671D01*
X107098172Y-69534866D01*
X107004652Y-69380951D01*
X106926810Y-69218053D01*
X106882956Y-69100756D01*
X106832708Y-68917128D01*
X106799209Y-68722581D01*
X106782449Y-68521325D01*
X106782416Y-68317568D01*
X106799101Y-68115521D01*
X106832493Y-67919392D01*
X106882580Y-67733391D01*
X106886397Y-67721803D01*
X106949281Y-67559750D01*
X107026028Y-67411832D01*
X107119242Y-67273865D01*
X107231527Y-67141661D01*
X107275392Y-67096399D01*
X107411534Y-66972457D01*
X107551491Y-66869915D01*
X107697411Y-66787656D01*
X107851442Y-66724564D01*
X108015732Y-66679523D01*
X108111289Y-66662033D01*
X108270023Y-66646466D01*
X108428429Y-66649071D01*
G37*
X114286507Y-68172245D02*
X114286526Y-68406662D01*
X114286552Y-68619603D01*
X114286625Y-68812168D01*
X114286782Y-68985459D01*
X114287064Y-69140576D01*
X114287509Y-69278620D01*
X114288156Y-69400692D01*
X114289045Y-69507894D01*
X114290213Y-69601326D01*
X114291701Y-69682090D01*
X114293546Y-69751286D01*
X114295789Y-69810015D01*
X114298469Y-69859379D01*
X114301623Y-69900478D01*
X114305292Y-69934413D01*
X114309513Y-69962286D01*
X114314327Y-69985198D01*
X114319773Y-70004249D01*
X114325888Y-70020540D01*
X114332712Y-70035173D01*
X114340285Y-70049249D01*
X114348645Y-70063868D01*
X114353839Y-70072974D01*
X114388104Y-70133689D01*
X113529955Y-70133689D01*
X113529955Y-70037733D01*
X113529224Y-69994370D01*
X113527272Y-69961205D01*
X113524463Y-69943424D01*
X113523221Y-69941778D01*
X113511799Y-69948662D01*
X113489084Y-69966505D01*
X113466385Y-69985879D01*
X113411800Y-70026614D01*
X113342321Y-70067617D01*
X113265270Y-70105123D01*
X113187965Y-70135364D01*
X113157113Y-70145012D01*
X113088616Y-70159578D01*
X113005764Y-70169539D01*
X112916371Y-70174583D01*
X112828248Y-70174396D01*
X112749207Y-70168666D01*
X112711511Y-70162858D01*
X112573414Y-70124797D01*
X112446113Y-70067073D01*
X112330292Y-69990211D01*
X112226637Y-69894739D01*
X112135833Y-69781179D01*
X112069031Y-69670381D01*
X112014164Y-69553625D01*
X111972163Y-69434276D01*
X111942167Y-69308283D01*
X111923311Y-69171594D01*
X111914732Y-69020158D01*
X111914006Y-68942711D01*
X111916100Y-68885934D01*
X112745217Y-68885934D01*
X112745424Y-68979002D01*
X112748337Y-69066692D01*
X112754000Y-69143772D01*
X112762455Y-69205009D01*
X112765038Y-69217350D01*
X112796840Y-69324633D01*
X112838498Y-69411658D01*
X112890363Y-69478642D01*
X112952781Y-69525805D01*
X113026100Y-69553365D01*
X113110669Y-69561541D01*
X113206835Y-69550551D01*
X113270311Y-69534829D01*
X113319454Y-69516639D01*
X113373583Y-69490791D01*
X113414244Y-69467089D01*
X113484800Y-69420721D01*
X113484800Y-68270530D01*
X113417392Y-68226962D01*
X113338867Y-68186040D01*
X113254681Y-68159389D01*
X113169557Y-68147465D01*
X113088216Y-68150722D01*
X113015380Y-68169615D01*
X112983426Y-68185184D01*
X112925501Y-68228181D01*
X112876544Y-68284953D01*
X112835390Y-68357575D01*
X112800874Y-68448121D01*
X112771833Y-68558666D01*
X112770552Y-68564533D01*
X112760381Y-68626788D01*
X112752739Y-68704594D01*
X112747670Y-68792720D01*
X112745217Y-68885934D01*
X111916100Y-68885934D01*
X111921857Y-68729895D01*
X111943802Y-68534059D01*
X111979786Y-68355332D01*
X112029759Y-68193845D01*
X112093668Y-68049726D01*
X112171462Y-67923106D01*
X112263089Y-67814115D01*
X112368497Y-67722883D01*
X112413662Y-67691932D01*
X112514611Y-67635785D01*
X112617901Y-67596174D01*
X112727989Y-67572014D01*
X112849330Y-67562219D01*
X112941836Y-67563265D01*
X113071490Y-67574231D01*
X113184084Y-67596046D01*
X113282875Y-67629714D01*
X113371121Y-67676236D01*
X113419986Y-67710448D01*
X113449353Y-67732362D01*
X113471043Y-67747333D01*
X113479253Y-67751733D01*
X113480868Y-67740904D01*
X113482159Y-67710251D01*
X113483138Y-67662526D01*
X113483817Y-67600479D01*
X113484210Y-67526862D01*
X113484330Y-67444427D01*
X113484188Y-67355925D01*
X113483797Y-67264107D01*
X113483171Y-67171724D01*
X113482320Y-67081528D01*
X113481260Y-66996271D01*
X113480001Y-66918703D01*
X113478556Y-66851576D01*
X113476938Y-66797641D01*
X113475161Y-66759650D01*
X113474669Y-66752667D01*
X113467092Y-66682251D01*
X113455531Y-66627102D01*
X113437792Y-66579981D01*
X113411682Y-66533647D01*
X113405415Y-66524067D01*
X113380983Y-66487378D01*
X114286311Y-66487378D01*
X114286507Y-68172245D01*
G36*
X114286507Y-68172245D02*
G01*
X114286526Y-68406662D01*
X114286552Y-68619603D01*
X114286625Y-68812168D01*
X114286782Y-68985459D01*
X114287064Y-69140576D01*
X114287509Y-69278620D01*
X114288156Y-69400692D01*
X114289045Y-69507894D01*
X114290213Y-69601326D01*
X114291701Y-69682090D01*
X114293546Y-69751286D01*
X114295789Y-69810015D01*
X114298469Y-69859379D01*
X114301623Y-69900478D01*
X114305292Y-69934413D01*
X114309513Y-69962286D01*
X114314327Y-69985198D01*
X114319773Y-70004249D01*
X114325888Y-70020540D01*
X114332712Y-70035173D01*
X114340285Y-70049249D01*
X114348645Y-70063868D01*
X114353839Y-70072974D01*
X114388104Y-70133689D01*
X113529955Y-70133689D01*
X113529955Y-70037733D01*
X113529224Y-69994370D01*
X113527272Y-69961205D01*
X113524463Y-69943424D01*
X113523221Y-69941778D01*
X113511799Y-69948662D01*
X113489084Y-69966505D01*
X113466385Y-69985879D01*
X113411800Y-70026614D01*
X113342321Y-70067617D01*
X113265270Y-70105123D01*
X113187965Y-70135364D01*
X113157113Y-70145012D01*
X113088616Y-70159578D01*
X113005764Y-70169539D01*
X112916371Y-70174583D01*
X112828248Y-70174396D01*
X112749207Y-70168666D01*
X112711511Y-70162858D01*
X112573414Y-70124797D01*
X112446113Y-70067073D01*
X112330292Y-69990211D01*
X112226637Y-69894739D01*
X112135833Y-69781179D01*
X112069031Y-69670381D01*
X112014164Y-69553625D01*
X111972163Y-69434276D01*
X111942167Y-69308283D01*
X111923311Y-69171594D01*
X111914732Y-69020158D01*
X111914006Y-68942711D01*
X111916100Y-68885934D01*
X112745217Y-68885934D01*
X112745424Y-68979002D01*
X112748337Y-69066692D01*
X112754000Y-69143772D01*
X112762455Y-69205009D01*
X112765038Y-69217350D01*
X112796840Y-69324633D01*
X112838498Y-69411658D01*
X112890363Y-69478642D01*
X112952781Y-69525805D01*
X113026100Y-69553365D01*
X113110669Y-69561541D01*
X113206835Y-69550551D01*
X113270311Y-69534829D01*
X113319454Y-69516639D01*
X113373583Y-69490791D01*
X113414244Y-69467089D01*
X113484800Y-69420721D01*
X113484800Y-68270530D01*
X113417392Y-68226962D01*
X113338867Y-68186040D01*
X113254681Y-68159389D01*
X113169557Y-68147465D01*
X113088216Y-68150722D01*
X113015380Y-68169615D01*
X112983426Y-68185184D01*
X112925501Y-68228181D01*
X112876544Y-68284953D01*
X112835390Y-68357575D01*
X112800874Y-68448121D01*
X112771833Y-68558666D01*
X112770552Y-68564533D01*
X112760381Y-68626788D01*
X112752739Y-68704594D01*
X112747670Y-68792720D01*
X112745217Y-68885934D01*
X111916100Y-68885934D01*
X111921857Y-68729895D01*
X111943802Y-68534059D01*
X111979786Y-68355332D01*
X112029759Y-68193845D01*
X112093668Y-68049726D01*
X112171462Y-67923106D01*
X112263089Y-67814115D01*
X112368497Y-67722883D01*
X112413662Y-67691932D01*
X112514611Y-67635785D01*
X112617901Y-67596174D01*
X112727989Y-67572014D01*
X112849330Y-67562219D01*
X112941836Y-67563265D01*
X113071490Y-67574231D01*
X113184084Y-67596046D01*
X113282875Y-67629714D01*
X113371121Y-67676236D01*
X113419986Y-67710448D01*
X113449353Y-67732362D01*
X113471043Y-67747333D01*
X113479253Y-67751733D01*
X113480868Y-67740904D01*
X113482159Y-67710251D01*
X113483138Y-67662526D01*
X113483817Y-67600479D01*
X113484210Y-67526862D01*
X113484330Y-67444427D01*
X113484188Y-67355925D01*
X113483797Y-67264107D01*
X113483171Y-67171724D01*
X113482320Y-67081528D01*
X113481260Y-66996271D01*
X113480001Y-66918703D01*
X113478556Y-66851576D01*
X113476938Y-66797641D01*
X113475161Y-66759650D01*
X113474669Y-66752667D01*
X113467092Y-66682251D01*
X113455531Y-66627102D01*
X113437792Y-66579981D01*
X113411682Y-66533647D01*
X113405415Y-66524067D01*
X113380983Y-66487378D01*
X114286311Y-66487378D01*
X114286507Y-68172245D01*
G37*
X110773574Y-67566552D02*
X110925492Y-67586567D01*
X111060756Y-67620202D01*
X111180239Y-67667725D01*
X111284815Y-67729405D01*
X111362424Y-67792965D01*
X111431265Y-67867099D01*
X111485006Y-67946871D01*
X111527910Y-68039091D01*
X111543384Y-68082161D01*
X111556244Y-68121142D01*
X111567446Y-68157289D01*
X111577120Y-68192434D01*
X111585396Y-68228410D01*
X111592403Y-68267050D01*
X111598272Y-68310185D01*
X111603131Y-68359649D01*
X111607110Y-68417273D01*
X111610340Y-68484891D01*
X111612949Y-68564334D01*
X111615067Y-68657436D01*
X111616824Y-68766027D01*
X111618349Y-68891942D01*
X111619772Y-69037012D01*
X111621025Y-69179778D01*
X111622351Y-69335968D01*
X111623556Y-69471239D01*
X111624766Y-69587246D01*
X111626106Y-69685645D01*
X111627700Y-69768093D01*
X111629675Y-69836246D01*
X111632156Y-69891760D01*
X111635269Y-69936292D01*
X111639138Y-69971498D01*
X111643889Y-69999034D01*
X111649648Y-70020556D01*
X111656539Y-70037722D01*
X111664689Y-70052186D01*
X111674223Y-70065606D01*
X111685266Y-70079638D01*
X111689566Y-70085071D01*
X111705386Y-70107910D01*
X111712422Y-70123463D01*
X111712444Y-70123922D01*
X111701567Y-70126121D01*
X111670582Y-70128147D01*
X111621957Y-70129942D01*
X111558163Y-70131451D01*
X111481669Y-70132616D01*
X111394944Y-70133380D01*
X111300457Y-70133686D01*
X111289550Y-70133689D01*
X110866657Y-70133689D01*
X110863395Y-70037622D01*
X110860133Y-69941556D01*
X110798044Y-69992543D01*
X110700714Y-70060057D01*
X110590813Y-70114749D01*
X110504349Y-70144978D01*
X110435278Y-70159666D01*
X110351925Y-70169659D01*
X110262159Y-70174646D01*
X110173845Y-70174313D01*
X110094851Y-70168351D01*
X110058622Y-70162638D01*
X109918603Y-70124776D01*
X109792178Y-70069932D01*
X109680260Y-69998924D01*
X109583762Y-69912568D01*
X109503600Y-69811679D01*
X109440687Y-69697076D01*
X109396312Y-69570984D01*
X109383978Y-69514401D01*
X109376368Y-69452202D01*
X109372739Y-69377363D01*
X109372245Y-69343467D01*
X109372310Y-69340282D01*
X110132248Y-69340282D01*
X110141541Y-69415333D01*
X110169728Y-69479160D01*
X110218197Y-69534798D01*
X110223254Y-69539211D01*
X110271548Y-69574037D01*
X110323257Y-69596620D01*
X110383989Y-69608540D01*
X110459352Y-69611383D01*
X110477459Y-69610978D01*
X110531278Y-69608325D01*
X110571308Y-69602909D01*
X110606324Y-69592745D01*
X110645103Y-69575850D01*
X110655745Y-69570672D01*
X110716396Y-69534844D01*
X110763215Y-69492212D01*
X110775952Y-69476973D01*
X110820622Y-69420462D01*
X110820622Y-69224586D01*
X110820086Y-69145939D01*
X110818396Y-69087988D01*
X110815428Y-69048875D01*
X110811057Y-69026741D01*
X110806972Y-69020274D01*
X110791047Y-69017111D01*
X110757264Y-69014488D01*
X110710340Y-69012655D01*
X110654993Y-69011857D01*
X110646106Y-69011842D01*
X110525330Y-69017096D01*
X110422660Y-69033263D01*
X110336106Y-69060961D01*
X110263681Y-69100808D01*
X110208751Y-69147758D01*
X110164204Y-69205645D01*
X110139480Y-69268693D01*
X110132248Y-69340282D01*
X109372310Y-69340282D01*
X109374178Y-69249712D01*
X109382522Y-69170812D01*
X109398768Y-69099590D01*
X109424405Y-69028864D01*
X109448401Y-68976493D01*
X109507020Y-68881196D01*
X109585117Y-68793170D01*
X109680315Y-68714017D01*
X109790238Y-68645340D01*
X109912510Y-68588741D01*
X110044755Y-68545821D01*
X110109422Y-68530882D01*
X110245604Y-68508777D01*
X110394049Y-68494194D01*
X110545505Y-68487813D01*
X110672064Y-68489445D01*
X110833950Y-68496224D01*
X110826530Y-68437245D01*
X110807238Y-68338092D01*
X110776104Y-68257372D01*
X110732269Y-68194466D01*
X110674871Y-68148756D01*
X110603048Y-68119622D01*
X110515941Y-68106447D01*
X110412686Y-68108611D01*
X110374711Y-68112612D01*
X110233520Y-68137780D01*
X110096707Y-68178814D01*
X110002178Y-68216815D01*
X109957018Y-68236190D01*
X109918585Y-68251760D01*
X109892234Y-68261405D01*
X109884546Y-68263452D01*
X109874802Y-68254374D01*
X109858083Y-68225405D01*
X109834232Y-68176217D01*
X109803093Y-68106484D01*
X109764507Y-68015879D01*
X109757910Y-68000089D01*
X109727853Y-67927772D01*
X109700874Y-67862425D01*
X109678136Y-67806906D01*
X109660806Y-67764072D01*
X109650048Y-67736781D01*
X109646941Y-67727942D01*
X109656940Y-67723187D01*
X109683217Y-67717910D01*
X109711489Y-67714231D01*
X109741646Y-67709474D01*
X109789433Y-67700028D01*
X109850612Y-67686820D01*
X109920946Y-67670776D01*
X109996194Y-67652820D01*
X110024755Y-67645797D01*
X110129816Y-67620209D01*
X110217480Y-67600147D01*
X110292068Y-67584969D01*
X110357903Y-67574035D01*
X110419307Y-67566704D01*
X110480602Y-67562335D01*
X110546110Y-67560287D01*
X110604128Y-67559889D01*
X110773574Y-67566552D01*
G36*
X110773574Y-67566552D02*
G01*
X110925492Y-67586567D01*
X111060756Y-67620202D01*
X111180239Y-67667725D01*
X111284815Y-67729405D01*
X111362424Y-67792965D01*
X111431265Y-67867099D01*
X111485006Y-67946871D01*
X111527910Y-68039091D01*
X111543384Y-68082161D01*
X111556244Y-68121142D01*
X111567446Y-68157289D01*
X111577120Y-68192434D01*
X111585396Y-68228410D01*
X111592403Y-68267050D01*
X111598272Y-68310185D01*
X111603131Y-68359649D01*
X111607110Y-68417273D01*
X111610340Y-68484891D01*
X111612949Y-68564334D01*
X111615067Y-68657436D01*
X111616824Y-68766027D01*
X111618349Y-68891942D01*
X111619772Y-69037012D01*
X111621025Y-69179778D01*
X111622351Y-69335968D01*
X111623556Y-69471239D01*
X111624766Y-69587246D01*
X111626106Y-69685645D01*
X111627700Y-69768093D01*
X111629675Y-69836246D01*
X111632156Y-69891760D01*
X111635269Y-69936292D01*
X111639138Y-69971498D01*
X111643889Y-69999034D01*
X111649648Y-70020556D01*
X111656539Y-70037722D01*
X111664689Y-70052186D01*
X111674223Y-70065606D01*
X111685266Y-70079638D01*
X111689566Y-70085071D01*
X111705386Y-70107910D01*
X111712422Y-70123463D01*
X111712444Y-70123922D01*
X111701567Y-70126121D01*
X111670582Y-70128147D01*
X111621957Y-70129942D01*
X111558163Y-70131451D01*
X111481669Y-70132616D01*
X111394944Y-70133380D01*
X111300457Y-70133686D01*
X111289550Y-70133689D01*
X110866657Y-70133689D01*
X110863395Y-70037622D01*
X110860133Y-69941556D01*
X110798044Y-69992543D01*
X110700714Y-70060057D01*
X110590813Y-70114749D01*
X110504349Y-70144978D01*
X110435278Y-70159666D01*
X110351925Y-70169659D01*
X110262159Y-70174646D01*
X110173845Y-70174313D01*
X110094851Y-70168351D01*
X110058622Y-70162638D01*
X109918603Y-70124776D01*
X109792178Y-70069932D01*
X109680260Y-69998924D01*
X109583762Y-69912568D01*
X109503600Y-69811679D01*
X109440687Y-69697076D01*
X109396312Y-69570984D01*
X109383978Y-69514401D01*
X109376368Y-69452202D01*
X109372739Y-69377363D01*
X109372245Y-69343467D01*
X109372310Y-69340282D01*
X110132248Y-69340282D01*
X110141541Y-69415333D01*
X110169728Y-69479160D01*
X110218197Y-69534798D01*
X110223254Y-69539211D01*
X110271548Y-69574037D01*
X110323257Y-69596620D01*
X110383989Y-69608540D01*
X110459352Y-69611383D01*
X110477459Y-69610978D01*
X110531278Y-69608325D01*
X110571308Y-69602909D01*
X110606324Y-69592745D01*
X110645103Y-69575850D01*
X110655745Y-69570672D01*
X110716396Y-69534844D01*
X110763215Y-69492212D01*
X110775952Y-69476973D01*
X110820622Y-69420462D01*
X110820622Y-69224586D01*
X110820086Y-69145939D01*
X110818396Y-69087988D01*
X110815428Y-69048875D01*
X110811057Y-69026741D01*
X110806972Y-69020274D01*
X110791047Y-69017111D01*
X110757264Y-69014488D01*
X110710340Y-69012655D01*
X110654993Y-69011857D01*
X110646106Y-69011842D01*
X110525330Y-69017096D01*
X110422660Y-69033263D01*
X110336106Y-69060961D01*
X110263681Y-69100808D01*
X110208751Y-69147758D01*
X110164204Y-69205645D01*
X110139480Y-69268693D01*
X110132248Y-69340282D01*
X109372310Y-69340282D01*
X109374178Y-69249712D01*
X109382522Y-69170812D01*
X109398768Y-69099590D01*
X109424405Y-69028864D01*
X109448401Y-68976493D01*
X109507020Y-68881196D01*
X109585117Y-68793170D01*
X109680315Y-68714017D01*
X109790238Y-68645340D01*
X109912510Y-68588741D01*
X110044755Y-68545821D01*
X110109422Y-68530882D01*
X110245604Y-68508777D01*
X110394049Y-68494194D01*
X110545505Y-68487813D01*
X110672064Y-68489445D01*
X110833950Y-68496224D01*
X110826530Y-68437245D01*
X110807238Y-68338092D01*
X110776104Y-68257372D01*
X110732269Y-68194466D01*
X110674871Y-68148756D01*
X110603048Y-68119622D01*
X110515941Y-68106447D01*
X110412686Y-68108611D01*
X110374711Y-68112612D01*
X110233520Y-68137780D01*
X110096707Y-68178814D01*
X110002178Y-68216815D01*
X109957018Y-68236190D01*
X109918585Y-68251760D01*
X109892234Y-68261405D01*
X109884546Y-68263452D01*
X109874802Y-68254374D01*
X109858083Y-68225405D01*
X109834232Y-68176217D01*
X109803093Y-68106484D01*
X109764507Y-68015879D01*
X109757910Y-68000089D01*
X109727853Y-67927772D01*
X109700874Y-67862425D01*
X109678136Y-67806906D01*
X109660806Y-67764072D01*
X109650048Y-67736781D01*
X109646941Y-67727942D01*
X109656940Y-67723187D01*
X109683217Y-67717910D01*
X109711489Y-67714231D01*
X109741646Y-67709474D01*
X109789433Y-67700028D01*
X109850612Y-67686820D01*
X109920946Y-67670776D01*
X109996194Y-67652820D01*
X110024755Y-67645797D01*
X110129816Y-67620209D01*
X110217480Y-67600147D01*
X110292068Y-67584969D01*
X110357903Y-67574035D01*
X110419307Y-67566704D01*
X110480602Y-67562335D01*
X110546110Y-67560287D01*
X110604128Y-67559889D01*
X110773574Y-67566552D01*
G37*
X105153600Y-66189054D02*
X105164465Y-66302993D01*
X105196082Y-66410616D01*
X105246985Y-66509615D01*
X105315707Y-66597684D01*
X105400781Y-66672516D01*
X105497768Y-66730384D01*
X105604036Y-66770005D01*
X105711050Y-66788573D01*
X105816700Y-66787434D01*
X105918875Y-66767930D01*
X106015466Y-66731406D01*
X106104362Y-66679205D01*
X106183454Y-66612673D01*
X106250631Y-66533152D01*
X106303783Y-66441987D01*
X106340801Y-66340523D01*
X106359573Y-66230102D01*
X106361511Y-66180206D01*
X106361511Y-66092267D01*
X106413440Y-66092267D01*
X106449747Y-66095111D01*
X106476645Y-66106911D01*
X106503751Y-66130649D01*
X106542133Y-66169031D01*
X106542133Y-68360602D01*
X106542124Y-68622739D01*
X106542092Y-68863241D01*
X106542028Y-69083048D01*
X106541924Y-69283101D01*
X106541773Y-69464344D01*
X106541566Y-69627716D01*
X106541294Y-69774160D01*
X106540950Y-69904617D01*
X106540526Y-70020029D01*
X106540013Y-70121338D01*
X106539403Y-70209484D01*
X106538688Y-70285410D01*
X106537860Y-70350057D01*
X106536911Y-70404367D01*
X106535833Y-70449280D01*
X106534617Y-70485740D01*
X106533255Y-70514687D01*
X106531739Y-70537063D01*
X106530062Y-70553809D01*
X106528214Y-70565868D01*
X106526187Y-70574180D01*
X106523975Y-70579687D01*
X106522892Y-70581537D01*
X106518729Y-70588549D01*
X106515195Y-70594996D01*
X106511365Y-70600900D01*
X106506318Y-70606286D01*
X106499129Y-70611178D01*
X106488877Y-70615598D01*
X106474636Y-70619572D01*
X106455486Y-70623121D01*
X106430501Y-70626270D01*
X106398760Y-70629042D01*
X106359338Y-70631461D01*
X106311314Y-70633551D01*
X106253763Y-70635335D01*
X106185763Y-70636837D01*
X106106390Y-70638080D01*
X106014721Y-70639089D01*
X105909834Y-70639885D01*
X105790804Y-70640494D01*
X105656710Y-70640939D01*
X105506627Y-70641243D01*
X105339633Y-70641430D01*
X105154804Y-70641524D01*
X104951217Y-70641548D01*
X104727950Y-70641525D01*
X104484078Y-70641480D01*
X104218679Y-70641437D01*
X104180296Y-70641432D01*
X103913318Y-70641389D01*
X103667998Y-70641318D01*
X103443417Y-70641213D01*
X103238655Y-70641066D01*
X103052794Y-70640869D01*
X102884912Y-70640616D01*
X102734092Y-70640300D01*
X102599413Y-70639913D01*
X102479956Y-70639447D01*
X102374801Y-70638897D01*
X102283029Y-70638253D01*
X102203721Y-70637511D01*
X102135957Y-70636661D01*
X102078818Y-70635697D01*
X102031383Y-70634611D01*
X101992734Y-70633397D01*
X101961951Y-70632047D01*
X101938115Y-70630555D01*
X101920306Y-70628911D01*
X101907605Y-70627111D01*
X101899092Y-70625145D01*
X101894734Y-70623477D01*
X101886272Y-70619906D01*
X101878503Y-70617270D01*
X101871398Y-70614634D01*
X101864927Y-70611062D01*
X101859061Y-70605621D01*
X101853771Y-70597375D01*
X101849026Y-70585390D01*
X101844798Y-70568731D01*
X101841057Y-70546463D01*
X101837773Y-70517652D01*
X101834917Y-70481363D01*
X101832460Y-70436661D01*
X101830371Y-70382611D01*
X101828622Y-70318279D01*
X101827183Y-70242730D01*
X101826024Y-70155030D01*
X101825117Y-70054243D01*
X101824431Y-69939434D01*
X101823937Y-69809670D01*
X101823605Y-69664015D01*
X101823407Y-69501535D01*
X101823313Y-69321295D01*
X101823292Y-69122360D01*
X101823315Y-68903796D01*
X101823354Y-68664668D01*
X101823378Y-68404040D01*
X101823378Y-68361889D01*
X101823364Y-68098992D01*
X101823339Y-67857732D01*
X101823329Y-67637165D01*
X101823358Y-67436352D01*
X101823452Y-67254349D01*
X101823638Y-67090216D01*
X101823941Y-66943011D01*
X101824386Y-66811792D01*
X101824966Y-66701867D01*
X102127803Y-66701867D01*
X102167593Y-66759711D01*
X102178764Y-66775479D01*
X102188834Y-66789441D01*
X102197862Y-66802784D01*
X102205903Y-66816693D01*
X102213014Y-66832356D01*
X102219253Y-66850958D01*
X102224675Y-66873686D01*
X102229338Y-66901727D01*
X102233299Y-66936267D01*
X102236615Y-66978492D01*
X102239341Y-67029589D01*
X102241536Y-67090744D01*
X102243255Y-67163144D01*
X102244556Y-67247975D01*
X102245495Y-67346422D01*
X102246130Y-67459674D01*
X102246516Y-67588916D01*
X102246712Y-67735334D01*
X102246773Y-67900116D01*
X102246757Y-68084447D01*
X102246720Y-68289513D01*
X102246711Y-68412133D01*
X102246735Y-68629082D01*
X102246769Y-68824642D01*
X102246757Y-68999999D01*
X102246642Y-69156341D01*
X102246370Y-69294857D01*
X102245882Y-69416734D01*
X102245124Y-69523160D01*
X102244038Y-69615322D01*
X102242569Y-69694409D01*
X102240660Y-69761608D01*
X102238256Y-69818107D01*
X102235299Y-69865093D01*
X102231734Y-69903755D01*
X102227505Y-69935280D01*
X102222554Y-69960855D01*
X102216827Y-69981670D01*
X102210267Y-69998911D01*
X102202817Y-70013765D01*
X102194421Y-70027422D01*
X102185024Y-70041069D01*
X102174568Y-70055893D01*
X102168477Y-70064783D01*
X102129704Y-70122400D01*
X102661268Y-70122400D01*
X102784517Y-70122365D01*
X102887013Y-70122215D01*
X102970580Y-70121878D01*
X103037044Y-70121286D01*
X103088229Y-70120367D01*
X103125959Y-70119051D01*
X103152060Y-70117269D01*
X103168356Y-70114951D01*
X103176672Y-70112026D01*
X103178832Y-70108424D01*
X103176661Y-70104075D01*
X103175465Y-70102645D01*
X103150315Y-70065573D01*
X103124417Y-70012772D01*
X103100808Y-69950770D01*
X103092539Y-69924357D01*
X103087922Y-69906416D01*
X103084021Y-69885355D01*
X103080752Y-69859089D01*
X103078034Y-69825532D01*
X103075785Y-69782599D01*
X103073923Y-69728204D01*
X103072364Y-69660262D01*
X103071028Y-69576688D01*
X103069831Y-69475395D01*
X103068692Y-69354300D01*
X103068315Y-69309600D01*
X103067298Y-69184449D01*
X103066540Y-69080082D01*
X103066097Y-68994707D01*
X103066030Y-68926533D01*
X103066395Y-68873765D01*
X103067252Y-68834614D01*
X103068659Y-68807285D01*
X103070675Y-68789986D01*
X103073357Y-68780926D01*
X103076764Y-68778312D01*
X103080956Y-68780351D01*
X103085429Y-68784667D01*
X103095784Y-68797602D01*
X103117842Y-68826676D01*
X103150043Y-68869759D01*
X103190826Y-68924718D01*
X103238630Y-68989423D01*
X103291895Y-69061742D01*
X103349060Y-69139544D01*
X103408563Y-69220698D01*
X103468845Y-69303072D01*
X103528345Y-69384536D01*
X103585502Y-69462957D01*
X103638755Y-69536204D01*
X103686543Y-69602147D01*
X103727307Y-69658654D01*
X103759484Y-69703593D01*
X103781515Y-69734834D01*
X103786083Y-69741466D01*
X103809004Y-69778369D01*
X103835812Y-69826359D01*
X103861211Y-69875897D01*
X103864432Y-69882577D01*
X103886110Y-69930772D01*
X103898696Y-69968334D01*
X103904426Y-70004160D01*
X103905544Y-70046200D01*
X103904910Y-70122400D01*
X105059349Y-70122400D01*
X105054347Y-70117257D01*
X105266489Y-70117257D01*
X105277396Y-70118334D01*
X105308589Y-70119335D01*
X105357777Y-70120235D01*
X105422667Y-70121010D01*
X105500970Y-70121637D01*
X105590393Y-70122091D01*
X105688644Y-70122349D01*
X105757555Y-70122400D01*
X105862548Y-70122180D01*
X105959390Y-70121548D01*
X106045893Y-70120549D01*
X106119868Y-70119227D01*
X106179126Y-70117626D01*
X106221480Y-70115791D01*
X106244740Y-70113765D01*
X106248622Y-70112493D01*
X106240924Y-70097591D01*
X106232926Y-70089560D01*
X106219754Y-70072434D01*
X106202515Y-70042183D01*
X106190593Y-70017622D01*
X106163955Y-69958711D01*
X106160880Y-68781845D01*
X106157805Y-67604978D01*
X105712147Y-67604978D01*
X105614330Y-67605142D01*
X105523936Y-67605611D01*
X105443370Y-67606347D01*
X105375038Y-67607316D01*
X105321344Y-67608480D01*
X105284695Y-67609803D01*
X105267496Y-67611249D01*
X105266489Y-67611702D01*
X105272398Y-67624659D01*
X105286728Y-67646908D01*
X105287775Y-67648391D01*
X105306562Y-67678544D01*
X105326209Y-67715375D01*
X105330108Y-67723511D01*
X105333644Y-67731940D01*
X105336770Y-67742059D01*
X105339514Y-67755260D01*
X105341908Y-67772938D01*
X105343981Y-67796484D01*
X105345765Y-67827293D01*
X105347288Y-67866757D01*
X105348581Y-67916269D01*
X105349674Y-67977223D01*
X105350597Y-68051011D01*
X105351381Y-68139028D01*
X105352055Y-68242665D01*
X105352650Y-68363316D01*
X105353195Y-68502374D01*
X105353721Y-68661232D01*
X105354255Y-68840089D01*
X105354794Y-69025207D01*
X105355228Y-69189145D01*
X105355491Y-69333303D01*
X105355516Y-69459079D01*
X105355235Y-69567871D01*
X105354581Y-69661077D01*
X105353486Y-69740097D01*
X105351882Y-69806328D01*
X105349703Y-69861170D01*
X105346881Y-69906021D01*
X105343349Y-69942278D01*
X105339039Y-69971341D01*
X105333883Y-69994609D01*
X105327815Y-70013479D01*
X105320767Y-70029351D01*
X105312671Y-70043622D01*
X105303460Y-70057691D01*
X105294960Y-70070158D01*
X105277824Y-70096452D01*
X105267678Y-70114037D01*
X105266489Y-70117257D01*
X105054347Y-70117257D01*
X104968185Y-70028669D01*
X104921388Y-69978775D01*
X104871101Y-69922295D01*
X104825056Y-69868026D01*
X104804631Y-69842673D01*
X104774193Y-69803128D01*
X104734138Y-69749916D01*
X104685639Y-69684667D01*
X104629865Y-69609011D01*
X104567989Y-69524577D01*
X104501181Y-69432994D01*
X104430613Y-69335892D01*
X104357455Y-69234901D01*
X104282879Y-69131650D01*
X104208056Y-69027768D01*
X104134157Y-68924885D01*
X104062354Y-68824631D01*
X103993816Y-68728636D01*
X103929716Y-68638527D01*
X103871225Y-68555936D01*
X103819514Y-68482492D01*
X103775753Y-68419824D01*
X103741115Y-68369561D01*
X103716770Y-68333334D01*
X103703889Y-68312771D01*
X103702131Y-68308668D01*
X103710090Y-68297342D01*
X103730885Y-68270162D01*
X103763153Y-68228829D01*
X103805530Y-68175044D01*
X103856653Y-68110506D01*
X103915159Y-68036918D01*
X103979686Y-67955978D01*
X104048869Y-67869388D01*
X104121347Y-67778848D01*
X104195754Y-67686060D01*
X104255483Y-67611702D01*
X104270730Y-67592722D01*
X104344910Y-67500537D01*
X104416931Y-67411204D01*
X104485431Y-67326424D01*
X104549045Y-67247898D01*
X104606412Y-67177326D01*
X104656167Y-67116409D01*
X104696948Y-67066847D01*
X104714112Y-67046178D01*
X104800404Y-66945516D01*
X104877003Y-66862259D01*
X104945817Y-66794438D01*
X105008752Y-66740089D01*
X105018133Y-66732722D01*
X105057644Y-66702117D01*
X103925884Y-66701867D01*
X103931173Y-66749844D01*
X103927870Y-66807188D01*
X103906339Y-66875463D01*
X103866365Y-66955212D01*
X103821057Y-67027495D01*
X103804839Y-67050140D01*
X103776786Y-67087696D01*
X103738570Y-67138021D01*
X103691863Y-67198973D01*
X103638339Y-67268411D01*
X103579669Y-67344194D01*
X103517525Y-67424180D01*
X103453579Y-67506228D01*
X103389505Y-67588196D01*
X103326973Y-67667943D01*
X103267657Y-67743327D01*
X103213229Y-67812207D01*
X103165361Y-67872442D01*
X103125725Y-67921889D01*
X103095994Y-67958408D01*
X103077839Y-67979858D01*
X103074780Y-67983156D01*
X103071921Y-67975149D01*
X103069707Y-67944855D01*
X103068143Y-67892556D01*
X103067233Y-67818531D01*
X103066980Y-67723063D01*
X103067387Y-67606434D01*
X103068296Y-67486445D01*
X103069618Y-67354333D01*
X103071143Y-67242594D01*
X103073119Y-67149025D01*
X103075794Y-67071419D01*
X103079418Y-67007574D01*
X103084239Y-66955283D01*
X103090506Y-66912344D01*
X103098468Y-66876551D01*
X103108373Y-66845700D01*
X103120469Y-66817586D01*
X103135007Y-66790005D01*
X103149689Y-66764966D01*
X103187686Y-66701867D01*
X102127803Y-66701867D01*
X101824966Y-66701867D01*
X101824999Y-66695617D01*
X101825805Y-66593544D01*
X101826830Y-66504633D01*
X101828100Y-66427941D01*
X101829640Y-66362527D01*
X101831476Y-66307449D01*
X101833633Y-66261765D01*
X101836137Y-66224534D01*
X101839013Y-66194813D01*
X101842287Y-66171662D01*
X101845985Y-66154139D01*
X101850131Y-66141301D01*
X101854753Y-66132208D01*
X101859874Y-66125918D01*
X101865522Y-66121488D01*
X101871721Y-66117978D01*
X101878496Y-66114445D01*
X101884492Y-66110876D01*
X101889725Y-66108300D01*
X101897901Y-66105972D01*
X101910114Y-66103878D01*
X101927459Y-66102007D01*
X101951031Y-66100347D01*
X101981923Y-66098884D01*
X102021232Y-66097608D01*
X102070050Y-66096504D01*
X102129473Y-66095561D01*
X102200596Y-66094767D01*
X102284512Y-66094109D01*
X102382317Y-66093575D01*
X102495106Y-66093153D01*
X102623971Y-66092829D01*
X102770009Y-66092592D01*
X102934314Y-66092430D01*
X103117980Y-66092330D01*
X103322103Y-66092280D01*
X103533247Y-66092267D01*
X105153600Y-66092267D01*
X105153600Y-66189054D01*
G36*
X105153600Y-66189054D02*
G01*
X105164465Y-66302993D01*
X105196082Y-66410616D01*
X105246985Y-66509615D01*
X105315707Y-66597684D01*
X105400781Y-66672516D01*
X105497768Y-66730384D01*
X105604036Y-66770005D01*
X105711050Y-66788573D01*
X105816700Y-66787434D01*
X105918875Y-66767930D01*
X106015466Y-66731406D01*
X106104362Y-66679205D01*
X106183454Y-66612673D01*
X106250631Y-66533152D01*
X106303783Y-66441987D01*
X106340801Y-66340523D01*
X106359573Y-66230102D01*
X106361511Y-66180206D01*
X106361511Y-66092267D01*
X106413440Y-66092267D01*
X106449747Y-66095111D01*
X106476645Y-66106911D01*
X106503751Y-66130649D01*
X106542133Y-66169031D01*
X106542133Y-68360602D01*
X106542124Y-68622739D01*
X106542092Y-68863241D01*
X106542028Y-69083048D01*
X106541924Y-69283101D01*
X106541773Y-69464344D01*
X106541566Y-69627716D01*
X106541294Y-69774160D01*
X106540950Y-69904617D01*
X106540526Y-70020029D01*
X106540013Y-70121338D01*
X106539403Y-70209484D01*
X106538688Y-70285410D01*
X106537860Y-70350057D01*
X106536911Y-70404367D01*
X106535833Y-70449280D01*
X106534617Y-70485740D01*
X106533255Y-70514687D01*
X106531739Y-70537063D01*
X106530062Y-70553809D01*
X106528214Y-70565868D01*
X106526187Y-70574180D01*
X106523975Y-70579687D01*
X106522892Y-70581537D01*
X106518729Y-70588549D01*
X106515195Y-70594996D01*
X106511365Y-70600900D01*
X106506318Y-70606286D01*
X106499129Y-70611178D01*
X106488877Y-70615598D01*
X106474636Y-70619572D01*
X106455486Y-70623121D01*
X106430501Y-70626270D01*
X106398760Y-70629042D01*
X106359338Y-70631461D01*
X106311314Y-70633551D01*
X106253763Y-70635335D01*
X106185763Y-70636837D01*
X106106390Y-70638080D01*
X106014721Y-70639089D01*
X105909834Y-70639885D01*
X105790804Y-70640494D01*
X105656710Y-70640939D01*
X105506627Y-70641243D01*
X105339633Y-70641430D01*
X105154804Y-70641524D01*
X104951217Y-70641548D01*
X104727950Y-70641525D01*
X104484078Y-70641480D01*
X104218679Y-70641437D01*
X104180296Y-70641432D01*
X103913318Y-70641389D01*
X103667998Y-70641318D01*
X103443417Y-70641213D01*
X103238655Y-70641066D01*
X103052794Y-70640869D01*
X102884912Y-70640616D01*
X102734092Y-70640300D01*
X102599413Y-70639913D01*
X102479956Y-70639447D01*
X102374801Y-70638897D01*
X102283029Y-70638253D01*
X102203721Y-70637511D01*
X102135957Y-70636661D01*
X102078818Y-70635697D01*
X102031383Y-70634611D01*
X101992734Y-70633397D01*
X101961951Y-70632047D01*
X101938115Y-70630555D01*
X101920306Y-70628911D01*
X101907605Y-70627111D01*
X101899092Y-70625145D01*
X101894734Y-70623477D01*
X101886272Y-70619906D01*
X101878503Y-70617270D01*
X101871398Y-70614634D01*
X101864927Y-70611062D01*
X101859061Y-70605621D01*
X101853771Y-70597375D01*
X101849026Y-70585390D01*
X101844798Y-70568731D01*
X101841057Y-70546463D01*
X101837773Y-70517652D01*
X101834917Y-70481363D01*
X101832460Y-70436661D01*
X101830371Y-70382611D01*
X101828622Y-70318279D01*
X101827183Y-70242730D01*
X101826024Y-70155030D01*
X101825117Y-70054243D01*
X101824431Y-69939434D01*
X101823937Y-69809670D01*
X101823605Y-69664015D01*
X101823407Y-69501535D01*
X101823313Y-69321295D01*
X101823292Y-69122360D01*
X101823315Y-68903796D01*
X101823354Y-68664668D01*
X101823378Y-68404040D01*
X101823378Y-68361889D01*
X101823364Y-68098992D01*
X101823339Y-67857732D01*
X101823329Y-67637165D01*
X101823358Y-67436352D01*
X101823452Y-67254349D01*
X101823638Y-67090216D01*
X101823941Y-66943011D01*
X101824386Y-66811792D01*
X101824966Y-66701867D01*
X102127803Y-66701867D01*
X102167593Y-66759711D01*
X102178764Y-66775479D01*
X102188834Y-66789441D01*
X102197862Y-66802784D01*
X102205903Y-66816693D01*
X102213014Y-66832356D01*
X102219253Y-66850958D01*
X102224675Y-66873686D01*
X102229338Y-66901727D01*
X102233299Y-66936267D01*
X102236615Y-66978492D01*
X102239341Y-67029589D01*
X102241536Y-67090744D01*
X102243255Y-67163144D01*
X102244556Y-67247975D01*
X102245495Y-67346422D01*
X102246130Y-67459674D01*
X102246516Y-67588916D01*
X102246712Y-67735334D01*
X102246773Y-67900116D01*
X102246757Y-68084447D01*
X102246720Y-68289513D01*
X102246711Y-68412133D01*
X102246735Y-68629082D01*
X102246769Y-68824642D01*
X102246757Y-68999999D01*
X102246642Y-69156341D01*
X102246370Y-69294857D01*
X102245882Y-69416734D01*
X102245124Y-69523160D01*
X102244038Y-69615322D01*
X102242569Y-69694409D01*
X102240660Y-69761608D01*
X102238256Y-69818107D01*
X102235299Y-69865093D01*
X102231734Y-69903755D01*
X102227505Y-69935280D01*
X102222554Y-69960855D01*
X102216827Y-69981670D01*
X102210267Y-69998911D01*
X102202817Y-70013765D01*
X102194421Y-70027422D01*
X102185024Y-70041069D01*
X102174568Y-70055893D01*
X102168477Y-70064783D01*
X102129704Y-70122400D01*
X102661268Y-70122400D01*
X102784517Y-70122365D01*
X102887013Y-70122215D01*
X102970580Y-70121878D01*
X103037044Y-70121286D01*
X103088229Y-70120367D01*
X103125959Y-70119051D01*
X103152060Y-70117269D01*
X103168356Y-70114951D01*
X103176672Y-70112026D01*
X103178832Y-70108424D01*
X103176661Y-70104075D01*
X103175465Y-70102645D01*
X103150315Y-70065573D01*
X103124417Y-70012772D01*
X103100808Y-69950770D01*
X103092539Y-69924357D01*
X103087922Y-69906416D01*
X103084021Y-69885355D01*
X103080752Y-69859089D01*
X103078034Y-69825532D01*
X103075785Y-69782599D01*
X103073923Y-69728204D01*
X103072364Y-69660262D01*
X103071028Y-69576688D01*
X103069831Y-69475395D01*
X103068692Y-69354300D01*
X103068315Y-69309600D01*
X103067298Y-69184449D01*
X103066540Y-69080082D01*
X103066097Y-68994707D01*
X103066030Y-68926533D01*
X103066395Y-68873765D01*
X103067252Y-68834614D01*
X103068659Y-68807285D01*
X103070675Y-68789986D01*
X103073357Y-68780926D01*
X103076764Y-68778312D01*
X103080956Y-68780351D01*
X103085429Y-68784667D01*
X103095784Y-68797602D01*
X103117842Y-68826676D01*
X103150043Y-68869759D01*
X103190826Y-68924718D01*
X103238630Y-68989423D01*
X103291895Y-69061742D01*
X103349060Y-69139544D01*
X103408563Y-69220698D01*
X103468845Y-69303072D01*
X103528345Y-69384536D01*
X103585502Y-69462957D01*
X103638755Y-69536204D01*
X103686543Y-69602147D01*
X103727307Y-69658654D01*
X103759484Y-69703593D01*
X103781515Y-69734834D01*
X103786083Y-69741466D01*
X103809004Y-69778369D01*
X103835812Y-69826359D01*
X103861211Y-69875897D01*
X103864432Y-69882577D01*
X103886110Y-69930772D01*
X103898696Y-69968334D01*
X103904426Y-70004160D01*
X103905544Y-70046200D01*
X103904910Y-70122400D01*
X105059349Y-70122400D01*
X105054347Y-70117257D01*
X105266489Y-70117257D01*
X105277396Y-70118334D01*
X105308589Y-70119335D01*
X105357777Y-70120235D01*
X105422667Y-70121010D01*
X105500970Y-70121637D01*
X105590393Y-70122091D01*
X105688644Y-70122349D01*
X105757555Y-70122400D01*
X105862548Y-70122180D01*
X105959390Y-70121548D01*
X106045893Y-70120549D01*
X106119868Y-70119227D01*
X106179126Y-70117626D01*
X106221480Y-70115791D01*
X106244740Y-70113765D01*
X106248622Y-70112493D01*
X106240924Y-70097591D01*
X106232926Y-70089560D01*
X106219754Y-70072434D01*
X106202515Y-70042183D01*
X106190593Y-70017622D01*
X106163955Y-69958711D01*
X106160880Y-68781845D01*
X106157805Y-67604978D01*
X105712147Y-67604978D01*
X105614330Y-67605142D01*
X105523936Y-67605611D01*
X105443370Y-67606347D01*
X105375038Y-67607316D01*
X105321344Y-67608480D01*
X105284695Y-67609803D01*
X105267496Y-67611249D01*
X105266489Y-67611702D01*
X105272398Y-67624659D01*
X105286728Y-67646908D01*
X105287775Y-67648391D01*
X105306562Y-67678544D01*
X105326209Y-67715375D01*
X105330108Y-67723511D01*
X105333644Y-67731940D01*
X105336770Y-67742059D01*
X105339514Y-67755260D01*
X105341908Y-67772938D01*
X105343981Y-67796484D01*
X105345765Y-67827293D01*
X105347288Y-67866757D01*
X105348581Y-67916269D01*
X105349674Y-67977223D01*
X105350597Y-68051011D01*
X105351381Y-68139028D01*
X105352055Y-68242665D01*
X105352650Y-68363316D01*
X105353195Y-68502374D01*
X105353721Y-68661232D01*
X105354255Y-68840089D01*
X105354794Y-69025207D01*
X105355228Y-69189145D01*
X105355491Y-69333303D01*
X105355516Y-69459079D01*
X105355235Y-69567871D01*
X105354581Y-69661077D01*
X105353486Y-69740097D01*
X105351882Y-69806328D01*
X105349703Y-69861170D01*
X105346881Y-69906021D01*
X105343349Y-69942278D01*
X105339039Y-69971341D01*
X105333883Y-69994609D01*
X105327815Y-70013479D01*
X105320767Y-70029351D01*
X105312671Y-70043622D01*
X105303460Y-70057691D01*
X105294960Y-70070158D01*
X105277824Y-70096452D01*
X105267678Y-70114037D01*
X105266489Y-70117257D01*
X105054347Y-70117257D01*
X104968185Y-70028669D01*
X104921388Y-69978775D01*
X104871101Y-69922295D01*
X104825056Y-69868026D01*
X104804631Y-69842673D01*
X104774193Y-69803128D01*
X104734138Y-69749916D01*
X104685639Y-69684667D01*
X104629865Y-69609011D01*
X104567989Y-69524577D01*
X104501181Y-69432994D01*
X104430613Y-69335892D01*
X104357455Y-69234901D01*
X104282879Y-69131650D01*
X104208056Y-69027768D01*
X104134157Y-68924885D01*
X104062354Y-68824631D01*
X103993816Y-68728636D01*
X103929716Y-68638527D01*
X103871225Y-68555936D01*
X103819514Y-68482492D01*
X103775753Y-68419824D01*
X103741115Y-68369561D01*
X103716770Y-68333334D01*
X103703889Y-68312771D01*
X103702131Y-68308668D01*
X103710090Y-68297342D01*
X103730885Y-68270162D01*
X103763153Y-68228829D01*
X103805530Y-68175044D01*
X103856653Y-68110506D01*
X103915159Y-68036918D01*
X103979686Y-67955978D01*
X104048869Y-67869388D01*
X104121347Y-67778848D01*
X104195754Y-67686060D01*
X104255483Y-67611702D01*
X104270730Y-67592722D01*
X104344910Y-67500537D01*
X104416931Y-67411204D01*
X104485431Y-67326424D01*
X104549045Y-67247898D01*
X104606412Y-67177326D01*
X104656167Y-67116409D01*
X104696948Y-67066847D01*
X104714112Y-67046178D01*
X104800404Y-66945516D01*
X104877003Y-66862259D01*
X104945817Y-66794438D01*
X105008752Y-66740089D01*
X105018133Y-66732722D01*
X105057644Y-66702117D01*
X103925884Y-66701867D01*
X103931173Y-66749844D01*
X103927870Y-66807188D01*
X103906339Y-66875463D01*
X103866365Y-66955212D01*
X103821057Y-67027495D01*
X103804839Y-67050140D01*
X103776786Y-67087696D01*
X103738570Y-67138021D01*
X103691863Y-67198973D01*
X103638339Y-67268411D01*
X103579669Y-67344194D01*
X103517525Y-67424180D01*
X103453579Y-67506228D01*
X103389505Y-67588196D01*
X103326973Y-67667943D01*
X103267657Y-67743327D01*
X103213229Y-67812207D01*
X103165361Y-67872442D01*
X103125725Y-67921889D01*
X103095994Y-67958408D01*
X103077839Y-67979858D01*
X103074780Y-67983156D01*
X103071921Y-67975149D01*
X103069707Y-67944855D01*
X103068143Y-67892556D01*
X103067233Y-67818531D01*
X103066980Y-67723063D01*
X103067387Y-67606434D01*
X103068296Y-67486445D01*
X103069618Y-67354333D01*
X103071143Y-67242594D01*
X103073119Y-67149025D01*
X103075794Y-67071419D01*
X103079418Y-67007574D01*
X103084239Y-66955283D01*
X103090506Y-66912344D01*
X103098468Y-66876551D01*
X103108373Y-66845700D01*
X103120469Y-66817586D01*
X103135007Y-66790005D01*
X103149689Y-66764966D01*
X103187686Y-66701867D01*
X102127803Y-66701867D01*
X101824966Y-66701867D01*
X101824999Y-66695617D01*
X101825805Y-66593544D01*
X101826830Y-66504633D01*
X101828100Y-66427941D01*
X101829640Y-66362527D01*
X101831476Y-66307449D01*
X101833633Y-66261765D01*
X101836137Y-66224534D01*
X101839013Y-66194813D01*
X101842287Y-66171662D01*
X101845985Y-66154139D01*
X101850131Y-66141301D01*
X101854753Y-66132208D01*
X101859874Y-66125918D01*
X101865522Y-66121488D01*
X101871721Y-66117978D01*
X101878496Y-66114445D01*
X101884492Y-66110876D01*
X101889725Y-66108300D01*
X101897901Y-66105972D01*
X101910114Y-66103878D01*
X101927459Y-66102007D01*
X101951031Y-66100347D01*
X101981923Y-66098884D01*
X102021232Y-66097608D01*
X102070050Y-66096504D01*
X102129473Y-66095561D01*
X102200596Y-66094767D01*
X102284512Y-66094109D01*
X102382317Y-66093575D01*
X102495106Y-66093153D01*
X102623971Y-66092829D01*
X102770009Y-66092592D01*
X102934314Y-66092430D01*
X103117980Y-66092330D01*
X103322103Y-66092280D01*
X103533247Y-66092267D01*
X105153600Y-66092267D01*
X105153600Y-66189054D01*
G37*
D12*
%TO.C,DC-POWER*%
X93400000Y-103600000D02*
X108100000Y-103600000D01*
X93400000Y-112800000D02*
X93400000Y-103600000D01*
X102200000Y-112800000D02*
X93400000Y-112800000D01*
X107250000Y-103400000D02*
X108300000Y-103400000D01*
X108100000Y-103600000D02*
X108100000Y-106200000D01*
X108100000Y-110100000D02*
X108100000Y-112800000D01*
X108100000Y-112800000D02*
X106200000Y-112800000D01*
X108300000Y-104450000D02*
X108300000Y-103400000D01*
%TO.C,F1*%
X111641422Y-109410000D02*
X112158578Y-109410000D01*
X111641422Y-107990000D02*
X112158578Y-107990000D01*
%TO.C,R1*%
X112139564Y-110965000D02*
X111685436Y-110965000D01*
X112139564Y-112435000D02*
X111685436Y-112435000D01*
%TO.C,PWR_LED1*%
X110900000Y-115560000D02*
X113585000Y-115560000D01*
X113585000Y-113640000D02*
X110900000Y-113640000D01*
X113585000Y-115560000D02*
X113585000Y-113640000D01*
%TO.C,C1*%
X108940000Y-97640000D02*
X108940000Y-99340000D01*
X108940000Y-103160000D02*
X108940000Y-101460000D01*
X113395563Y-97640000D02*
X108940000Y-97640000D01*
X113395563Y-103160000D02*
X108940000Y-103160000D01*
X114460000Y-98704437D02*
X113395563Y-97640000D01*
X114460000Y-98704437D02*
X114460000Y-99340000D01*
X114460000Y-102095563D02*
X113395563Y-103160000D01*
X114460000Y-102095563D02*
X114460000Y-101460000D01*
X115012500Y-102397500D02*
X115012500Y-101772500D01*
X115325000Y-102085000D02*
X114700000Y-102085000D01*
%TO.C,C2*%
X112161252Y-104965000D02*
X111638748Y-104965000D01*
X112161252Y-106435000D02*
X111638748Y-106435000D01*
%TO.C,U1*%
X113570000Y-96040000D02*
X113090000Y-96040000D01*
X113330000Y-95710000D01*
X113570000Y-96040000D01*
G36*
X113570000Y-96040000D02*
G01*
X113090000Y-96040000D01*
X113330000Y-95710000D01*
X113570000Y-96040000D01*
G37*
X108290000Y-88990000D02*
X108290000Y-90250000D01*
X108290000Y-95810000D02*
X108290000Y-94550000D01*
X112050000Y-88990000D02*
X108290000Y-88990000D01*
X112050000Y-95810000D02*
X108290000Y-95810000D01*
%TO.C,C3*%
X99740000Y-98860000D02*
X101440000Y-98860000D01*
X105260000Y-98860000D02*
X103560000Y-98860000D01*
X99740000Y-94404437D02*
X99740000Y-98860000D01*
X105260000Y-94404437D02*
X105260000Y-98860000D01*
X100804437Y-93340000D02*
X99740000Y-94404437D01*
X100804437Y-93340000D02*
X101440000Y-93340000D01*
X104195563Y-93340000D02*
X105260000Y-94404437D01*
X104195563Y-93340000D02*
X103560000Y-93340000D01*
X104497500Y-92787500D02*
X103872500Y-92787500D01*
X104185000Y-92475000D02*
X104185000Y-93100000D01*
%TO.C,C4*%
X97065000Y-95688748D02*
X97065000Y-96211252D01*
X98535000Y-95688748D02*
X98535000Y-96211252D01*
%TO.C,R2*%
X97239564Y-89965000D02*
X96785436Y-89965000D01*
X97239564Y-91435000D02*
X96785436Y-91435000D01*
%TO.C,5V-LED*%
X96000000Y-89160000D02*
X98685000Y-89160000D01*
X98685000Y-87240000D02*
X96000000Y-87240000D01*
X98685000Y-89160000D02*
X98685000Y-87240000D01*
%TO.C,U2*%
X113170000Y-80040000D02*
X112690000Y-80040000D01*
X112930000Y-79710000D01*
X113170000Y-80040000D01*
G36*
X113170000Y-80040000D02*
G01*
X112690000Y-80040000D01*
X112930000Y-79710000D01*
X113170000Y-80040000D01*
G37*
X107890000Y-72990000D02*
X107890000Y-74250000D01*
X107890000Y-79810000D02*
X107890000Y-78550000D01*
X111650000Y-72990000D02*
X107890000Y-72990000D01*
X111650000Y-79810000D02*
X107890000Y-79810000D01*
%TO.C,C5*%
X99340000Y-81660000D02*
X101040000Y-81660000D01*
X104860000Y-81660000D02*
X103160000Y-81660000D01*
X99340000Y-77204437D02*
X99340000Y-81660000D01*
X104860000Y-77204437D02*
X104860000Y-81660000D01*
X100404437Y-76140000D02*
X99340000Y-77204437D01*
X100404437Y-76140000D02*
X101040000Y-76140000D01*
X103795563Y-76140000D02*
X104860000Y-77204437D01*
X103795563Y-76140000D02*
X103160000Y-76140000D01*
X104097500Y-75587500D02*
X103472500Y-75587500D01*
X103785000Y-75275000D02*
X103785000Y-75900000D01*
%TO.C,C6*%
X96765000Y-78438748D02*
X96765000Y-78961252D01*
X98235000Y-78438748D02*
X98235000Y-78961252D01*
%TO.C,R3*%
X97160436Y-74735000D02*
X97614564Y-74735000D01*
X97160436Y-73265000D02*
X97614564Y-73265000D01*
%TO.C,3.3V-LED*%
X98487500Y-70140000D02*
X95802500Y-70140000D01*
X95802500Y-72060000D02*
X98487500Y-72060000D01*
X95802500Y-70140000D02*
X95802500Y-72060000D01*
%TO.C,3.3V OUT 5V*%
X109090000Y-83020000D02*
X114280000Y-83020000D01*
X114280000Y-85780000D02*
X114280000Y-83020000D01*
X109090000Y-85780000D02*
X109090000Y-83020000D01*
X109090000Y-85780000D02*
X114280000Y-85780000D01*
X107820000Y-85780000D02*
X106440000Y-85780000D01*
X106440000Y-85780000D02*
X106440000Y-84400000D01*
%TD*%
M02*
