%TF.GenerationSoftware,KiCad,Pcbnew,9.0.5*%
%TF.CreationDate,2025-10-31T15:32:29+05:30*%
%TF.ProjectId,Breadboard-PCB,42726561-6462-46f6-9172-642d5043422e,rev?*%
%TF.SameCoordinates,Original*%
%TF.FileFunction,Soldermask,Top*%
%TF.FilePolarity,Negative*%
%FSLAX46Y46*%
G04 Gerber Fmt 4.6, Leading zero omitted, Abs format (unit mm)*
G04 Created by KiCad (PCBNEW 9.0.5) date 2025-10-31 15:32:29*
%MOMM*%
%LPD*%
G01*
G04 APERTURE LIST*
G04 Aperture macros list*
%AMRoundRect*
0 Rectangle with rounded corners*
0 $1 Rounding radius*
0 $2 $3 $4 $5 $6 $7 $8 $9 X,Y pos of 4 corners*
0 Add a 4 corners polygon primitive as box body*
4,1,4,$2,$3,$4,$5,$6,$7,$8,$9,$2,$3,0*
0 Add four circle primitives for the rounded corners*
1,1,$1+$1,$2,$3*
1,1,$1+$1,$4,$5*
1,1,$1+$1,$6,$7*
1,1,$1+$1,$8,$9*
0 Add four rect primitives between the rounded corners*
20,1,$1+$1,$2,$3,$4,$5,0*
20,1,$1+$1,$4,$5,$6,$7,0*
20,1,$1+$1,$6,$7,$8,$9,0*
20,1,$1+$1,$8,$9,$2,$3,0*%
G04 Aperture macros list end*
%ADD10R,3.500000X3.500000*%
%ADD11RoundRect,0.750000X-0.750000X-1.000000X0.750000X-1.000000X0.750000X1.000000X-0.750000X1.000000X0*%
%ADD12RoundRect,0.875000X-0.875000X-0.875000X0.875000X-0.875000X0.875000X0.875000X-0.875000X0.875000X0*%
%ADD13RoundRect,0.243750X-0.243750X-0.456250X0.243750X-0.456250X0.243750X0.456250X-0.243750X0.456250X0*%
%ADD14RoundRect,0.250000X0.262500X0.450000X-0.262500X0.450000X-0.262500X-0.450000X0.262500X-0.450000X0*%
%ADD15RoundRect,0.243750X0.243750X0.456250X-0.243750X0.456250X-0.243750X-0.456250X0.243750X-0.456250X0*%
%ADD16RoundRect,0.250000X1.250000X0.550000X-1.250000X0.550000X-1.250000X-0.550000X1.250000X-0.550000X0*%
%ADD17RoundRect,0.250000X0.250000X0.475000X-0.250000X0.475000X-0.250000X-0.475000X0.250000X-0.475000X0*%
%ADD18RoundRect,0.375000X0.625000X0.375000X-0.625000X0.375000X-0.625000X-0.375000X0.625000X-0.375000X0*%
%ADD19RoundRect,0.500000X0.500000X1.400000X-0.500000X1.400000X-0.500000X-1.400000X0.500000X-1.400000X0*%
%ADD20RoundRect,0.250000X-0.550000X1.250000X-0.550000X-1.250000X0.550000X-1.250000X0.550000X1.250000X0*%
%ADD21RoundRect,0.250000X-0.475000X0.250000X-0.475000X-0.250000X0.475000X-0.250000X0.475000X0.250000X0*%
%ADD22RoundRect,0.250000X-0.262500X-0.450000X0.262500X-0.450000X0.262500X0.450000X-0.262500X0.450000X0*%
%ADD23C,1.700000*%
%ADD24R,1.700000X1.700000*%
G04 APERTURE END LIST*
D10*
%TO.C,DC-POWER*%
X107200000Y-108200000D03*
D11*
X101200000Y-108200000D03*
D12*
X104200000Y-112900000D03*
%TD*%
D13*
%TO.C,F1*%
X112837500Y-108700000D03*
X110962500Y-108700000D03*
%TD*%
D14*
%TO.C,R1*%
X111000000Y-111700000D03*
X112825000Y-111700000D03*
%TD*%
D15*
%TO.C,PWR_LED1*%
X110962500Y-114600000D03*
X112837500Y-114600000D03*
%TD*%
D16*
%TO.C,C1*%
X109500000Y-100400000D03*
X113900000Y-100400000D03*
%TD*%
D17*
%TO.C,C2*%
X110950000Y-105700000D03*
X112850000Y-105700000D03*
%TD*%
D18*
%TO.C,U1*%
X113350000Y-90100000D03*
D19*
X107050000Y-92400000D03*
D18*
X113350000Y-92400000D03*
X113350000Y-94700000D03*
%TD*%
D20*
%TO.C,C3*%
X102500000Y-98300000D03*
X102500000Y-93900000D03*
%TD*%
D21*
%TO.C,C4*%
X97800000Y-96900000D03*
X97800000Y-95000000D03*
%TD*%
D14*
%TO.C,R2*%
X96100000Y-90700000D03*
X97925000Y-90700000D03*
%TD*%
D15*
%TO.C,5V-LED*%
X96062500Y-88200000D03*
X97937500Y-88200000D03*
%TD*%
D18*
%TO.C,U2*%
X112950000Y-74100000D03*
D19*
X106650000Y-76400000D03*
D18*
X112950000Y-76400000D03*
X112950000Y-78700000D03*
%TD*%
D20*
%TO.C,C5*%
X102100000Y-81100000D03*
X102100000Y-76700000D03*
%TD*%
D21*
%TO.C,C6*%
X97500000Y-79650000D03*
X97500000Y-77750000D03*
%TD*%
D22*
%TO.C,R3*%
X98300000Y-74000000D03*
X96475000Y-74000000D03*
%TD*%
D13*
%TO.C,3.3V-LED*%
X98425000Y-71100000D03*
X96550000Y-71100000D03*
%TD*%
D23*
%TO.C,3.3V OUT 5V*%
X112900000Y-84400000D03*
X110360000Y-84400000D03*
D24*
X107820000Y-84400000D03*
%TD*%
%TO.C,J3*%
X120900000Y-67200000D03*
D23*
X118360000Y-67200000D03*
X120900000Y-69740000D03*
X118360000Y-69740000D03*
%TD*%
%TO.C,J4*%
X118360000Y-114600000D03*
X120900000Y-114600000D03*
X118360000Y-112060000D03*
D24*
X120900000Y-112060000D03*
%TD*%
M02*
